{
.appVersion = "1361";
DisplayStrings = (
"/Omega",
"/mu",
"/dblgravecomb.case",
"/Eopen",
"/alpha-latin",
"/eopen",
"/strokeshortcomb/idotless/istroke",
"/istroke",
I,
"/Istroke",
"/acutecomb.case/Sacutedotaccent",
"/dblgravecomb.case/Rdblgrave",
"/Alpha-latin",
"/Sigma"
);
classes = (
{
automatic = 1;

glyphs = (
{
color = 4;
glyphname = A;
lastChange = "2022-07-12 17:33:55 +0000";
layers = (
{
anchors = (
{
name = bottom;
position = "{750, 0}";
},
{
name = ogonek;
position = "{1350, 10}";
},
{
name = top;
position = "{746, 1530}";
}
);
layerId = master01;
paths = (
{
closed = 1;
nodes = (
"1491 0 LINE",
"962 1327 LINE",
"531 1327 LINE",
"886 408 LINE",
"646 408 LINE",
"554 145 LINE",
"988 145 LINE",
"1044 0 LINE {name = hr00;}"
);
},
{
closed = 1;
nodes = (
"436 0 LINE",
"679 740 LINE",
"483 1267 LINE",
"9 0 LINE"
);
}
);
width = 1500;
}
);
unicode = 0041;
},
{
glyphname = "Alpha-latin";
lastChange = "2022-07-13 03:26:00 +0000";
layers = (
{
layerId = master01;
paths = (
{
closed = 1;
nodes = (
"857 265 LINE",
"529 265 LINE",
"529 1062 LINE",
"857 1062 LINE",
"857 1327 LINE",
"352 1327 LINE",
"86 1062 LINE",
"86 265 LINE",
"352 0 LINE {name = hr00;}",
"857 0 LINE"
);
},
{
closed = 1;
nodes = (
"1369 1327 LINE",
"927 1327 LINE",
"927 0 LINE",
"1369 0 LINE"
);
}
);
width = 1486;
}
);
unicode = 2C6D;
},
{
color = 4;
glyphname = AE;
lastChange = "2022-07-12 17:33:55 +0000";
layers = (
{
anchors = (
{
name = bottom;
position = "{1153, 0}";
},
{
name = top;
position = "{1236, 1530}";
}
);
layerId = master01;
paths = (
{
closed = 1;
nodes = (
"465 0 LINE",
"560 211 LINE",
"939 211 LINE",
"939 474 LINE",
"678 474 LINE",
"939 1051 LINE",
"939 1327 LINE",
"642 1327 LINE",
"9 0 LINE"
);
},
{
closed = 1;
nodes = (
"2246 0 LINE",
"2246 398 LINE",
"1803 398 LINE",
"1803 265 LINE",
"1516 265 LINE",
"1516 0 LINE"
);
},
{
closed = 1;
nodes = (
"1449 0 LINE",
"1449 530 LINE",
"1891 530 LINE {name = hr00;}",
"1891 797 LINE",
"1449 797 LINE",
"1449 1327 LINE",
"1007 1327 LINE",
"1007 0 LINE"
);
},
{
closed = 1;
nodes = (
"2246 929 LINE",
"2246 1327 LINE",
"1516 1327 LINE",
"1516 1062 LINE",
"1803 1062 LINE",
"1803 929 LINE"
);
}
);
userData = {
com.typemytype.robofont.guides = (
{
angle = 90;
isGlobal = 0;
magnetic = 5;
x = 1007;
y = 0;
}
);
};
width = 2305;
}
);
unicode = 00C6;
},
{
color = 4;
glyphname = B;
lastChange = "2022-07-12 20:55:17 +0000";
layers = (
{
anchors = (
{
name = bottom;
position = "{748, 0}";
},
{
name = top;
position = "{750, 1530}";
}
);
layerId = master01;
paths = (
{
closed = 1;
nodes = (
"1142 0 LINE",
"1408 265 LINE",
"1408 526 LINE",
"1275 659 LINE",
"1408 792 LINE",
"1408 1062 LINE",
"1142 1327 LINE",
"629 1327 LINE",
"629 1062 LINE",
"957 1062 LINE",
"957 779 LINE {name = hr00;}",
"629 779 LINE",
"629 548 LINE",
"957 548 LINE",
"957 265 LINE",
"629 265 LINE",
"629 0 LINE"
);
},
{
closed = 1;
nodes = (
"559 0 LINE",
"559 1327 LINE",
"117 1327 LINE",
"117 0 LINE"
);
}
);
width = 1495;
}
);
leftMetricsKey = H;
unicode = 0042;
},
{
color = 4;
glyphname = C;
lastChange = "2022-07-12 17:33:55 +0000";
layers = (
{
anchors = (
{
name = bottom;
position = "{720, 0}";
},
{
name = btm;
position = "{748, 0}";
},
{
name = top;
position = "{717, 1530}";
}
);
layerId = master01;
paths = (
{
closed = 1;
nodes = (
"539 0 LINE",
"539 1327 LINE {name = hr00;}",
"363 1327 LINE",
"97 1062 LINE",
"97 265 LINE",
"363 0 LINE"
);
},
{
closed = 1;
nodes = (
"1080 0 LINE",
"1345 265 LINE",
"1345 459 LINE",
"903 459 LINE",
"903 265 LINE",
"609 265 LINE",
"609 0 LINE"
);
},
{
closed = 1;
nodes = (
"1345 795 LINE",
"1345 1062 LINE",
"1080 1327 LINE",
"609 1327 LINE",
"609 1062 LINE",
"903 1062 LINE",
"903 795 LINE"
);
}
);
width = 1440;
}
);
unicode = 0043;
},
{
color = 4;
glyphname = D;
lastChange = "2022-07-12 20:55:20 +0000";
layers = (
{
anchors = (
{
name = bottom;
position = "{743, 0}";
},
{
name = center;
position = "{743, 664}";
},
{
name = top;
position = "{727, 1530}";
}
);
layerId = master01;
paths = (
{
closed = 1;
nodes = (
"1134 0 LINE {name = hr00;}",
"1400 265 LINE",
"1400 1062 LINE",
"1134 1327 LINE",
"629 1327 LINE",
"629 1062 LINE",
"957 1062 LINE",
"957 265 LINE",
"629 265 LINE",
"629 0 LINE"
);
},
{
closed = 1;
nodes = (
"559 0 LINE",
"559 1327 LINE",
"117 1327 LINE",
"117 0 LINE"
);
}
);
width = 1486;
}
);
leftMetricsKey = H;
unicode = 0044;
},
{
glyphname = Eth;
lastChange = "2022-07-12 16:17:08 +0000";
layers = (
{
layerId = master01;
paths = (
{
closed = 1;
nodes = (
"1134 0 LINE {name = hr00;}",
"1400 265 LINE",
"1400 1062 LINE",
"1134 1327 LINE",
"629 1327 LINE",
"629 1062 LINE",
"957 1062 LINE",
"957 265 LINE",
"629 265 LINE",
"629 0 LINE"
);
},
{
closed = 1;
nodes = (
"559 0 LINE",
"559 570 LINE",
"774 570 LINE",
"774 757 LINE",
"559 757 LINE",
"559 1327 LINE",
"117 1327 LINE",
"117 757 LINE",
"29 757 LINE",
"29 570 LINE",
"117 570 LINE",
"117 0 LINE"
);
}
);
width = 1496;
}
);
unicode = 00D0;
},
{
glyphname = Dcroat;
lastChange = "2022-07-12 16:17:08 +0000";
layers = (
{
layerId = master01;
paths = (
{
closed = 1;
nodes = (
"1134 0 LINE {name = hr00;}",
"1400 265 LINE",
"1400 1062 LINE",
"1134 1327 LINE",
"629 1327 LINE",
"629 1062 LINE",
"957 1062 LINE",
"957 265 LINE",
"629 265 LINE",
"629 0 LINE"
);
},
{
closed = 1;
nodes = (
"559 0 LINE",
"559 570 LINE",
"774 570 LINE",
"774 757 LINE",
"559 757 LINE",
"559 1327 LINE",
"117 1327 LINE",
"117 757 LINE",
"29 757 LINE",
"29 570 LINE",
"117 570 LINE",
"117 0 LINE"
);
}
);
width = 1496;
}
);
unicode = 0110;
},
{
color = 4;
glyphname = E;
lastChange = "2022-07-12 20:55:00 +0000";
layers = (
{
anchors = (
{
name = bottom;
position = "{708, 0}";
},
{
name = ogonek;
position = "{1274, 10}";
},
{
name = top;
position = "{735, 1530}";
},
{
name = topleft;
position = "{20, 1327}";
}
);
layerId = master01;
paths = (
{
closed = 1;
nodes = (
"559 0 LINE",
"559 545 LINE",
"982 545 LINE {name = hr00;}",
"982 801 LINE",
"559 801 LINE",
"559 1327 LINE",
"117 1327 LINE",
"117 0 LINE"
);
},
{
closed = 1;
nodes = (
"1320 0 LINE",
"1320 398 LINE",
"878 398 LINE",
"878 265 LINE",
"629 265 LINE",
"629 0 LINE"
);
},
{
closed = 1;
nodes = (
"1320 943 LINE",
"1320 1327 LINE",
"629 1327 LINE",
"629 1070 LINE",
"904 1070 LINE",
"904 943 LINE"
);
}
);
width = 1415;
}
);
leftMetricsKey = H;
unicode = 0045;
},
{
glyphname = Eopen;
lastChange = "2022-07-13 03:20:56 +0000";
layers = (
{
layerId = master01;
paths = (
{
closed = 1;
nodes = (
"547 560 LINE",
"855 560 LINE",
"855 791 LINE",
"547 791 LINE",
"547 1327 LINE {name = hr00;}",
"370 1327 LINE",
"104 1062 LINE",
"104 801 LINE",
"261 668 LINE",
"104 533 LINE",
"104 264 LINE",
"370 0 LINE",
"547 0 LINE"
);
},
{
closed = 1;
nodes = (
"1387 265 LINE",
"1387 470 LINE",
"945 470 LINE",
"945 283 LINE",
"617 283 LINE",
"617 0 LINE",
"1122 0 LINE"
);
},
{
closed = 1;
nodes = (
"1387 1062 LINE",
"1122 1327 LINE",
"617 1327 LINE",
"617 1045 LINE",
"945 1045 LINE",
"945 851 LINE",
"1387 851 LINE"
);
}
);
width = 1495;
}
);
unicode = 0190;
},
{
glyphname = Ereversed;
lastChange = "2022-07-12 18:34:35 +0000";
layers = (
{
anchors = (
{
name = bottom;
position = "{707, 0}";
},
{
name = ogonek;
position = "{141, 10}";
},
{
name = top;
position = "{680, 1530}";
},
{
name = topright;
position = "{1395, 1327}";
}
);
layerId = master01;
paths = (
{
closed = 1;
nodes = (
"1298 0 LINE",
"1298 1327 LINE",
"856 1327 LINE",
"856 801 LINE",
"433 801 LINE",
"433 545 LINE {name = hr00;}",
"856 545 LINE",
"856 0 LINE"
);
},
{
closed = 1;
nodes = (
"786 0 LINE",
"786 265 LINE",
"537 265 LINE",
"537 398 LINE",
"95 398 LINE",
"95 0 LINE"
);
},
{
closed = 1;
nodes = (
"511 943 LINE",
"511 1070 LINE",
"786 1070 LINE",
"786 1327 LINE",
"95 1327 LINE",
"95 943 LINE"
);
}
);
width = 1415;
}
);
unicode = 018E;
},
{
color = 4;
glyphname = F;
lastChange = "2022-07-12 20:55:23 +0000";
layers = (
{
anchors = (
{
name = bottom;
position = "{665, 0}";
},
{
name = top;
position = "{680, 1530}";
}
);
layerId = master01;
paths = (
{
closed = 1;
nodes = (
"559 0 LINE",
"559 473 LINE",
"967 473 LINE",
"967 734 LINE",
"559 734 LINE",
"559 1327 LINE",
"117 1327 LINE",
"117 0 LINE {name = hr00;}"
);
},
{
closed = 1;
nodes = (
"1303 887 LINE",
"1303 1327 LINE",
"629 1327 LINE",
"629 1062 LINE",
"861 1062 LINE",
"861 887 LINE"
);
}
);
width = 1329;
}
);
leftMetricsKey = H;
unicode = 0046;
},
{
glyphname = G;
lastChange = "2022-07-12 16:17:08 +0000";
layers = (
{
anchors = (
{
name = top;
position = "{791, 1530}";
}
);
layerId = master01;
paths = (
{
closed = 1;
nodes = (
"936 0 LINE",
"936 265 LINE",
"557 265 LINE",
"557 1327 LINE {name = hr00;}",
"380 1327 LINE",
"115 1062 LINE",
"115 265 LINE",
"380 0 LINE"
);
},
{
closed = 1;
nodes = (
"1398 0 LINE",
"1398 736 LINE",
"791 736 LINE",
"791 473 LINE",
"1006 473 LINE",
"1006 0 LINE"
);
},
{
closed = 1;
nodes = (
"1398 929 LINE",
"1398 1062 LINE",
"1166 1327 LINE",
"627 1327 LINE",
"627 1062 LINE",
"956 1062 LINE",
"956 929 LINE"
);
}
);
width = 1495;
}
);
unicode = 0047;
},
{
color = 4;
glyphname = H;
lastChange = "2022-07-12 17:33:00 +0000";
layers = (
{
anchors = (
{
name = bottom;
position = "{758, 0}";
},
{
name = center;
position = "{758, 664}";
},
{
name = top;
position = "{759, 1530}";
},
{
name = topleft;
position = "{20, 1327}";
}
);
layerId = master01;
paths = (
{
closed = 1;
nodes = (
"1400 0 LINE",
"1400 1327 LINE",
"954 1327 LINE",
"954 805 LINE {name = hr00;}",
"629 805 LINE",
"629 539 LINE",
"957 539 LINE",
"957 0 LINE"
);
},
{
closed = 1;
nodes = (
"559 0 LINE",
"559 1327 LINE",
"117 1327 LINE",
"117 0 LINE"
);
}
);
width = 1516;
}
);
unicode = 0048;
},
{
glyphname = Hbar;
lastChange = "2022-07-12 16:17:08 +0000";
layers = (
{
layerId = master01;
paths = (
{
closed = 1;
nodes = (
"1400 0 LINE",
"1400 955 LINE",
"1516 955 LINE",
"1516 1144 LINE",
"1400 1144 LINE",
"1400 1327 LINE",
"954 1327 LINE",
"954 1144 LINE",
"629 1144 LINE",
"629 955 LINE {name = hr00;}",
"954 955 LINE",
"954 805 LINE",
"629 805 LINE",
"629 539 LINE",
"957 539 LINE",
"957 0 LINE"
);
},
{
closed = 1;
nodes = (
"559 0 LINE",
"559 1327 LINE",
"117 1327 LINE",
"117 1144 LINE",
"0 1144 LINE",
"0 955 LINE",
"117 955 LINE",
"117 0 LINE"
);
}
);
width = 1516;
}
);
unicode = 0126;
},
{
color = 4;
glyphname = I;
lastChange = "2022-07-13 03:24:09 +0000";
layers = (
{
anchors = (
{
name = bottom;
position = "{451, 0}";
},
{
name = center;
position = "{451, 666}";
},
{
name = ogonek;
position = "{812, 10}";
},
{
name = top;
position = "{451, 1529}";
},
{
name = topleft;
position = "{20, 1327}";
}
);
layerId = master01;
paths = (
{
closed = 1;
nodes = (
"805 0 LINE",
"805 283 LINE",
"672 283 LINE",
"672 1045 LINE",
"805 1045 LINE",
"805 1327 LINE",
"97 1327 LINE",
"97 1045 LINE",
"230 1045 LINE",
"230 283 LINE",
"97 283 LINE",
"97 0 LINE {name = hr00;}"
);
}
);
width = 902;
}
);
unicode = 0049;
},
{
glyphname = IJ;
lastChange = "2022-07-12 16:17:08 +0000";
layers = (
{
layerId = master01;
paths = (
{
closed = 1;
nodes = (
"1099 0 LINE",
"1364 265 LINE",
"1364 1327 LINE",
"922 1327 LINE",
"922 265 LINE",
"119 265 LINE",
"117 0 LINE {name = hr00;}"
);
},
{
closed = 1;
nodes = (
"576 432 LINE",
"576 1327 LINE",
"117 1327 LINE",
"117 432 LINE"
);
}
);
width = 1468;
}
);
unicode = 0132;
},
{
glyphname = J;
lastChange = "2022-07-12 17:52:34 +0000";
layers = (
{
anchors = (
{
name = bottom;
position = "{685, 0}";
},
{
name = top;
position = "{765, 1529}";
}
);
layerId = master01;
paths = (
{
closed = 1;
nodes = (
"1000 0 LINE",
"1265 265 LINE",
"1265 1327 LINE",
"213 1327 LINE",
"213 1038 LINE {name = hr00;}",
"823 1038 LINE",
"823 0 LINE"
);
},
{
closed = 1;
nodes = (
"753 0 LINE",
"753 265 LINE",
"511 265 LINE",
"511 556 LINE",
"52 556 LINE",
"52 265 LINE",
"318 0 LINE"
);
}
);
width = 1369;
}
);
unicode = 004A;
},
{
color = 4;
glyphname = K;
lastChange = "2022-07-12 23:26:10 +0000";
layers = (
{
anchors = (
{
name = bottom;
position = "{685, 0}";
},
{
name = btm;
position = "{736, 0}";
},
{
name = top;
position = "{736, 1530}";
}
);
layerId = master01;
paths = (
{
closed = 1;
nodes = (
"1397 1327 LINE",
"937 1327 LINE",
"627 833 LINE",
"627 188 LINE"
);
},
{
closed = 1;
nodes = (
"559 0 LINE {name = hr00;}",
"559 1327 LINE",
"117 1327 LINE",
"117 0 LINE"
);
},
{
closed = 1;
nodes = (
"1418 0 LINE",
"1052 702 LINE",
"790 309 LINE",
"940 0 LINE"
);
}
);
width = 1370;
}
);
leftMetricsKey = H;
unicode = 004B;
},
{
color = 4;
glyphname = L;
lastChange = "2022-07-12 20:55:41 +0000";
layers = (
{
anchors = (
{
name = bottom;
position = "{634, 0}";
},
{
name = center;
position = "{883, 785}";
},
{
name = top;
position = "{341, 1460}";
},
{
name = topright;
position = "{1247, 1327}";
}
);
layerId = master01;
paths = (
{
closed = 1;
nodes = (
"559 0 LINE {name = hr00;}",
"559 1327 LINE",
"117 1327 LINE",
"117 0 LINE"
);
},
{
closed = 1;
nodes = (
"1249 0 LINE",
"1249 433 LINE",
"848 433 LINE",
"848 265 LINE",
"629 265 LINE",
"629 0 LINE"
);
}
);
width = 1267;
}
);
leftMetricsKey = H;
unicode = 004C;
},
{
glyphname = Lslash;
lastChange = "2022-07-12 16:17:08 +0000";
layers = (
{
layerId = master01;
paths = (
{
closed = 1;
nodes = (
"619 0 LINE {name = hr00;}",
"619 627 LINE",
"1065 813 LINE",
"975 1011 LINE",
"619 863 LINE",
"619 1327 LINE",
"177 1327 LINE",
"177 679 LINE",
"-29 594 LINE",
"61 396 LINE",
"177 444 LINE",
"177 0 LINE"
);
},
{
closed = 1;
nodes = (
"1309 0 LINE",
"1309 433 LINE",
"908 433 LINE",
"908 265 LINE",
"689 265 LINE",
"689 0 LINE"
);
}
);
width = 1327;
}
);
unicode = 0141;
},
{
color = 4;
glyphname = M;
lastChange = "2022-07-12 20:55:52 +0000";
layers = (
{
anchors = (
{
name = bottom;
position = "{924, 0}";
},
{
name = top;
position = "{927, 1530}";
}
);
layerId = master01;
paths = (
{
closed = 1;
nodes = (
"1224 549 LINE",
"1224 1217 LINE",
"944 737 LINE",
"588 1327 LINE",
"118 1327 LINE",
"905 0 LINE {name = hr00;}"
);
},
{
closed = 1;
nodes = (
"530 0 LINE",
"530 511 LINE",
"117 1204 LINE",
"117 0 LINE"
);
},
{
closed = 1;
nodes = (
"1731 0 LINE",
"1731 1327 LINE",
"1289 1327 LINE",
"1289 0 LINE"
);
}
);
userData = {
com.typemytype.robofont.guides = (
{
angle = 90;
isGlobal = 0;
magnetic = 5;
x = 927;
y = 0;
}
);
};
width = 1848;
}
);
leftMetricsKey = H;
rightMetricsKey = "=|";
unicode = 004D;
},
{
color = 4;
glyphname = N;
lastChange = "2022-07-12 20:55:56 +0000";
layers = (
{
anchors = (
{
name = bottom;
position = "{754, 0}";
},
{
name = btm;
position = "{740, 0}";
},
{
name = top;
position = "{744, 1529}";
}
);
layerId = master01;
paths = (
{
closed = 1;
nodes = (
"1391 0 LINE",
"584 1327 LINE {name = hr00;}",
"117 1327 LINE",
"921 0 LINE"
);
},
{
closed = 1;
nodes = (
"502 0 LINE",
"502 570 LINE",
"117 1201 LINE",
"117 0 LINE"
);
},
{
closed = 1;
nodes = (
"1391 1327 LINE",
"1006 1327 LINE",
"1006 760 LINE",
"1391 126 LINE"
);
}
);
userData = {
com.typemytype.robofont.guides = (
{
angle = 90;
isGlobal = 0;
magnetic = 5;
x = 1385;
y = 0;
},
{
angle = 90;
isGlobal = 0;
magnetic = 5;
x = 105;
y = 0;
}
);
};
width = 1508;
}
);
leftMetricsKey = H;
rightMetricsKey = "=|";
unicode = 004E;
},
{
glyphname = Eng;
lastChange = "2022-07-12 16:17:08 +0000";
layers = (
{
layerId = master01;
paths = (
{
closed = 1;
nodes = (
"1126 -444 LINE",
"1391 -109 LINE",
"1391 1327 LINE",
"1006 1327 LINE {name = hr00;}",
"1006 -179 LINE",
"680 -179 LINE",
"680 -444 LINE"
);
},
{
closed = 1;
nodes = (
"502 0 LINE",
"502 578 LINE",
"117 1201 LINE",
"117 0 LINE"
);
},
{
closed = 1;
nodes = (
"939 742 LINE",
"584 1327 LINE",
"117 1327 LINE",
"939 0 LINE"
);
}
);
userData = {
com.typemytype.robofont.guides = (
{
angle = 90;
isGlobal = 0;
magnetic = 5;
x = 939;
y = 0;
}
);
};
width = 1508;
}
);
unicode = 014A;
},
{
color = 4;
glyphname = O;
lastChange = "2022-07-12 17:33:00 +0000";
layers = (
{
anchors = (
{
name = bottom;
position = "{732, 0}";
},
{
name = center;
position = "{732, 664}";
},
{
name = ogonek;
position = "{1317, 10}";
},
{
name = top;
position = "{731, 1530}";
},
{
name = topleft;
position = "{20, 1327}";
},
{
name = topright;
position = "{1443, 1327}";
}
);
layerId = master01;
paths = (
{
closed = 1;
nodes = (
"1108 0 LINE",
"1376 265 LINE",
"1376 1062 LINE",
"1108 1327 LINE",
"765 1327 LINE",
"765 1058 LINE",
"934 1058 LINE",
"934 270 LINE",
"765 270 LINE",
"765 0 LINE"
);
},
{
closed = 1;
nodes = (
"695 0 LINE",
"695 270 LINE",
"529 270 LINE",
"529 1058 LINE {name = hr00;}",
"695 1058 LINE",
"695 1327 LINE",
"355 1327 LINE",
"86 1062 LINE",
"86 265 LINE",
"355 0 LINE"
);
}
);
width = 1463;
}
);
unicode = 004F;
},
{
glyphname = Ohorn;
lastChange = "2022-07-12 23:32:18 +0000";
layers = (
{
anchors = (
{
name = _topright;
position = "{1443, 1327}";
},
{
name = bottom;
position = "{732, 0}";
},
{
name = center;
position = "{732, 664}";
},
{
name = ogonek;
position = "{1317, 10}";
},
{
name = top;
position = "{731, 1530}";
},
{
name = topleft;
position = "{20, 1327}";
}
);
layerId = master01;
paths = (
{
closed = 1;
nodes = (
"1108 0 LINE",
"1376 265 LINE",
"1376 1062 LINE",
"1108 1327 LINE",
"765 1327 LINE",
"765 1058 LINE",
"934 1058 LINE",
"934 270 LINE",
"765 270 LINE",
"765 0 LINE"
);
},
{
closed = 1;
nodes = (
"695 0 LINE",
"695 270 LINE",
"529 270 LINE",
"529 1058 LINE {name = hr00;}",
"695 1058 LINE",
"695 1327 LINE",
"355 1327 LINE",
"86 1062 LINE",
"86 265 LINE",
"355 0 LINE"
);
},
{
closed = 1;
nodes = (
"1302 1125 LINE",
"1502 1300 LINE",
"1502 1612 LINE",
"1220 1612 LINE {name = hr00;}",
"1220 1327 LINE {name = \"\";}",
"1057 1327 LINE {name = \"\";}",
"1057 1125 LINE"
);
}
);
width = 1463;
}
);
unicode = 01A0;
},
{
glyphname = Oopen;
lastChange = "2022-07-12 18:34:35 +0000";
layers = (
{
anchors = (
{
name = bottom;
position = "{723, -203}";
},
{
name = btm;
position = "{692, 1327}";
}
);
layerId = master01;
paths = (
{
closed = 1;
nodes = (
"1077 0 LINE",
"1343 265 LINE",
"1343 1062 LINE",
"1077 1327 LINE",
"901 1327 LINE",
"901 0 LINE {name = hr00;}"
);
},
{
closed = 1;
nodes = (
"831 0 LINE",
"831 265 LINE",
"537 265 LINE",
"537 532 LINE",
"95 532 LINE",
"95 265 LINE",
"360 0 LINE"
);
},
{
closed = 1;
nodes = (
"537 868 LINE",
"537 1062 LINE",
"831 1062 LINE",
"831 1327 LINE",
"360 1327 LINE",
"95 1062 LINE",
"95 868 LINE"
);
}
);
width = 1440;
}
);
unicode = 0186;
},
{
color = 4;
glyphname = Oslash;
lastChange = "2022-07-12 20:56:06 +0000";
layers = (
{
anchors = (
{
name = bottom;
position = "{728, 0}";
},
{
name = top;
position = "{728, 1582}";
}
);
layerId = master01;
paths = (
{
closed = 1;
nodes = (
"645 265 LINE",
"529 265 LINE",
"529 1062 LINE",
"741 1062 LINE",
"814 1327 LINE",
"353 1327 LINE",
"86 1062 LINE",
"86 265 LINE",
"240 111 LINE",
"187 -88 LINE {name = hr00;}",
"534 -172 LINE"
);
},
{
closed = 1;
nodes = (
"1104 0 LINE",
"1369 265 LINE",
"1369 1062 LINE",
"1217 1213 LINE",
"1271 1415 LINE",
"923 1499 LINE",
"814 1062 LINE",
"927 1062 LINE",
"927 265 LINE",
"715 264 LINE",
"646 0 LINE"
);
}
);
width = 1455;
}
);
leftMetricsKey = O;
rightMetricsKey = "=|";
unicode = 00D8;
},
{
glyphname = OE;
lastChange = "2022-07-12 16:17:08 +0000";
layers = (
{
layerId = master01;
paths = (
{
closed = 1;
nodes = (
"1055 0 LINE",
"1145 88 LINE",
"1234 0 LINE {name = hr01;}",
"1369 0 LINE",
"1369 553 LINE",
"1812 553 LINE",
"1812 785 LINE",
"1369 785 LINE",
"1369 1327 LINE {name = hr02;}",
"1234 1327 LINE",
"1147 1239 LINE",
"1055 1327 LINE",
"761 1327 LINE",
"761 1062 LINE",
"927 1062 LINE",
"927 265 LINE",
"761 265 LINE",
"761 0 LINE"
);
},
{
closed = 1;
nodes = (
"694 0 LINE",
"694 265 LINE",
"529 265 LINE",
"529 1062 LINE",
"694 1062 LINE",
"694 1327 LINE",
"353 1327 LINE",
"86 1062 LINE {name = hr03;}",
"86 265 LINE",
"353 0 LINE {name = hr04;}"
);
},
{
closed = 1;
nodes = (
"2166 0 LINE",
"2166 398 LINE {name = hr07;}",
"1724 398 LINE",
"1724 265 LINE {name = hr08;}",
"1437 265 LINE",
"1437 0 LINE"
);
},
{
closed = 1;
nodes = (
"2166 929 LINE",
"2166 1327 LINE {name = hr06;}",
"1437 1327 LINE",
"1437 1062 LINE",
"1724 1062 LINE",
"1724 929 LINE {name = hr05;}"
);
}
);
width = 2261;
}
);
unicode = 0152;
},
{
color = 4;
glyphname = P;
lastChange = "2022-07-12 20:56:13 +0000";
layers = (
{
anchors = (
{
name = bottom;
position = "{731, 0}";
},
{
name = top;
position = "{770, 1530}";
}
);
layerId = master01;
paths = (
{
closed = 1;
nodes = (
"1117 341 LINE",
"1382 607 LINE",
"1382 1062 LINE",
"1117 1327 LINE",
"621 1327 LINE",
"621 1062 LINE",
"942 1062 LINE",
"942 607 LINE",
"621 607 LINE",
"621 341 LINE"
);
},
{
closed = 1;
nodes = (
"551 0 LINE {name = hr00;}",
"551 1327 LINE",
"117 1327 LINE",
"117 0 LINE"
);
}
);
width = 1460;
}
);
leftMetricsKey = H;
unicode = 0050;
},
{
glyphname = Thorn;
lastChange = "2022-07-12 16:17:08 +0000";
layers = (
{
layerId = master01;
paths = (
{
closed = 1;
nodes = (
"1103 209 LINE",
"1369 474 LINE",
"1369 873 LINE",
"1103 1138 LINE",
"607 1138 LINE",
"607 873 LINE",
"935 873 LINE",
"935 474 LINE",
"607 474 LINE",
"607 209 LINE"
);
},
{
closed = 1;
nodes = (
"537 0 LINE {name = hr00;}",
"537 1327 LINE",
"104 1327 LINE",
"104 0 LINE"
);
}
);
width = 1464;
}
);
unicode = 00DE;
},
{
color = 4;
glyphname = Q;
lastChange = "2022-07-12 20:56:36 +0000";
layers = (
{
anchors = (
{
name = bottom;
position = "{729, 0}";
},
{
name = top;
position = "{729, 1327}";
}
);
layerId = master01;
paths = (
{
closed = 1;
nodes = (
"1309 -142 LINE",
"878 265 LINE",
"528 265 LINE",
"528 1062 LINE",
"693 1062 LINE",
"693 1327 LINE",
"352 1327 LINE",
"86 1062 LINE",
"86 265 LINE",
"352 0 LINE",
"683 0 LINE",
"1072 -372 LINE {name = hr00;}"
);
},
{
closed = 1;
nodes = (
"1369 265 LINE",
"1369 1062 LINE",
"1104 1327 LINE",
"761 1327 LINE",
"761 1062 LINE",
"927 1062 LINE",
"927 304 LINE",
"1178 72 LINE"
);
}
);
width = 1456;
}
);
leftMetricsKey = O;
rightMetricsKey = O;
unicode = 0051;
},
{
color = 4;
glyphname = R;
lastChange = "2022-07-12 20:56:20 +0000";
layers = (
{
anchors = (
{
name = bottom;
position = "{743, 0}";
},
{
name = top;
position = "{780, 1529}";
}
);
layerId = master01;
paths = (
{
closed = 1;
nodes = (
"795 398 LINE",
"1179 443 LINE",
"1400 664 LINE",
"1400 1062 LINE",
"1134 1327 LINE",
"629 1327 LINE",
"629 1062 LINE",
"961 1062 LINE",
"961 655 LINE",
"629 655 LINE",
"629 398 LINE"
);
},
{
closed = 1;
nodes = (
"559 0 LINE {name = hr00;}",
"559 1327 LINE",
"117 1327 LINE",
"117 0 LINE"
);
},
{
closed = 1;
nodes = (
"1445 0 LINE",
"1151 538 LINE",
"725 525 LINE",
"973 0 LINE"
);
}
);
width = 1486;
}
);
leftMetricsKey = H;
unicode = 0052;
},
{
color = 4;
glyphname = S;
lastChange = "2022-07-12 23:26:23 +0000";
layers = (
{
anchors = (
{
name = bottom;
position = "{739, 0}";
},
{
name = top;
position = "{767, 1536}";
}
);
layerId = master01;
paths = (
{
closed = 1;
nodes = (
"1115 0 LINE {name = hr00;}",
"1380 265 LINE",
"1380 590 LINE",
"1123 856 LINE",
"513 856 LINE",
"513 1327 LINE",
"363 1327 LINE",
"97 1062 LINE",
"97 763 LINE",
"363 497 LINE",
"937 497 LINE",
"937 0 LINE"
);
},
{
closed = 1;
nodes = (
"867 0 LINE",
"867 240 LINE",
"539 240 LINE",
"539 398 LINE",
"97 398 LINE",
"97 265 LINE",
"320 0 LINE"
);
},
{
closed = 1;
nodes = (
"1344 955 LINE",
"1344 1096 LINE",
"1114 1327 LINE",
"583 1327 LINE",
"583 1088 LINE",
"937 1088 LINE",
"937 955 LINE"
);
}
);
userData = {
com.typemytype.robofont.guides = (
{
angle = 90;
isGlobal = 0;
magnetic = 5;
x = 98;
y = 0;
},
{
angle = 90;
isGlobal = 0;
magnetic = 5;
x = 1380;
y = 0;
},
{
angle = 90;
isGlobal = 0;
magnetic = 5;
x = 1344;
y = 0;
},
{
angle = 90;
isGlobal = 0;
magnetic = 5;
x = 937;
y = 0;
}
);
};
width = 1477;
}
);
unicode = 0053;
},
{
glyphname = Saltillo;
lastChange = "2022-07-12 17:08:25 +0000";
layers = (
{
layerId = master01;
paths = (
{
closed = 1;
nodes = (
"502 283 LINE",
"585 1327 LINE",
"117 1327 LINE",
"210 283 LINE"
);
}
);
width = 701;
}
);
leftMetricsKey = H;
rightMetricsKey = H;
unicode = A78B;
},
{
glyphname = Germandbls;
lastChange = "2022-07-13 03:04:38 +0000";
layers = (
{
layerId = master01;
paths = (
{
closed = 1;
nodes = (
"1142 0 LINE",
"1408 265 LINE",
"1408 526 LINE",
"1077 746 LINE",
"1318 1062 LINE",
"1318 1327 LINE",
"619 1327 LINE",
"619 1062 LINE",
"957 1062 LINE",
"767 779 LINE",
"767 548 LINE",
"957 548 LINE",
"957 265 LINE",
"729 265 LINE",
"729 0 LINE"
);
},
{
closed = 1;
nodes = (
"549 0 LINE",
"549 1327 LINE",
"372 1327 LINE",
"106 1062 LINE",
"106 0 LINE"
);
}
);
width = 1495;
}
);
leftMetricsKey = "=|U";
rightMetricsKey = B;
unicode = 1E9E;
},
{
glyphname = Schwa;
lastChange = "2022-07-12 18:34:35 +0000";
layers = (
{
layerId = master01;
paths = (
{
closed = 1;
nodes = (
"1115 0 LINE",
"1380 265 LINE",
"1380 1062 LINE",
"1115 1327 LINE",
"559 1327 LINE",
"559 1062 LINE",
"938 1062 LINE",
"938 0 LINE {name = hr00;}"
);
},
{
closed = 1;
nodes = (
"868 0 LINE",
"868 265 LINE",
"539 265 LINE",
"539 398 LINE",
"97 398 LINE",
"97 265 LINE",
"329 0 LINE"
);
},
{
closed = 1;
nodes = (
"867 591 LINE",
"867 854 LINE",
"489 854 LINE",
"489 1327 LINE",
"305 1327 LINE",
"97 1062 LINE",
"97 591 LINE"
);
}
);
width = 1495;
}
);
unicode = 018F;
},
{
color = 4;
glyphname = T;
lastChange = "2022-07-12 20:56:45 +0000";
layers = (
{
anchors = (
{
name = bottom;
position = "{628, 0}";
},
{
name = center;
position = "{628, 664}";
},
{
name = top;
position = "{624, 1529}";
}
);
layerId = master01;
paths = (
{
closed = 1;
nodes = (
"858 0 LINE",
"858 969 LINE",
"398 969 LINE",
"398 0 LINE {name = hr00;}"
);
},
{
closed = 1;
nodes = (
"1204 1038 LINE",
"1204 1327 LINE",
"52 1327 LINE",
"52 1038 LINE"
);
}
);
width = 1256;
}
);
rightMetricsKey = "=|";
unicode = 0054;
},
{
glyphname = Tbar;
lastChange = "2022-07-12 16:17:08 +0000";
layers = (
{
layerId = master01;
paths = (
{
closed = 1;
nodes = (
"858 0 LINE",
"858 486 LINE",
"1068 486 LINE",
"1068 675 LINE",
"858 675 LINE",
"858 969 LINE",
"398 969 LINE",
"398 675 LINE",
"181 675 LINE",
"181 486 LINE {name = hr00;}",
"398 486 LINE",
"398 0 LINE"
);
},
{
closed = 1;
nodes = (
"1204 1038 LINE",
"1204 1327 LINE",
"52 1327 LINE",
"52 1038 LINE"
);
}
);
width = 1256;
}
);
unicode = 0166;
},
{
color = 4;
glyphname = U;
lastChange = "2022-07-12 20:56:52 +0000";
layers = (
{
anchors = (
{
name = bottom;
position = "{748, 0}";
},
{
name = ogonek;
position = "{1346, 10}";
},
{
name = top;
position = "{747, 1529}";
},
{
name = topright;
position = "{1475, 1327}";
}
);
layerId = master01;
paths = (
{
closed = 1;
nodes = (
"1123 0 LINE",
"1388 265 LINE",
"1388 1327 LINE {name = hr00;}",
"946 1327 LINE",
"946 265 LINE",
"782 265 LINE",
"782 0 LINE"
);
},
{
closed = 1;
nodes = (
"712 0 LINE",
"712 265 LINE",
"549 265 LINE",
"549 1327 LINE",
"106 1327 LINE",
"106 265 LINE",
"372 0 LINE"
);
}
);
width = 1494;
}
);
rightMetricsKey = "=|";
unicode = 0055;
},
{
glyphname = Uhorn;
lastChange = "2022-07-12 20:57:10 +0000";
layers = (
{
anchors = (
{
name = _topright;
position = "{1283, 1329}";
},
{
name = bottom;
position = "{759, 0}";
},
{
name = top;
position = "{758, 1529}";
}
);
layerId = master01;
paths = (
{
closed = 1;
nodes = (
"1134 0 LINE",
"1399 265 LINE",
"1399 1327 LINE {name = hr00;}",
"957 1327 LINE",
"957 265 LINE",
"793 265 LINE",
"793 0 LINE"
);
},
{
closed = 1;
nodes = (
"723 0 LINE",
"723 265 LINE",
"560 265 LINE",
"560 1327 LINE",
"117 1327 LINE",
"117 265 LINE",
"383 0 LINE"
);
},
{
closed = 1;
nodes = (
"1532 1125 LINE",
"1732 1300 LINE",
"1732 1612 LINE",
"1450 1612 LINE {name = hr00;}",
"1450 1327 LINE",
"1287 1327 LINE",
"1287 1125 LINE"
);
}
);
width = 1632;
}
);
leftMetricsKey = H;
unicode = 01AF;
},
{
color = 4;
glyphname = V;
lastChange = "2022-07-12 20:57:18 +0000";
layers = (
{
anchors = (
{
name = bottom;
position = "{686, 0}";
},
{
name = top;
position = "{686, 1327}";
}
);
layerId = master01;
paths = (
{
closed = 1;
nodes = (
"884 0 LINE",
"425 1327 LINE {name = hr00;}",
"-26 1327 LINE",
"454 0 LINE"
);
},
{
closed = 1;
nodes = (
"1397 1327 LINE",
"953 1327 LINE",
"739 624 LINE",
"938 40 LINE"
);
}
);
userData = {
com.typemytype.robofont.guides = (
{
angle = 90;
isGlobal = 0;
magnetic = 5;
x = 703;
y = 0;
}
);
};
width = 1371;
}
);
rightMetricsKey = "=|";
unicode = 0056;
},
{
glyphname = Vturned;
lastChange = "2022-07-12 20:57:27 +0000";
layers = (
{
layerId = master01;
paths = (
{
closed = 1;
nodes = (
"1397 0 LINE",
"917 1327 LINE",
"487 1327 LINE",
"946 0 LINE {name = hr00;}"
);
},
{
closed = 1;
nodes = (
"418 0 LINE",
"632 703 LINE",
"433 1287 LINE",
"-26 0 LINE"
);
}
);
width = 1371;
}
);
rightMetricsKey = "=|";
unicode = 0245;
},
{
color = 4;
glyphname = W;
lastChange = "2022-07-12 20:57:33 +0000";
layers = (
{
anchors = (
{
name = bottom;
position = "{964, 0}";
},
{
name = top;
position = "{1009, 1530}";
}
);
layerId = master01;
paths = (
{
closed = 1;
nodes = (
"772 0 LINE",
"915 525 LINE",
"742 1155 LINE",
"609 598 LINE",
"414 1327 LINE {name = hr00;}",
"-26 1327 LINE",
"371 0 LINE"
);
},
{
closed = 1;
nodes = (
"1547 0 LINE",
"1207 1327 LINE",
"761 1327 LINE",
"1125 0 LINE"
);
},
{
closed = 1;
nodes = (
"1954 1327 LINE",
"1551 1327 LINE",
"1414 776 LINE",
"1594 69 LINE"
);
}
);
width = 1928;
}
);
rightMetricsKey = "=|";
unicode = 0057;
},
{
color = 4;
glyphname = X;
lastChange = "2022-07-12 20:57:42 +0000";
layers = (
{
anchors = (
{
name = bottom;
position = "{671, 0}";
},
{
name = top;
position = "{671, 1327}";
}
);
layerId = master01;
paths = (
{
closed = 1;
nodes = (
"1368 0 LINE",
"478 1327 LINE",
"1 1327 LINE",
"886 0 LINE"
);
},
{
closed = 1;
nodes = (
"479 0 LINE",
"634 258 LINE",
"397 618 LINE",
"-26 0 LINE"
);
},
{
closed = 1;
nodes = (
"1349 1327 LINE {name = hr00;}",
"875 1327 LINE",
"720 1072 LINE",
"956 727 LINE"
);
}
);
userData = {
com.typemytype.robofont.guides = (
{
angle = 90;
isGlobal = 0;
magnetic = 5;
x = 707;
y = 0;
}
);
};
width = 1342;
}
);
rightMetricsKey = "=|";
unicode = 0058;
},
{
color = 4;
glyphname = Y;
lastChange = "2022-07-12 20:57:47 +0000";
layers = (
{
anchors = (
{
name = bottom;
position = "{649, 0}";
},
{
name = top;
position = "{648, 1529}";
},
{
name = topleft;
position = "{20, 1327}";
}
);
layerId = master01;
paths = (
{
closed = 1;
nodes = (
"867 0 LINE",
"867 391 LINE",
"408 1327 LINE",
"-26 1327 LINE",
"424 422 LINE",
"424 0 LINE {name = hr00;}"
);
},
{
closed = 1;
nodes = (
"1323 1327 LINE",
"898 1327 LINE",
"680 920 LINE",
"895 484 LINE"
);
}
);
width = 1297;
}
);
rightMetricsKey = "=|";
unicode = 0059;
},
{
color = 4;
glyphname = Z;
lastChange = "2022-07-12 20:57:53 +0000";
layers = (
{
anchors = (
{
name = bottom;
position = "{636, 0}";
},
{
name = center;
position = "{636, 664}";
},
{
name = top;
position = "{648, 1530}";
}
);
layerId = master01;
paths = (
{
closed = 1;
nodes = (
"343 0 LINE",
"1219 1070 LINE",
"1219 1327 LINE",
"919 1327 LINE",
"52 248 LINE",
"52 0 LINE {name = hr00;}"
);
},
{
closed = 1;
nodes = (
"1201 0 LINE",
"1201 291 LINE",
"684 291 LINE",
"432 0 LINE"
);
},
{
closed = 1;
nodes = (
"581 1037 LINE",
"832 1327 LINE",
"79 1327 LINE",
"79 1037 LINE"
);
}
);
userData = {
com.typemytype.robofont.guides = (
{
angle = 0;
isGlobal = 0;
magnetic = 5;
x = 0;
y = 1026;
},
{
angle = 0;
isGlobal = 0;
magnetic = 5;
x = 0;
y = 291;
},
{
angle = 90;
isGlobal = 0;
magnetic = 5;
x = -17;
y = 0;
},
{
angle = 90;
isGlobal = 0;
magnetic = 5;
x = 1266;
y = 0;
}
);
};
width = 1271;
}
);
rightMetricsKey = "=|";
unicode = 005A;
},
{
color = 4;
glyphname = a;
lastChange = "2022-07-13 01:10:47 +0000";
layers = (
{
anchors = (
{
name = bottom;
position = "{666, 0}";
},
{
name = ogonek;
position = "{1198, 10}";
},
{
name = top;
position = "{666, 1223}";
}
);
layerId = master01;
paths = (
{
closed = 1;
nodes = (
"1236 0 LINE {name = hr00;}",
"1236 797 LINE",
"971 1062 LINE",
"308 1062 LINE",
"175 929 LINE",
"175 797 LINE",
"804 797 LINE",
"804 0 LINE"
);
},
{
closed = 1;
nodes = (
"602 0 LINE",
"734 131 LINE",
"734 248 LINE",
"506 248 LINE",
"506 434 LINE",
"734 434 LINE",
"734 618 LINE",
"264 618 LINE",
"86 441 LINE",
"86 175 LINE",
"264 0 LINE"
);
}
);
userData = {
com.typemytype.robofont.guides = (
{
angle = 0;
isGlobal = 0;
magnetic = 5;
x = 0;
y = 1108;
},
{
angle = 0;
isGlobal = 0;
magnetic = 5;
x = 0;
y = 1766;
},
{
angle = 90;
isGlobal = 0;
magnetic = 5;
x = 130;
y = 0;
},
{
angle = 90;
isGlobal = 0;
magnetic = 5;
x = -1329;
y = 0;
}
);
};
width = 1331;
}
);
unicode = 0061;
},
{
glyphname = "alpha-latin";
lastChange = "2022-07-13 03:26:14 +0000";
layers = (
{
anchors = (
{
name = topright;
position = "{1346, 1062}";
}
);
layerId = master01;
paths = (
{
closed = 1;
nodes = (
"645 0 LINE",
"750 105 LINE",
"750 248 LINE",
"537 248 LINE",
"537 797 LINE",
"750 797 LINE",
"750 1062 LINE",
"334 1062 LINE",
"95 823 LINE",
"95 239 LINE",
"334 0 LINE"
);
},
{
closed = 1;
nodes = (
"1262 0 LINE",
"1262 1062 LINE",
"820 1062 LINE {name = hr00;}",
"820 0 LINE"
);
}
);
width = 1366;
}
);
unicode = 0251;
},
{
glyphname = ae;
lastChange = "2022-07-12 20:58:03 +0000";
layers = (
{
anchors = (
{
name = top;
position = "{1020, 1223}";
}
);
layerId = master01;
paths = (
{
closed = 1;
nodes = (
"925 0 LINE",
"1015 88 LINE",
"1104 0 LINE",
"1336 0 LINE",
"1336 265 LINE",
"1236 265 LINE",
"1236 797 LINE",
"1336 797 LINE",
"1336 1062 LINE",
"1104 1062 LINE",
"1017 973 LINE",
"925 1062 LINE",
"308 1062 LINE",
"175 929 LINE {name = hr00;}",
"175 797 LINE",
"794 797 LINE",
"794 265 LINE",
"696 265 LINE",
"696 0 LINE"
);
},
{
closed = 1;
nodes = (
"626 0 LINE",
"626 265 LINE",
"529 265 LINE",
"529 434 LINE",
"724 434 LINE",
"724 628 LINE",
"264 628 LINE",
"86 451 LINE",
"86 175 LINE",
"264 0 LINE"
);
},
{
closed = 1;
nodes = (
"1768 0 LINE",
"1900 133 LINE",
"1900 265 LINE",
"1406 265 LINE",
"1406 0 LINE"
);
},
{
closed = 1;
nodes = (
"1945 434 LINE",
"1945 797 LINE",
"1679 1062 LINE",
"1406 1062 LINE",
"1406 797 LINE",
"1502 797 LINE",
"1502 628 LINE",
"1309 628 LINE",
"1309 434 LINE"
);
}
);
width = 2029;
}
);
leftMetricsKey = a;
rightMetricsKey = e;
unicode = 00E6;
},
{
glyphname = b;
lastChange = "2022-07-12 20:58:15 +0000";
layers = (
{
anchors = (
{
name = top;
position = "{981, 1223}";
}
);
layerId = master01;
paths = (
{
closed = 1;
nodes = (
"988 0 LINE",
"1254 265 LINE",
"1254 797 LINE",
"988 1062 LINE",
"746 1062 LINE",
"616 931 LINE",
"616 797 LINE",
"814 797 LINE",
"814 248 LINE",
"616 248 LINE",
"616 0 LINE"
);
},
{
closed = 1;
nodes = (
"546 0 LINE",
"546 1467 LINE",
"104 1467 LINE {name = hr00;}",
"104 0 LINE"
);
}
);
userData = {
com.typemytype.robofont.guides = (
{
angle = 0;
isGlobal = 0;
magnetic = 5;
x = 0;
y = 1327;
},
{
angle = 0;
isGlobal = 0;
magnetic = 5;
x = 0;
y = 1769;
},
{
angle = 90;
isGlobal = 0;
magnetic = 5;
x = 148;
y = 0;
},
{
angle = 90;
isGlobal = 0;
magnetic = 5;
x = -646;
y = 0;
}
);
};
width = 1349;
}
);
leftMetricsKey = h;
rightMetricsKey = "=|d";
unicode = 0062;
},
{
glyphname = c;
lastChange = "2022-07-12 16:17:08 +0000";
layers = (
{
anchors = (
{
name = _btm;
position = "{605, 0}";
},
{
name = top;
position = "{680, 1223}";
}
);
layerId = master01;
paths = (
{
closed = 1;
nodes = (
"537 0 LINE",
"537 1062 LINE {name = hr01;}",
"360 1062 LINE",
"95 797 LINE",
"95 265 LINE",
"360 0 LINE"
);
},
{
closed = 1;
nodes = (
"980 0 LINE",
"1245 265 LINE {name = hr04;}",
"1245 381 LINE",
"803 381 LINE",
"803 248 LINE {name = hr05;}",
"607 248 LINE",
"607 0 LINE"
);
},
{
closed = 1;
nodes = (
"1245 638 LINE",
"1245 797 LINE",
"980 1062 LINE {name = hr03;}",
"607 1062 LINE",
"607 797 LINE",
"803 797 LINE",
"803 638 LINE {name = hr02;}"
);
}
);
width = 1323;
}
);
unicode = 0063;
},
{
glyphname = d;
lastChange = "2022-07-12 20:58:24 +0000";
layers = (
{
anchors = (
{
name = bottom;
position = "{723, 0}";
},
{
name = center;
position = "{683, 531}";
},
{
name = top;
position = "{338, 1223}";
},
{
name = topright;
position = "{1346, 1062}";
}
);
layerId = master01;
paths = (
{
closed = 1;
nodes = (
"645 0 LINE",
"750 105 LINE",
"750 248 LINE",
"537 248 LINE",
"537 797 LINE",
"750 797 LINE",
"750 1062 LINE",
"334 1062 LINE",
"95 823 LINE",
"95 239 LINE",
"334 0 LINE"
);
},
{
closed = 1;
nodes = (
"1262 0 LINE",
"1262 1467 LINE",
"820 1467 LINE {name = hr00;}",
"820 0 LINE"
);
}
);
width = 1366;
}
);
rightMetricsKey = "=|h";
unicode = 0064;
},
{
glyphname = eth;
lastChange = "2022-07-12 16:17:08 +0000";
layers = (
{
layerId = master01;
paths = (
{
closed = 1;
nodes = (
"982 0 LINE",
"1248 265 LINE",
"1245 966 LINE",
"1054 1235 LINE",
"1205 1312 LINE",
"1117 1484 LINE",
"933 1400 LINE",
"826 1529 LINE",
"506 1377 LINE",
"608 1259 LINE",
"446 1178 LINE",
"542 1015 LINE {name = hr00;}",
"708 1093 LINE",
"805 962 LINE",
"805 0 LINE"
);
},
{
closed = 1;
nodes = (
"735 0 LINE",
"735 265 LINE",
"539 265 LINE",
"539 702 LINE",
"735 702 LINE",
"735 941 LINE",
"363 941 LINE",
"97 702 LINE",
"97 265 LINE",
"363 0 LINE"
);
}
);
width = 1353;
}
);
unicode = 00F0;
},
{
glyphname = dcroat;
lastChange = "2022-07-12 16:17:08 +0000";
layers = (
{
layerId = master01;
paths = (
{
closed = 1;
nodes = (
"1262 0 LINE",
"1262 1179 LINE",
"1402 1179 LINE",
"1402 1358 LINE",
"1262 1358 LINE",
"1262 1467 LINE",
"820 1467 LINE {name = hr00;}",
"820 1358 LINE",
"631 1358 LINE",
"631 1179 LINE",
"820 1179 LINE",
"820 0 LINE"
);
},
{
closed = 1;
nodes = (
"645 0 LINE",
"750 105 LINE",
"750 248 LINE",
"537 248 LINE",
"537 797 LINE",
"750 797 LINE",
"750 1062 LINE",
"334 1062 LINE",
"95 823 LINE",
"95 239 LINE",
"334 0 LINE"
);
}
);
width = 1366;
}
);
unicode = 0111;
},
{
glyphname = e;
lastChange = "2022-07-12 17:11:30 +0000";
layers = (
{
anchors = (
{
name = bottom;
position = "{666, 0}";
},
{
name = ogonek;
position = "{1198, 10}";
},
{
name = top;
position = "{668, 1223}";
}
);
layerId = master01;
paths = (
{
closed = 1;
nodes = (
"537 0 LINE",
"537 1062 LINE {name = hr00;}",
"360 1062 LINE",
"95 797 LINE",
"95 265 LINE",
"360 0 LINE"
);
},
{
closed = 1;
nodes = (
"1069 0 LINE",
"1201 133 LINE",
"1201 248 LINE",
"607 248 LINE",
"607 0 LINE"
);
},
{
closed = 1;
nodes = (
"1247 426 LINE",
"1247 797 LINE",
"982 1062 LINE",
"607 1062 LINE",
"607 797 LINE",
"840 797 LINE",
"840 611 LINE",
"607 611 LINE",
"607 426 LINE"
);
}
);
width = 1331;
}
);
unicode = 0065;
},
{
glyphname = eopen;
lastChange = "2022-07-13 03:22:28 +0000";
layers = (
{
layerId = master01;
paths = (
{
closed = 1;
nodes = (
"455 424 LINE",
"806 424 LINE",
"806 636 LINE",
"455 636 LINE",
"455 1062 LINE",
"309 1062 LINE",
"95 853 LINE",
"95 636 LINE",
"201 526 LINE",
"95 424 LINE",
"95 206 LINE",
"309 0 LINE {name = hr01;}",
"455 0 LINE"
);
},
{
closed = 1;
nodes = (
"1128 206 LINE",
"1128 315 LINE",
"772 315 LINE {name = hr02;}",
"772 206 LINE",
"532 206 LINE",
"532 0 LINE",
"914 0 LINE {name = hr03;}"
);
},
{
closed = 1;
nodes = (
"1128 848 LINE",
"914 1062 LINE",
"532 1062 LINE",
"532 848 LINE",
"772 848 LINE",
"772 740 LINE",
"1128 740 LINE"
);
}
);
width = 1212;
}
);
leftMetricsKey = o;
rightMetricsKey = e;
unicode = 025B;
},
{
glyphname = eturned;
lastChange = "2022-07-12 18:34:35 +0000";
layers = (
{
anchors = (
{
name = bottom;
position = "{663, -161}";
},
{
name = ogonek;
position = "{133, 1052}";
},
{
name = top;
position = "{665, 1062}";
}
);
layerId = master01;
paths = (
{
closed = 1;
nodes = (
"971 0 LINE",
"1236 265 LINE",
"1236 797 LINE",
"971 1062 LINE",
"794 1062 LINE",
"794 0 LINE {name = hr00;}"
);
},
{
closed = 1;
nodes = (
"724 0 LINE",
"724 265 LINE",
"491 265 LINE",
"491 451 LINE",
"724 451 LINE",
"724 636 LINE",
"84 636 LINE",
"84 265 LINE",
"349 0 LINE"
);
},
{
closed = 1;
nodes = (
"724 814 LINE",
"724 1062 LINE",
"262 1062 LINE",
"130 929 LINE",
"130 814 LINE"
);
}
);
width = 1331;
}
);
unicode = 01DD;
},
{
glyphname = f;
lastChange = "2022-07-13 03:02:18 +0000";
layers = (
{
anchors = (
{
name = top;
position = "{379, 1571}";
}
);
layerId = master01;
paths = (
{
closed = 1;
nodes = (
"586 0 LINE",
"586 1202 LINE",
"906 1202 LINE {name = hr00;}",
"906 1467 LINE",
"410 1467 LINE",
"143 1219 LINE",
"143 1062 LINE",
"38 1062 LINE",
"38 797 LINE",
"143 797 LINE",
"143 0 LINE"
);
},
{
closed = 1;
nodes = (
"906 797 LINE",
"906 1062 LINE",
"656 1062 LINE",
"653 797 LINE"
);
}
);
width = 907;
}
);
unicode = 0066;
},
{
glyphname = g;
lastChange = "2022-07-12 16:17:08 +0000";
layers = (
{
anchors = (
{
name = top;
position = "{699, 1223}";
}
);
layerId = master01;
paths = (
{
closed = 1;
nodes = (
"980 -372 LINE",
"1245 -105 LINE",
"1245 797 LINE",
"980 1062 LINE",
"607 1062 LINE",
"607 797 LINE",
"803 797 LINE",
"803 -140 LINE {name = hr00;}",
"264 -140 LINE",
"264 -238 LINE",
"397 -372 LINE"
);
},
{
closed = 1;
nodes = (
"601 0 LINE",
"733 131 LINE",
"733 248 LINE",
"537 248 LINE",
"537 1062 LINE",
"360 1062 LINE",
"95 797 LINE",
"95 265 LINE",
"360 0 LINE"
);
}
);
width = 1340;
}
);
unicode = 0067;
},
{
glyphname = h;
lastChange = "2022-07-13 01:11:01 +0000";
layers = (
{
anchors = (
{
name = bottom;
position = "{675, 0}";
},
{
name = center;
position = "{675, 936}";
},
{
name = top;
position = "{315, 1672}";
}
);
layerId = master01;
paths = (
{
closed = 1;
nodes = (
"1254 0 LINE",
"1254 797 LINE",
"988 1062 LINE",
"746 1062 LINE",
"616 931 LINE",
"616 797 LINE",
"811 797 LINE",
"811 0 LINE"
);
},
{
closed = 1;
nodes = (
"546 0 LINE",
"546 1467 LINE",
"104 1467 LINE",
"104 0 LINE {name = hr00;}"
);
}
);
width = 1355;
}
);
rightMetricsKey = n;
unicode = 0068;
},
{
glyphname = hbar;
layers = (
{
layerId = master01;
paths = (
{
closed = 1;
nodes = (
"546 0 LINE",
"546 1150 LINE",
"849 1150 LINE",
"849 1327 LINE",
"546 1327 LINE",
"546 1460 LINE",
"104 1460 LINE",
"104 1327 LINE",
"-36 1327 LINE",
"-36 1150 LINE",
"104 1150 LINE",
"104 0 LINE {name = hr00;}"
);
},
{
closed = 1;
nodes = (
"1254 0 LINE",
"1254 797 LINE",
"988 1062 LINE",
"744 1062 LINE",
"613 931 LINE",
"613 797 LINE",
"811 797 LINE",
"811 0 LINE"
);
}
);
width = 1349;
}
);
unicode = 0127;
},
{
glyphname = i;
lastChange = "2022-07-12 16:48:26 +0000";
layers = (
{
anchors = (
{
name = bottom;
position = "{327, 0}";
}
);
layerId = master01;
paths = (
{
closed = 1;
nodes = (
"548 0 LINE",
"548 1062 LINE",
"105 1062 LINE",
"105 0 LINE {name = hr00;}"
);
},
{
closed = 1;
nodes = (
"548 1194 LINE",
"548 1476 LINE",
"105 1476 LINE",
"105 1194 LINE"
);
}
);
width = 653;
}
);
unicode = 0069;
},
{
glyphname = idotless;
lastChange = "2022-07-13 03:23:10 +0000";
layers = (
{
anchors = (
{
name = bottom;
position = "{327, 0}";
},
{
name = center;
position = "{331, 586}";
},
{
name = ogonek;
position = "{588, 10}";
},
{
name = top;
position = "{327, 1223}";
}
);
layerId = master01;
paths = (
{
closed = 1;
nodes = (
"548 0 LINE",
"548 1062 LINE",
"105 1062 LINE",
"105 0 LINE {name = hr00;}"
);
}
);
width = 653;
}
);
unicode = 0131;
},
{
glyphname = ij;
layers = (
{
layerId = master01;
paths = (
{
closed = 1;
nodes = (
"964 -389 LINE",
"1230 -123 LINE",
"1230 1062 LINE",
"788 1062 LINE",
"788 -123 LINE",
"107 -123 LINE",
"107 -389 LINE"
);
},
{
closed = 1;
nodes = (
"548 0 LINE",
"548 1062 LINE",
"105 1062 LINE",
"105 239 LINE",
"345 0 LINE {name = hr00;}"
);
},
{
closed = 1;
nodes = (
"548 1194 LINE",
"548 1476 LINE",
"105 1476 LINE",
"105 1194 LINE"
);
},
{
closed = 1;
nodes = (
"1229 1194 LINE",
"1229 1476 LINE",
"786 1476 LINE",
"786 1194 LINE"
);
}
);
width = 1336;
}
);
unicode = 0133;
},
{
glyphname = ij_acutecomb;
lastChange = "2022-07-13 01:10:32 +0000";
layers = (
{
layerId = master01;
paths = (
{
closed = 1;
nodes = (
"964 -389 LINE",
"1230 -123 LINE",
"1230 1062 LINE",
"788 1062 LINE",
"788 -123 LINE",
"107 -123 LINE",
"107 -389 LINE"
);
},
{
closed = 1;
nodes = (
"548 0 LINE",
"548 1062 LINE",
"105 1062 LINE",
"105 239 LINE",
"345 0 LINE {name = hr00;}"
);
},
{
closed = 1;
nodes = (
"710 1311 LINE",
"764 1522 LINE",
"580 1607 LINE",
"204 1291 LINE {name = hr00;}",
"266 1144 LINE"
);
},
{
closed = 1;
nodes = (
"1326 1311 LINE",
"1380 1522 LINE",
"1196 1607 LINE",
"820 1291 LINE {name = hr00;}",
"882 1144 LINE"
);
}
);
width = 1336;
}
);
},
{
glyphname = j;
layers = (
{
layerId = master01;
paths = (
{
closed = 1;
nodes = (
"282 -354 LINE",
"548 -88 LINE",
"548 1062 LINE",
"105 1062 LINE",
"105 -88 LINE",
"-100 -88 LINE",
"-100 -354 LINE {name = hr00;}"
);
},
{
closed = 1;
nodes = (
"547 1194 LINE",
"547 1476 LINE",
"105 1476 LINE",
"105 1194 LINE"
);
}
);
width = 653;
}
);
unicode = 006A;
},
{
glyphname = jdotless;
lastChange = "2022-07-12 23:24:34 +0000";
layers = (
{
anchors = (
{
name = bottom;
position = "{327, -689}";
},
{
name = top;
position = "{327, 1223}";
}
);
layerId = master01;
paths = (
{
closed = 1;
nodes = (
"282 -354 LINE",
"548 -88 LINE",
"548 1062 LINE",
"105 1062 LINE",
"105 -88 LINE",
"-100 -88 LINE",
"-100 -354 LINE {name = hr00;}"
);
}
);
width = 653;
}
);
unicode = 0237;
},
{
glyphname = k;
lastChange = "2022-07-12 23:29:06 +0000";
layers = (
{
anchors = (
{
name = btm;
position = "{664, 1}";
}
);
layerId = master01;
paths = (
{
closed = 1;
nodes = (
"546 0 LINE",
"546 1467 LINE {name = hr00;}",
"104 1467 LINE",
"104 0 LINE"
);
},
{
closed = 1;
nodes = (
"1299 0 LINE",
"1007 566 LINE",
"746 214 LINE",
"819 0 LINE"
);
},
{
closed = 1;
nodes = (
"1276 1062 LINE",
"819 1062 LINE",
"615 756 LINE",
"615 150 LINE"
);
}
);
width = 1312;
}
);
unicode = 006B;
},
{
glyphname = kgreenlandic;
lastChange = "2022-07-12 23:29:00 +0000";
layers = (
{
layerId = master01;
paths = (
{
closed = 1;
nodes = (
"1276 1062 LINE",
"819 1062 LINE",
"613 756 LINE",
"613 150 LINE"
);
},
{
closed = 1;
nodes = (
"546 0 LINE",
"546 1062 LINE {name = hr00;}",
"104 1062 LINE",
"104 0 LINE"
);
},
{
closed = 1;
nodes = (
"1299 0 LINE",
"1002 566 LINE",
"745 214 LINE",
"819 0 LINE"
);
}
);
width = 1307;
}
);
unicode = 0138;
},
{
glyphname = l;
lastChange = "2022-07-12 18:01:34 +0000";
layers = (
{
anchors = (
{
name = bottom;
position = "{377, 0}";
},
{
name = center;
position = "{377, 936}";
},
{
name = top;
position = "{315, 1672}";
},
{
name = topright;
position = "{733, 1871}";
}
);
layerId = master01;
paths = (
{
closed = 1;
nodes = (
"744 0 LINE",
"744 265 LINE {name = hr00;}",
"546 265 LINE",
"546 1467 LINE",
"104 1467 LINE",
"104 248 LINE",
"352 0 LINE"
);
}
);
width = 753;
}
);
unicode = 006C;
},
{
glyphname = ldot;
lastChange = "2022-07-12 16:17:08 +0000";
layers = (
{
components = (
{
name = l;
}
);
layerId = master01;
paths = (
{
closed = 1;
nodes = (
"954 464 LINE",
"1087 596 LINE",
"1087 773 LINE",
"954 906 LINE",
"778 906 LINE",
"645 773 LINE {name = hr00;}",
"645 596 LINE",
"778 464 LINE"
);
}
);
width = 1096;
}
);
unicode = 0140;
},
{
glyphname = lslash;
lastChange = "2022-07-12 16:17:08 +0000";
layers = (
{
components = (
{
name = l;
}
);
layerId = master01;
paths = (
{
closed = 1;
nodes = (
"727 860 LINE {name = hr00;}",
"727 1037 LINE",
"-13 783 LINE",
"-13 606 LINE"
);
}
);
width = 753;
}
);
unicode = 0142;
},
{
glyphname = m;
lastChange = "2022-07-13 01:11:14 +0000";
layers = (
{
anchors = (
{
name = bottom;
position = "{1007, 0}";
},
{
name = top;
position = "{1026, 1223}";
}
);
layerId = master01;
paths = (
{
closed = 1;
nodes = (
"1240 0 LINE",
"1240 920 LINE",
"1098 1062 LINE",
"756 1062 LINE",
"617 922 LINE",
"617 797 LINE",
"797 797 LINE",
"797 0 LINE"
);
},
{
closed = 1;
nodes = (
"547 0 LINE {name = hr00;}",
"547 1062 LINE",
"104 1062 LINE",
"104 0 LINE"
);
},
{
closed = 1;
nodes = (
"1932 0 LINE",
"1932 844 LINE",
"1716 1062 LINE",
"1446 1062 LINE",
"1310 920 LINE",
"1310 797 LINE",
"1490 797 LINE",
"1490 0 LINE"
);
}
);
width = 2033;
}
);
leftMetricsKey = n;
rightMetricsKey = n;
unicode = 006D;
},
{
glyphname = n;
lastChange = "2022-07-13 03:13:22 +0000";
layers = (
{
anchors = (
{
name = bottom;
position = "{678, 0}";
},
{
name = top;
position = "{678, 1223}";
}
);
layerId = master01;
paths = (
{
closed = 1;
nodes = (
"1255 0 LINE",
"1255 823 LINE",
"1016 1062 LINE",
"770 1062 LINE",
"622 913 LINE",
"622 797 LINE",
"812 797 LINE",
"812 0 LINE"
);
},
{
closed = 1;
nodes = (
"550 0 LINE {name = hr00;}",
"550 1062 LINE",
"104 1062 LINE",
"104 0 LINE"
);
}
);
width = 1356;
}
);
unicode = 006E;
},
{
glyphname = eng;
lastChange = "2022-07-12 16:17:08 +0000";
layers = (
{
layerId = master01;
paths = (
{
closed = 1;
nodes = (
"989 -446 LINE",
"1255 -180 LINE",
"1255 823 LINE",
"1016 1062 LINE",
"770 1062 LINE",
"622 913 LINE",
"622 797 LINE",
"812 797 LINE",
"812 -180 LINE {name = hr00;}",
"607 -180 LINE",
"607 -446 LINE"
);
},
{
closed = 1;
nodes = (
"550 0 LINE",
"550 1062 LINE",
"104 1062 LINE",
"104 0 LINE"
);
}
);
width = 1356;
}
);
unicode = 014B;
},
{
glyphname = o;
lastChange = "2022-07-13 01:11:42 +0000";
layers = (
{
anchors = (
{
name = bottom;
position = "{692, 0}";
},
{
name = center;
position = "{692, 531}";
},
{
name = ogonek;
position = "{1245, 10}";
},
{
name = top;
position = "{678, 1223}";
},
{
name = topright;
position = "{1167, 1062}";
}
);
layerId = master01;
paths = (
{
closed = 1;
nodes = (
"657 0 LINE",
"657 248 LINE",
"542 248 LINE",
"542 797 LINE",
"657 797 LINE",
"657 1062 LINE",
"360 1062 LINE",
"95 797 LINE",
"95 265 LINE",
"360 0 LINE"
);
},
{
closed = 1;
nodes = (
"1023 0 LINE",
"1288 265 LINE",
"1288 797 LINE {name = hr00;}",
"1023 1062 LINE",
"727 1062 LINE",
"727 797 LINE",
"837 797 LINE",
"837 248 LINE",
"727 248 LINE",
"727 0 LINE"
);
}
);
userData = {
com.typemytype.robofont.guides = (
{
angle = 0;
isGlobal = 0;
magnetic = 5;
x = 0;
y = 1768;
},
{
angle = 0;
isGlobal = 0;
magnetic = 5;
x = 0;
y = 1768;
},
{
angle = 90;
isGlobal = 0;
magnetic = 5;
x = 692;
y = 0;
},
{
angle = 90;
isGlobal = 0;
magnetic = 5;
x = -581;
y = 0;
},
{
angle = 90;
isGlobal = 0;
magnetic = 5;
x = -581;
y = 0;
},
{
angle = 90;
isGlobal = 0;
magnetic = 5;
x = -581;
y = 0;
}
);
};
width = 1383;
}
);
rightMetricsKey = "=|";
unicode = 006F;
},
{
glyphname = ohorn;
lastChange = "2022-07-12 23:32:23 +0000";
layers = (
{
anchors = (
{
name = bottom;
position = "{692, 0}";
},
{
name = center;
position = "{692, 531}";
},
{
name = ogonek;
position = "{1245, 10}";
},
{
name = top;
position = "{691, 1223}";
},
{
name = topright;
position = "{1167, 1062}";
}
);
layerId = master01;
paths = (
{
closed = 1;
nodes = (
"657 0 LINE",
"657 248 LINE",
"542 248 LINE",
"542 797 LINE",
"657 797 LINE",
"657 1062 LINE",
"360 1062 LINE",
"95 797 LINE",
"95 265 LINE",
"360 0 LINE"
);
},
{
closed = 1;
nodes = (
"1023 0 LINE",
"1288 265 LINE",
"1288 797 LINE {name = hr00;}",
"1023 1062 LINE",
"727 1062 LINE",
"727 797 LINE",
"837 797 LINE",
"837 248 LINE",
"727 248 LINE",
"727 0 LINE"
);
},
{
closed = 1;
nodes = (
"1416 860 LINE",
"1616 1035 LINE",
"1616 1347 LINE",
"1334 1347 LINE {name = hr00;}",
"1334 1062 LINE {name = \"\";}",
"949 1062 LINE {name = \"\";}",
"1054 860 LINE"
);
}
);
width = 1383;
}
);
unicode = 01A1;
},
{
glyphname = oopen;
lastChange = "2022-07-12 18:34:35 +0000";
layers = (
{
anchors = (
{
name = _btm;
position = "{718, 1062}";
},
{
name = bottom;
position = "{643, -161}";
}
);
layerId = master01;
paths = (
{
closed = 1;
nodes = (
"963 0 LINE",
"1228 265 LINE",
"1228 797 LINE",
"963 1062 LINE",
"786 1062 LINE",
"786 0 LINE {name = hr01;}"
);
},
{
closed = 1;
nodes = (
"716 0 LINE",
"716 265 LINE",
"520 265 LINE",
"520 424 LINE {name = hr02;}",
"78 424 LINE",
"78 265 LINE",
"343 0 LINE {name = hr03;}"
);
},
{
closed = 1;
nodes = (
"520 681 LINE",
"520 814 LINE {name = hr05;}",
"716 814 LINE",
"716 1062 LINE",
"343 1062 LINE",
"78 797 LINE {name = hr04;}",
"78 681 LINE"
);
}
);
width = 1323;
}
);
unicode = 0254;
},
{
glyphname = oslash;
lastChange = "2022-07-12 23:28:53 +0000";
layers = (
{
layerId = master01;
paths = (
{
closed = 1;
nodes = (
"645 264 LINE",
"546 265 LINE",
"546 797 LINE",
"626 797 LINE",
"698 1062 LINE",
"369 1062 LINE",
"95 797 LINE",
"95 265 LINE",
"257 107 LINE",
"193 -137 LINE {name = hr00;}",
"516 -221 LINE"
);
},
{
closed = 1;
nodes = (
"988 0 LINE",
"1262 265 LINE",
"1262 797 LINE",
"1102 952 LINE",
"1164 1192 LINE",
"841 1276 LINE",
"715 797 LINE",
"811 797 LINE",
"811 265 LINE",
"732 264 LINE",
"663 0 LINE"
);
}
);
width = 1357;
}
);
unicode = 00F8;
},
{
glyphname = oe;
lastChange = "2022-07-12 16:17:08 +0000";
layers = (
{
layerId = master01;
paths = (
{
closed = 1;
nodes = (
"934 0 LINE",
"1024 88 LINE",
"1113 0 LINE",
"1344 0 LINE",
"1344 265 LINE",
"1245 265 LINE",
"1245 797 LINE",
"1344 797 LINE",
"1344 1062 LINE",
"1113 1062 LINE",
"1026 973 LINE",
"934 1062 LINE",
"704 1062 LINE",
"704 797 LINE {name = hr00;}",
"803 797 LINE",
"803 265 LINE",
"704 265 LINE",
"704 0 LINE"
);
},
{
closed = 1;
nodes = (
"634 0 LINE",
"634 265 LINE",
"537 265 LINE",
"537 797 LINE",
"634 797 LINE",
"634 1062 LINE",
"360 1062 LINE",
"95 797 LINE",
"95 265 LINE",
"360 0 LINE"
);
},
{
closed = 1;
nodes = (
"1776 0 LINE",
"1909 133 LINE",
"1909 265 LINE",
"1414 265 LINE",
"1414 0 LINE"
);
},
{
closed = 1;
nodes = (
"1954 434 LINE",
"1954 797 LINE",
"1687 1062 LINE",
"1414 1062 LINE",
"1414 797 LINE",
"1511 797 LINE",
"1511 628 LINE",
"1315 628 LINE",
"1315 434 LINE"
);
}
);
width = 2042;
}
);
unicode = 0153;
},
{
glyphname = p;
lastChange = "2022-07-13 01:12:00 +0000";
layers = (
{
anchors = (
{
name = top;
position = "{650, 1223}";
}
);
layerId = master01;
paths = (
{
closed = 1;
nodes = (
"988 0 LINE",
"1254 265 LINE",
"1254 797 LINE",
"988 1062 LINE",
"746 1062 LINE",
"616 931 LINE",
"616 797 LINE",
"811 797 LINE",
"811 248 LINE",
"616 248 LINE",
"616 0 LINE"
);
},
{
closed = 1;
nodes = (
"546 -354 LINE {name = hr00;}",
"546 1062 LINE",
"104 1062 LINE",
"104 -354 LINE"
);
}
);
width = 1349;
}
);
leftMetricsKey = h;
rightMetricsKey = "=|d";
unicode = 0070;
},
{
glyphname = thorn;
lastChange = "2022-07-13 01:12:11 +0000";
layers = (
{
layerId = master01;
paths = (
{
closed = 1;
nodes = (
"546 -354 LINE",
"546 1450 LINE",
"104 1450 LINE {name = hr00;}",
"104 -354 LINE"
);
},
{
closed = 1;
nodes = (
"988 0 LINE",
"1254 265 LINE",
"1254 797 LINE",
"988 1062 LINE",
"744 1062 LINE",
"613 931 LINE",
"613 797 LINE",
"811 797 LINE",
"811 265 LINE",
"613 265 LINE",
"613 0 LINE"
);
}
);
width = 1349;
}
);
leftMetricsKey = h;
rightMetricsKey = "=|d";
unicode = 00FE;
},
{
glyphname = q;
lastChange = "2022-07-13 01:12:23 +0000";
layers = (
{
layerId = master01;
paths = (
{
closed = 1;
nodes = (
"1246 -354 LINE {name = hr00;}",
"1246 797 LINE",
"980 1062 LINE",
"607 1062 LINE",
"607 797 LINE",
"804 797 LINE",
"804 -221 LINE",
"934 -354 LINE"
);
},
{
closed = 1;
nodes = (
"602 0 LINE",
"734 131 LINE",
"734 248 LINE",
"537 248 LINE",
"537 1062 LINE",
"361 1062 LINE",
"95 797 LINE",
"95 265 LINE",
"361 0 LINE"
);
}
);
width = 1350;
}
);
leftMetricsKey = d;
rightMetricsKey = "=|h";
unicode = 0071;
},
{
glyphname = r;
lastChange = "2022-07-12 16:17:08 +0000";
layers = (
{
anchors = (
{
name = btm;
position = "{339, 0}";
},
{
name = top;
position = "{653, 1223}";
}
);
layerId = master01;
paths = (
{
closed = 1;
nodes = (
"546 0 LINE",
"546 1062 LINE",
"104 1062 LINE",
"104 0 LINE"
);
},
{
closed = 1;
nodes = (
"1248 539 LINE",
"1248 814 LINE",
"1033 1062 LINE",
"765 1062 LINE",
"617 913 LINE",
"617 797 LINE",
"805 797 LINE",
"805 539 LINE {name = hr00;}"
);
}
);
width = 1280;
}
);
unicode = 0072;
},
{
glyphname = s;
lastChange = "2022-07-13 02:57:02 +0000";
layers = (
{
anchors = (
{
name = bottom;
position = "{658, 0}";
},
{
name = top;
position = "{680, 1223}";
}
);
layerId = master01;
paths = (
{
closed = 1;
nodes = (
"999 0 LINE",
"1246 248 LINE",
"1246 455 LINE",
"1016 687 LINE",
"512 687 LINE",
"512 1062 LINE",
"335 1062 LINE",
"96 824 LINE {name = hr00;}",
"96 622 LINE",
"326 401 LINE",
"804 401 LINE",
"804 0 LINE"
);
},
{
closed = 1;
nodes = (
"734 0 LINE",
"734 195 LINE",
"538 195 LINE",
"538 304 LINE",
"95 304 LINE",
"95 219 LINE",
"279 0 LINE"
);
},
{
closed = 1;
nodes = (
"1210 784 LINE",
"1210 904 LINE",
"1052 1062 LINE",
"582 1062 LINE",
"582 867 LINE",
"804 867 LINE",
"804 784 LINE"
);
}
);
userData = {
com.typemytype.robofont.guides = (
{
angle = 0;
isGlobal = 0;
magnetic = 5;
x = 0;
y = 878;
},
{
angle = 90;
isGlobal = 0;
magnetic = 5;
x = 315;
y = 0;
},
{
angle = 90;
isGlobal = 0;
magnetic = 5;
x = 1210;
y = 0;
},
{
angle = 90;
isGlobal = 0;
magnetic = 5;
x = 998;
y = 0;
}
);
};
width = 1315;
}
);
unicode = 0073;
},
{
glyphname = saltillo;
lastChange = "2022-07-12 17:14:33 +0000";
layers = (
{
layerId = master01;
paths = (
{
closed = 1;
nodes = (
"502 178 LINE",
"585 1062 LINE",
"117 1062 LINE",
"210 178 LINE"
);
}
);
width = 701;
}
);
unicode = A78C;
},
{
glyphname = germandbls;
lastChange = "2022-07-12 16:17:08 +0000";
layers = (
{
layerId = master01;
paths = (
{
closed = 1;
nodes = (
"1112 0 LINE {name = hr00;}",
"1365 253 LINE",
"1365 631 LINE",
"1166 834 LINE",
"1237 902 LINE",
"1237 1247 LINE",
"1016 1467 LINE",
"614 1467 LINE",
"614 1203 LINE",
"845 1203 LINE",
"845 908 LINE",
"695 908 LINE",
"695 694 LINE",
"924 694 LINE",
"924 265 LINE",
"666 265 LINE",
"666 0 LINE"
);
},
{
closed = 1;
nodes = (
"546 0 LINE",
"546 1467 LINE",
"369 1467 LINE",
"104 1203 LINE",
"104 0 LINE"
);
}
);
width = 1443;
}
);
unicode = 00DF;
},
{
glyphname = t;
lastChange = "2022-07-12 20:25:56 +0000";
layers = (
{
anchors = (
{
name = bottom;
position = "{458, 0}";
},
{
name = btm;
position = "{433, 0}";
},
{
name = center;
position = "{458, 531}";
},
{
name = top;
position = "{388, 1397}";
},
{
name = topright;
position = "{866, 1062}";
}
);
layerId = master01;
paths = (
{
closed = 1;
nodes = (
"850 0 LINE",
"850 265 LINE",
"558 265 LINE",
"558 1327 LINE {name = hr00;}",
"116 1177 LINE",
"116 1062 LINE",
"28 1062 LINE",
"28 797 LINE",
"116 797 LINE",
"116 265 LINE",
"382 0 LINE"
);
},
{
closed = 1;
nodes = (
"866 797 LINE",
"866 1062 LINE",
"628 1062 LINE",
"628 797 LINE"
);
}
);
width = 915;
}
);
unicode = 0074;
},
{
glyphname = tbar;
lastChange = "2022-07-12 16:17:08 +0000";
layers = (
{
layerId = master01;
paths = (
{
closed = 1;
nodes = (
"850 0 LINE",
"850 265 LINE",
"558 265 LINE",
"558 446 LINE",
"696 446 LINE",
"696 635 LINE",
"558 635 LINE",
"558 1327 LINE {name = hr00;}",
"116 1177 LINE",
"116 1062 LINE",
"28 1062 LINE",
"28 797 LINE",
"116 797 LINE",
"116 635 LINE",
"27 635 LINE",
"27 446 LINE",
"116 446 LINE",
"116 265 LINE",
"382 0 LINE"
);
},
{
closed = 1;
nodes = (
"866 797 LINE",
"866 1062 LINE",
"628 1062 LINE",
"628 797 LINE"
);
}
);
width = 915;
}
);
unicode = 0167;
},
{
glyphname = u;
lastChange = "2022-07-12 16:46:33 +0000";
layers = (
{
anchors = (
{
name = bottom;
position = "{675, 0}";
},
{
name = ogonek;
position = "{1215, 10}";
},
{
name = top;
position = "{670, 1223}";
},
{
name = topright;
position = "{1328, 1062}";
}
);
layerId = master01;
paths = (
{
closed = 1;
nodes = (
"606 0 LINE",
"734 133 LINE",
"734 265 LINE",
"537 265 LINE",
"537 1062 LINE",
"95 1062 LINE",
"95 265 LINE",
"361 0 LINE"
);
},
{
closed = 1;
nodes = (
"1246 0 LINE",
"1246 1062 LINE",
"804 1062 LINE {name = hr00;}",
"804 0 LINE"
);
}
);
width = 1350;
}
);
unicode = 0075;
},
{
glyphname = uhorn;
lastChange = "2022-07-12 23:32:28 +0000";
layers = (
{
anchors = (
{
name = _topright;
position = "{1328, 1062}";
},
{
name = bottom;
position = "{675, 0}";
},
{
name = ogonek;
position = "{1215, 10}";
},
{
name = top;
position = "{670, 1223}";
}
);
layerId = master01;
paths = (
{
closed = 1;
nodes = (
"606 0 LINE",
"734 133 LINE",
"734 265 LINE",
"537 265 LINE",
"537 1062 LINE",
"95 1062 LINE",
"95 265 LINE",
"361 0 LINE"
);
},
{
closed = 1;
nodes = (
"1246 0 LINE",
"1246 1062 LINE",
"804 1062 LINE {name = hr00;}",
"804 0 LINE"
);
},
{
closed = 1;
nodes = (
"1407 860 LINE",
"1607 1035 LINE",
"1607 1347 LINE",
"1325 1347 LINE {name = hr00;}",
"1325 1062 LINE {name = \"\";}",
"1162 1062 LINE {name = \"\";}",
"1162 860 LINE"
);
}
);
width = 1350;
}
);
unicode = 01B0;
},
{
glyphname = v;
lastChange = "2022-07-12 16:17:08 +0000";
layers = (
{
layerId = master01;
paths = (
{
closed = 1;
nodes = (
"803 0 LINE",
"425 1062 LINE",
"-14 1062 LINE",
"383 0 LINE {name = hr00;}"
);
},
{
closed = 1;
nodes = (
"1206 1062 LINE",
"793 1062 LINE",
"650 621 LINE",
"848 59 LINE"
);
}
);
width = 1192;
}
);
unicode = 0076;
},
{
glyphname = vturned;
lastChange = "2022-07-12 18:34:35 +0000";
layers = (
{
layerId = master01;
paths = (
{
closed = 1;
nodes = (
"1206 0 LINE",
"809 1062 LINE {name = hr00;}",
"389 1062 LINE",
"767 0 LINE"
);
},
{
closed = 1;
nodes = (
"399 0 LINE",
"542 441 LINE",
"344 1003 LINE",
"-14 0 LINE"
);
}
);
width = 1192;
}
);
unicode = 028C;
},
{
glyphname = w;
lastChange = "2022-07-13 03:03:12 +0000";
layers = (
{
anchors = (
{
name = top;
position = "{921, 1223}";
}
);
layerId = master01;
paths = (
{
closed = 1;
nodes = (
"736 1 LINE",
"737 -1 LINE",
"863 403 LINE",
"704 892 LINE",
"581 509 LINE",
"408 1062 LINE",
"-14 1062 LINE",
"367 0 LINE {name = hr00;}"
);
},
{
closed = 1;
nodes = (
"1469 0 LINE",
"1127 1062 LINE",
"710 1062 LINE",
"1068 0 LINE"
);
},
{
closed = 1;
nodes = (
"1860 1062 LINE",
"1446 1062 LINE",
"1327 638 LINE",
"1513 66 LINE"
);
}
);
width = 1846;
}
);
unicode = 0077;
},
{
glyphname = x;
lastChange = "2022-07-12 16:17:08 +0000";
layers = (
{
layerId = master01;
paths = (
{
closed = 1;
nodes = (
"1153 0 LINE",
"446 1062 LINE",
"-14 1062 LINE {name = hr00;}",
"694 0 LINE"
);
},
{
closed = 1;
nodes = (
"446 0 LINE",
"518 149 LINE",
"281 506 LINE",
"-14 0 LINE"
);
},
{
closed = 1;
nodes = (
"1153 1062 LINE",
"694 1062 LINE",
"619 915 LINE",
"847 572 LINE"
);
}
);
width = 1140;
}
);
unicode = 0078;
},
{
glyphname = y;
lastChange = "2022-07-12 17:15:31 +0000";
layers = (
{
anchors = (
{
name = bottom;
position = "{1058, 0}";
},
{
name = top;
position = "{620, 1223}";
}
);
layerId = master01;
paths = (
{
closed = 1;
nodes = (
"696 -370 LINE",
"1235 1062 LINE {name = hr00;}",
"810 1062 LINE",
"272 -370 LINE"
);
},
{
closed = 1;
nodes = (
"576 630 LINE",
"427 1062 LINE",
"-14 1062 LINE",
"378 89 LINE"
);
}
);
width = 1221;
}
);
unicode = 0079;
},
{
glyphname = z;
lastChange = "2022-07-12 18:08:59 +0000";
layers = (
{
anchors = (
{
name = bottom;
position = "{591, 0}";
},
{
name = center;
position = "{591, 531}";
},
{
name = top;
position = "{634, 1223}";
}
);
layerId = master01;
paths = (
{
closed = 1;
nodes = (
"391 0 LINE",
"1090 797 LINE",
"1090 1062 LINE",
"785 1062 LINE",
"95 257 LINE",
"95 0 LINE"
);
},
{
closed = 1;
nodes = (
"1091 0 LINE",
"1091 265 LINE {name = hr00;}",
"708 265 LINE",
"473 0 LINE"
);
},
{
closed = 1;
nodes = (
"473 797 LINE",
"702 1062 LINE",
"105 1062 LINE",
"105 797 LINE"
);
}
);
width = 1181;
}
);
unicode = 007A;
},
{
glyphname = f_f;
lastChange = "2022-07-13 01:12:45 +0000";
layers = (
{
layerId = master01;
paths = (
{
closed = 1;
nodes = (
"1493 0 LINE",
"1493 1202 LINE",
"1813 1202 LINE {name = hr00;}",
"1813 1467 LINE",
"1317 1467 LINE",
"1050 1219 LINE",
"1050 1062 LINE",
"656 1062 LINE",
"653 797 LINE",
"1050 797 LINE",
"1050 0 LINE"
);
},
{
closed = 1;
nodes = (
"586 0 LINE",
"586 1202 LINE",
"906 1202 LINE",
"906 1467 LINE",
"410 1467 LINE",
"143 1219 LINE",
"143 1062 LINE",
"38 1062 LINE",
"38 797 LINE",
"143 797 LINE",
"143 0 LINE"
);
},
{
closed = 1;
nodes = (
"1813 797 LINE",
"1813 1062 LINE",
"1563 1062 LINE",
"1560 797 LINE"
);
}
);
width = 1814;
}
);
leftMetricsKey = f;
rightMetricsKey = f;
},
{
glyphname = fi;
lastChange = "2022-07-13 01:12:51 +0000";
layers = (
{
layerId = master01;
paths = (
{
closed = 1;
nodes = (
"586 0 LINE",
"586 1202 LINE",
"906 1202 LINE {name = hr00;}",
"906 1467 LINE",
"410 1467 LINE",
"143 1219 LINE",
"143 1062 LINE",
"38 1062 LINE",
"38 797 LINE",
"143 797 LINE",
"143 0 LINE"
);
},
{
closed = 1;
nodes = (
"1455 0 LINE",
"1455 1062 LINE",
"656 1062 LINE",
"653 797 LINE",
"1012 797 LINE",
"1012 0 LINE"
);
},
{
closed = 1;
nodes = (
"1455 1194 LINE",
"1455 1476 LINE",
"1012 1476 LINE",
"1012 1194 LINE"
);
}
);
width = 1560;
}
);
leftMetricsKey = f;
rightMetricsKey = i;
unicode = FB01;
},
{
glyphname = fl;
lastChange = "2022-07-13 01:12:56 +0000";
layers = (
{
layerId = master01;
paths = (
{
closed = 1;
nodes = (
"586 0 LINE",
"586 1202 LINE",
"1011 1202 LINE",
"1011 248 LINE",
"1259 0 LINE",
"1651 0 LINE",
"1651 265 LINE {name = hr00;}",
"1453 265 LINE",
"1453 1202 LINE",
"1455 1202 LINE",
"1455 1467 LINE",
"410 1467 LINE",
"143 1219 LINE",
"143 1062 LINE",
"38 1062 LINE",
"38 797 LINE",
"143 797 LINE",
"143 0 LINE"
);
},
{
closed = 1;
nodes = (
"906 797 LINE",
"906 1062 LINE",
"656 1062 LINE",
"653 797 LINE"
);
}
);
width = 1660;
}
);
leftMetricsKey = f;
rightMetricsKey = l;
unicode = FB02;
},
{
glyphname = ordfeminine;
lastChange = "2022-07-12 16:17:08 +0000";
layers = (
{
layerId = master01;
paths = (
{
closed = 1;
nodes = (
"1003 530 LINE {name = hr00;}",
"1003 1128 LINE",
"804 1327 LINE",
"306 1327 LINE",
"206 1228 LINE",
"206 1128 LINE",
"670 1128 LINE",
"670 530 LINE"
);
},
{
closed = 1;
nodes = (
"660 -81 LINE",
"792 52 LINE",
"792 228 LINE",
"660 361 LINE",
"483 361 LINE",
"350 228 LINE",
"350 52 LINE",
"483 -81 LINE"
);
},
{
closed = 1;
nodes = (
"504 530 LINE",
"603 628 LINE",
"603 729 LINE",
"473 729 LINE",
"473 856 LINE",
"603 856 LINE",
"603 1001 LINE",
"274 1001 LINE",
"142 869 LINE",
"142 662 LINE",
"274 530 LINE"
);
}
);
width = 1145;
}
);
unicode = 00AA;
},
{
glyphname = ordmasculine;
lastChange = "2022-07-12 23:32:33 +0000";
layers = (
{
layerId = master01;
paths = (
{
closed = 1;
nodes = (
"807 528 LINE",
"1007 729 LINE",
"1007 1127 LINE {name = hr00;}",
"807 1327 LINE {name = \"\";}",
"607 1327 LINE {name = \"\";}",
"607 1127 LINE",
"674 1127 LINE",
"674 729 LINE",
"607 729 LINE",
"607 528 LINE"
);
},
{
closed = 1;
nodes = (
"664 -81 LINE",
"796 52 LINE",
"796 228 LINE",
"664 361 LINE",
"486 361 LINE",
"353 228 LINE",
"353 52 LINE",
"486 -81 LINE"
);
},
{
closed = 1;
nodes = (
"539 528 LINE",
"539 729 LINE",
"474 729 LINE",
"474 1127 LINE",
"539 1127 LINE",
"539 1327 LINE {name = \"\";}",
"341 1327 LINE {name = \"\";}",
"142 1127 LINE",
"142 729 LINE",
"341 528 LINE"
);
}
);
width = 1148;
}
);
unicode = 00BA;
},
{
glyphname = Delta;
lastChange = "2022-07-13 01:10:32 +0000";
layers = (
{
anchors = (
{
name = top;
position = "{746, 1530}";
}
);
layerId = master01;
paths = (
{
closed = 1;
nodes = (
"1491 0 LINE",
"963 1327 LINE",
"532 1327 LINE",
"942 263 LINE",
"602 263 LINE",
"510 0 LINE {name = hr00;}"
);
},
{
closed = 1;
nodes = (
"436 0 LINE",
"680 740 LINE",
"484 1267 LINE",
"9 0 LINE"
);
}
);
width = 1500;
}
);
unicode = 0394;
},
{
glyphname = Sigma;
lastChange = "2022-07-13 03:27:17 +0000";
layers = (
{
layerId = master01;
paths = (
{
closed = 1;
nodes = (
"476 0 LINE",
"872 655 LINE {name = hr00;}",
"477 1327 LINE",
"117 1327 LINE",
"117 1103 LINE",
"453 658 LINE",
"117 225 LINE",
"118 0 LINE"
);
},
{
closed = 1;
nodes = (
"1320 0 LINE",
"1320 398 LINE",
"878 398 LINE",
"878 265 LINE",
"671 265 LINE",
"545 0 LINE"
);
},
{
closed = 1;
nodes = (
"1320 929 LINE",
"1320 1327 LINE",
"548 1327 LINE",
"671 1062 LINE",
"878 1062 LINE",
"878 929 LINE"
);
}
);
width = 1415;
}
);
unicode = 03A3;
},
{
glyphname = pi;
layers = (
{
layerId = master01;
paths = (
{
closed = 1;
nodes = (
"1289 793 LINE",
"1289 1062 LINE",
"95 1062 LINE",
"95 793 LINE"
);
},
{
closed = 1;
nodes = (
"535 0 LINE",
"535 724 LINE",
"95 724 LINE",
"95 0 LINE {name = hr00;}"
);
},
{
closed = 1;
nodes = (
"1290 0 LINE",
"1290 724 LINE",
"850 724 LINE",
"850 0 LINE"
);
}
);
width = 1383;
}
);
unicode = 03C0;
},
{
glyphname = zero;
lastChange = "2022-07-12 16:17:08 +0000";
layers = (
{
layerId = master01;
paths = (
{
closed = 1;
nodes = (
"1126 0 LINE",
"1391 265 LINE",
"1391 1062 LINE {name = hr00;}",
"1126 1327 LINE",
"949 1327 LINE",
"949 265 LINE",
"618 265 LINE",
"618 0 LINE"
);
},
{
closed = 1;
nodes = (
"550 0 LINE",
"550 1062 LINE",
"881 1062 LINE",
"881 1327 LINE",
"374 1327 LINE",
"108 1062 LINE",
"108 265 LINE",
"374 0 LINE"
);
}
);
width = 1499;
}
);
unicode = 0030;
},
{
glyphname = one;
lastChange = "2022-07-12 16:17:08 +0000";
layers = (
{
layerId = master01;
paths = (
{
closed = 1;
nodes = (
"805 326 LINE",
"805 1327 LINE",
"274 1327 LINE",
"142 1194 LINE",
"142 1062 LINE {name = hr00;}",
"363 1062 LINE",
"363 326 LINE"
);
},
{
closed = 1;
nodes = (
"1026 0 LINE",
"1026 265 LINE",
"142 265 LINE",
"142 0 LINE"
);
}
);
width = 1167;
}
);
unicode = 0031;
},
{
glyphname = two;
lastChange = "2022-07-12 16:17:08 +0000";
layers = (
{
layerId = master01;
paths = (
{
closed = 1;
nodes = (
"550 0 LINE",
"550 469 LINE {name = hr01;}",
"1091 469 LINE",
"1356 734 LINE",
"1356 1062 LINE",
"1091 1327 LINE",
"914 1327 LINE",
"914 742 LINE",
"391 742 LINE",
"108 476 LINE",
"108 0 LINE"
);
},
{
closed = 1;
nodes = (
"1356 0 LINE",
"1356 239 LINE",
"620 239 LINE",
"620 0 LINE"
);
},
{
closed = 1;
nodes = (
"550 895 LINE",
"550 1088 LINE {name = hr03;}",
"844 1088 LINE",
"844 1327 LINE",
"374 1327 LINE",
"108 1062 LINE {name = hr02;}",
"108 895 LINE"
);
}
);
userData = {
com.typemytype.robofont.guides = (
{
angle = 45;
isGlobal = 0;
magnetic = 5;
x = -383;
y = 0;
}
);
};
width = 1464;
}
);
unicode = 0032;
},
{
glyphname = three;
lastChange = "2022-07-12 16:17:08 +0000";
layers = (
{
layerId = master01;
paths = (
{
closed = 1;
nodes = (
"1121 0 LINE",
"1387 264 LINE",
"1387 533 LINE",
"1230 668 LINE",
"1387 801 LINE",
"1387 1062 LINE",
"1121 1327 LINE",
"944 1327 LINE {name = hr00;}",
"944 791 LINE",
"636 791 LINE",
"636 560 LINE",
"944 560 LINE",
"944 0 LINE"
);
},
{
closed = 1;
nodes = (
"874 0 LINE",
"874 283 LINE",
"546 283 LINE",
"546 470 LINE",
"104 470 LINE",
"104 265 LINE",
"369 0 LINE"
);
},
{
closed = 1;
nodes = (
"546 851 LINE",
"546 1045 LINE",
"874 1045 LINE",
"874 1327 LINE",
"369 1327 LINE",
"104 1062 LINE",
"104 851 LINE"
);
}
);
width = 1495;
}
);
unicode = 0033;
},
{
glyphname = four;
lastChange = "2022-07-12 16:17:08 +0000";
layers = (
{
layerId = master01;
paths = (
{
closed = 1;
nodes = (
"1187 0 LINE",
"1187 185 LINE",
"1337 185 LINE",
"1337 444 LINE",
"1187 444 LINE",
"1187 1327 LINE {name = hr00;}",
"762 1327 LINE",
"762 0 LINE"
);
},
{
closed = 1;
nodes = (
"692 185 LINE",
"692 444 LINE",
"451 444 LINE",
"692 712 LINE",
"692 1237 LINE",
"13 431 LINE",
"118 185 LINE"
);
}
);
width = 1392;
}
);
unicode = 0034;
},
{
glyphname = five;
lastChange = "2022-07-12 16:17:08 +0000";
layers = (
{
layerId = master01;
paths = (
{
closed = 1;
nodes = (
"506 594 LINE",
"506 1062 LINE {name = hr01;}",
"1303 1062 LINE",
"1303 1327 LINE",
"107 1327 LINE",
"107 594 LINE"
);
},
{
closed = 1;
nodes = (
"852 0 LINE",
"852 265 LINE",
"550 265 LINE",
"550 414 LINE {name = hr02;}",
"107 414 LINE",
"107 265 LINE",
"373 0 LINE {name = hr03;}"
);
},
{
closed = 1;
nodes = (
"1099 0 LINE",
"1364 265 LINE",
"1364 576 LINE",
"1099 842 LINE",
"576 842 LINE",
"576 594 LINE",
"922 594 LINE",
"922 0 LINE"
);
}
);
userData = {
com.typemytype.robofont.guides = (
{
angle = 135;
isGlobal = 0;
magnetic = 5;
x = 1941;
y = 0;
}
);
};
width = 1498;
}
);
unicode = 0035;
},
{
glyphname = six;
lastChange = "2022-07-12 16:17:08 +0000";
layers = (
{
layerId = master01;
paths = (
{
closed = 1;
nodes = (
"717 0 LINE",
"717 265 LINE",
"550 265 LINE",
"550 1062 LINE {name = hr01;}",
"717 1062 LINE",
"717 1327 LINE",
"374 1327 LINE",
"108 1062 LINE",
"108 265 LINE",
"374 0 LINE"
);
},
{
closed = 1;
nodes = (
"1126 0 LINE",
"1391 265 LINE",
"1391 581 LINE",
"1131 824 LINE",
"618 824 LINE",
"618 576 LINE",
"966 576 LINE",
"966 265 LINE",
"787 265 LINE",
"787 0 LINE"
);
},
{
closed = 1;
nodes = (
"1391 965 LINE",
"1391 1062 LINE",
"1126 1327 LINE {name = hr03;}",
"787 1327 LINE",
"787 1062 LINE",
"949 1062 LINE",
"949 965 LINE {name = hr02;}"
);
}
);
userData = {
com.typemytype.robofont.guides = (
{
angle = 135;
isGlobal = 0;
magnetic = 5;
x = 1973;
y = 0;
}
);
};
width = 1499;
}
);
unicode = 0036;
},
{
glyphname = seven;
lastChange = "2022-07-12 16:17:08 +0000";
layers = (
{
layerId = master01;
paths = (
{
closed = 1;
nodes = (
"814 0 LINE",
"1215 994 LINE",
"791 994 LINE",
"346 0 LINE {name = hr00;}"
);
},
{
closed = 1;
nodes = (
"485 860 LINE",
"485 1062 LINE",
"1247 1062 LINE",
"1247 1327 LINE",
"183 1327 LINE",
"52 1194 LINE",
"52 860 LINE"
);
}
);
width = 1299;
}
);
unicode = 0037;
},
{
glyphname = eight;
lastChange = "2022-07-13 02:57:16 +0000";
layers = (
{
layerId = master01;
paths = (
{
closed = 1;
nodes = (
"738 0 LINE",
"738 265 LINE",
"546 265 LINE",
"546 548 LINE {name = hr00;}",
"738 548 LINE",
"738 796 LINE",
"546 796 LINE",
"546 1062 LINE",
"738 1062 LINE",
"738 1327 LINE",
"374 1327 LINE",
"108 1062 LINE",
"108 802 LINE",
"267 672 LINE",
"108 541 LINE",
"108 265 LINE",
"374 0 LINE"
);
},
{
closed = 1;
nodes = (
"1433 264 LINE",
"1433 538 LINE",
"1275 671 LINE",
"1433 804 LINE",
"1433 1062 LINE {name = \"\";}",
"1168 1327 LINE",
"808 1327 LINE",
"808 1062 LINE",
"1013 1062 LINE",
"1013 796 LINE",
"808 796 LINE",
"808 548 LINE",
"1013 548 LINE",
"1013 265 LINE",
"808 265 LINE",
"808 0 LINE",
"1168 0 LINE"
);
}
);
userData = {
com.typemytype.robofont.guides = (
{
angle = 135;
isGlobal = 0;
magnetic = 5;
x = 2494;
y = 0;
}
);
};
width = 1541;
}
);
unicode = 0038;
},
{
glyphname = nine;
lastChange = "2022-07-12 16:17:08 +0000";
layers = (
{
layerId = master01;
paths = (
{
closed = 1;
nodes = (
"1126 0 LINE",
"1391 265 LINE",
"1391 1062 LINE",
"1126 1327 LINE",
"783 1327 LINE",
"783 1062 LINE",
"949 1062 LINE",
"949 265 LINE {name = hr01;}",
"783 265 LINE",
"783 0 LINE"
);
},
{
closed = 1;
nodes = (
"715 0 LINE",
"715 265 LINE",
"550 265 LINE",
"550 354 LINE {name = hr02;}",
"108 354 LINE",
"108 265 LINE",
"374 0 LINE {name = hr03;}"
);
},
{
closed = 1;
nodes = (
"881 496 LINE",
"881 762 LINE",
"550 762 LINE",
"550 1062 LINE",
"715 1062 LINE",
"715 1327 LINE",
"374 1327 LINE",
"108 1062 LINE",
"108 762 LINE",
"374 496 LINE"
);
}
);
width = 1499;
}
);
unicode = 0039;
},
{
glyphname = zero.lf;
lastChange = "2022-07-13 03:15:06 +0000";
layers = (
{
layerId = master01;
paths = (
{
closed = 1;
nodes = (
"1126 0 LINE",
"1391 265 LINE",
"1391 1062 LINE {name = hr00;}",
"1126 1327 LINE",
"949 1327 LINE",
"949 265 LINE",
"618 265 LINE",
"618 0 LINE"
);
},
{
closed = 1;
nodes = (
"550 0 LINE",
"550 1062 LINE",
"881 1062 LINE",
"881 1327 LINE",
"374 1327 LINE",
"108 1062 LINE",
"108 265 LINE",
"374 0 LINE"
);
}
);
width = 1499;
}
);
},
{
glyphname = one.lf;
lastChange = "2022-07-13 03:15:06 +0000";
layers = (
{
layerId = master01;
paths = (
{
closed = 1;
nodes = (
"805 326 LINE",
"805 1327 LINE",
"274 1327 LINE",
"142 1194 LINE",
"142 1062 LINE {name = hr00;}",
"363 1062 LINE",
"363 326 LINE"
);
},
{
closed = 1;
nodes = (
"1026 0 LINE",
"1026 265 LINE",
"142 265 LINE",
"142 0 LINE"
);
}
);
width = 1167;
}
);
},
{
glyphname = two.lf;
lastChange = "2022-07-13 03:15:06 +0000";
layers = (
{
layerId = master01;
paths = (
{
closed = 1;
nodes = (
"550 0 LINE",
"550 469 LINE {name = hr01;}",
"1091 469 LINE",
"1356 734 LINE",
"1356 1062 LINE",
"1091 1327 LINE",
"914 1327 LINE",
"914 742 LINE",
"391 742 LINE",
"108 476 LINE",
"108 0 LINE"
);
},
{
closed = 1;
nodes = (
"1356 0 LINE",
"1356 239 LINE",
"620 239 LINE",
"620 0 LINE"
);
},
{
closed = 1;
nodes = (
"550 895 LINE",
"550 1088 LINE {name = hr03;}",
"844 1088 LINE",
"844 1327 LINE",
"374 1327 LINE",
"108 1062 LINE {name = hr02;}",
"108 895 LINE"
);
}
);
userData = {
com.typemytype.robofont.guides = (
{
angle = 45;
isGlobal = 0;
magnetic = 5;
x = -383;
y = 0;
}
);
};
width = 1464;
}
);
},
{
glyphname = three.lf;
lastChange = "2022-07-13 03:15:06 +0000";
layers = (
{
layerId = master01;
paths = (
{
closed = 1;
nodes = (
"1121 0 LINE",
"1387 264 LINE",
"1387 533 LINE",
"1230 668 LINE",
"1387 801 LINE",
"1387 1062 LINE",
"1121 1327 LINE",
"944 1327 LINE {name = hr00;}",
"944 791 LINE",
"636 791 LINE",
"636 560 LINE",
"944 560 LINE",
"944 0 LINE"
);
},
{
closed = 1;
nodes = (
"874 0 LINE",
"874 283 LINE",
"546 283 LINE",
"546 470 LINE",
"104 470 LINE",
"104 265 LINE",
"369 0 LINE"
);
},
{
closed = 1;
nodes = (
"546 851 LINE",
"546 1045 LINE",
"874 1045 LINE",
"874 1327 LINE",
"369 1327 LINE",
"104 1062 LINE",
"104 851 LINE"
);
}
);
width = 1495;
}
);
},
{
glyphname = four.lf;
lastChange = "2022-07-13 03:15:06 +0000";
layers = (
{
layerId = master01;
paths = (
{
closed = 1;
nodes = (
"1187 0 LINE",
"1187 185 LINE",
"1337 185 LINE",
"1337 444 LINE",
"1187 444 LINE",
"1187 1327 LINE {name = hr00;}",
"762 1327 LINE",
"762 0 LINE"
);
},
{
closed = 1;
nodes = (
"692 185 LINE",
"692 444 LINE",
"451 444 LINE",
"692 712 LINE",
"692 1237 LINE",
"13 431 LINE",
"118 185 LINE"
);
}
);
width = 1392;
}
);
},
{
glyphname = five.lf;
lastChange = "2022-07-13 03:15:06 +0000";
layers = (
{
layerId = master01;
paths = (
{
closed = 1;
nodes = (
"506 594 LINE",
"506 1062 LINE {name = hr01;}",
"1303 1062 LINE",
"1303 1327 LINE",
"107 1327 LINE",
"107 594 LINE"
);
},
{
closed = 1;
nodes = (
"852 0 LINE",
"852 265 LINE",
"550 265 LINE",
"550 414 LINE {name = hr02;}",
"107 414 LINE",
"107 265 LINE",
"373 0 LINE {name = hr03;}"
);
},
{
closed = 1;
nodes = (
"1099 0 LINE",
"1364 265 LINE",
"1364 576 LINE",
"1099 842 LINE",
"576 842 LINE",
"576 594 LINE",
"922 594 LINE",
"922 0 LINE"
);
}
);
userData = {
com.typemytype.robofont.guides = (
{
angle = 135;
isGlobal = 0;
magnetic = 5;
x = 1941;
y = 0;
}
);
};
width = 1498;
}
);
},
{
glyphname = six.lf;
lastChange = "2022-07-13 03:15:06 +0000";
layers = (
{
layerId = master01;
paths = (
{
closed = 1;
nodes = (
"717 0 LINE",
"717 265 LINE",
"550 265 LINE",
"550 1062 LINE {name = hr01;}",
"717 1062 LINE",
"717 1327 LINE",
"374 1327 LINE",
"108 1062 LINE",
"108 265 LINE",
"374 0 LINE"
);
},
{
closed = 1;
nodes = (
"1126 0 LINE",
"1391 265 LINE",
"1391 581 LINE",
"1131 824 LINE",
"618 824 LINE",
"618 576 LINE",
"966 576 LINE",
"966 265 LINE",
"787 265 LINE",
"787 0 LINE"
);
},
{
closed = 1;
nodes = (
"1391 965 LINE",
"1391 1062 LINE",
"1126 1327 LINE {name = hr03;}",
"787 1327 LINE",
"787 1062 LINE",
"949 1062 LINE",
"949 965 LINE {name = hr02;}"
);
}
);
userData = {
com.typemytype.robofont.guides = (
{
angle = 135;
isGlobal = 0;
magnetic = 5;
x = 1973;
y = 0;
}
);
};
width = 1499;
}
);
},
{
glyphname = seven.lf;
lastChange = "2022-07-13 03:15:06 +0000";
layers = (
{
layerId = master01;
paths = (
{
closed = 1;
nodes = (
"814 0 LINE",
"1215 994 LINE",
"791 994 LINE",
"346 0 LINE {name = hr00;}"
);
},
{
closed = 1;
nodes = (
"485 860 LINE",
"485 1062 LINE",
"1247 1062 LINE",
"1247 1327 LINE",
"183 1327 LINE",
"52 1194 LINE",
"52 860 LINE"
);
}
);
width = 1299;
}
);
},
{
glyphname = eight.lf;
lastChange = "2022-07-13 03:15:06 +0000";
layers = (
{
layerId = master01;
paths = (
{
closed = 1;
nodes = (
"738 0 LINE",
"738 265 LINE",
"546 265 LINE",
"546 548 LINE {name = hr00;}",
"738 548 LINE",
"738 796 LINE",
"546 796 LINE",
"546 1062 LINE",
"738 1062 LINE",
"738 1327 LINE",
"374 1327 LINE",
"108 1062 LINE",
"108 802 LINE",
"267 672 LINE",
"108 541 LINE",
"108 265 LINE",
"374 0 LINE"
);
},
{
closed = 1;
nodes = (
"1433 264 LINE",
"1433 538 LINE",
"1275 671 LINE",
"1433 804 LINE",
"1433 1062 LINE {name = \"\";}",
"1168 1327 LINE",
"808 1327 LINE",
"808 1062 LINE",
"1013 1062 LINE",
"1013 796 LINE",
"808 796 LINE",
"808 548 LINE",
"1013 548 LINE",
"1013 265 LINE",
"808 265 LINE",
"808 0 LINE",
"1168 0 LINE"
);
}
);
userData = {
com.typemytype.robofont.guides = (
{
angle = 135;
isGlobal = 0;
magnetic = 5;
x = 2494;
y = 0;
}
);
};
width = 1541;
}
);
},
{
glyphname = nine.lf;
lastChange = "2022-07-13 03:15:06 +0000";
layers = (
{
layerId = master01;
paths = (
{
closed = 1;
nodes = (
"1126 0 LINE",
"1391 265 LINE",
"1391 1062 LINE",
"1126 1327 LINE",
"783 1327 LINE",
"783 1062 LINE",
"949 1062 LINE",
"949 265 LINE {name = hr01;}",
"783 265 LINE",
"783 0 LINE"
);
},
{
closed = 1;
nodes = (
"715 0 LINE",
"715 265 LINE",
"550 265 LINE",
"550 354 LINE {name = hr02;}",
"108 354 LINE",
"108 265 LINE",
"374 0 LINE {name = hr03;}"
);
},
{
closed = 1;
nodes = (
"881 496 LINE",
"881 762 LINE",
"550 762 LINE",
"550 1062 LINE",
"715 1062 LINE",
"715 1327 LINE",
"374 1327 LINE",
"108 1062 LINE",
"108 762 LINE",
"374 496 LINE"
);
}
);
width = 1499;
}
);
},
{
glyphname = zero.tf;
lastChange = "2022-07-13 01:10:32 +0000";
layers = (
{
layerId = master01;
paths = (
{
closed = 1;
nodes = (
"1126 0 LINE",
"1391 265 LINE",
"1391 1062 LINE {name = hr00;}",
"1126 1327 LINE",
"949 1327 LINE",
"949 265 LINE",
"618 265 LINE",
"618 0 LINE"
);
},
{
closed = 1;
nodes = (
"550 0 LINE",
"550 1062 LINE",
"881 1062 LINE",
"881 1327 LINE",
"374 1327 LINE",
"108 1062 LINE",
"108 265 LINE",
"374 0 LINE"
);
}
);
width = 1541;
}
);
},
{
glyphname = one.tf;
lastChange = "2022-07-13 01:10:32 +0000";
layers = (
{
layerId = master01;
paths = (
{
closed = 1;
nodes = (
"1075 326 LINE",
"1075 1327 LINE",
"394 1327 LINE",
"262 1194 LINE",
"262 1062 LINE {name = hr00;}",
"593 1062 LINE",
"593 326 LINE"
);
},
{
closed = 1;
nodes = (
"1346 0 LINE",
"1346 265 LINE",
"262 265 LINE",
"262 0 LINE"
);
}
);
width = 1541;
}
);
},
{
glyphname = two.tf;
lastChange = "2022-07-13 01:10:32 +0000";
layers = (
{
layerId = master01;
paths = (
{
closed = 1;
nodes = (
"550 0 LINE",
"550 469 LINE {name = hr01;}",
"1091 469 LINE",
"1356 734 LINE",
"1356 1062 LINE",
"1091 1327 LINE",
"914 1327 LINE",
"914 742 LINE",
"391 742 LINE",
"108 476 LINE",
"108 0 LINE"
);
},
{
closed = 1;
nodes = (
"1356 0 LINE",
"1356 239 LINE",
"620 239 LINE",
"620 0 LINE"
);
},
{
closed = 1;
nodes = (
"550 895 LINE",
"550 1088 LINE {name = hr03;}",
"844 1088 LINE",
"844 1327 LINE",
"374 1327 LINE",
"108 1062 LINE {name = hr02;}",
"108 895 LINE"
);
}
);
userData = {
com.typemytype.robofont.guides = (
{
angle = 45;
isGlobal = 0;
magnetic = 5;
x = -383;
y = 0;
}
);
};
width = 1541;
}
);
},
{
glyphname = three.tf;
lastChange = "2022-07-13 01:10:32 +0000";
layers = (
{
layerId = master01;
paths = (
{
closed = 1;
nodes = (
"1121 0 LINE",
"1387 264 LINE",
"1387 533 LINE",
"1230 668 LINE",
"1387 801 LINE",
"1387 1062 LINE",
"1121 1327 LINE",
"944 1327 LINE {name = hr00;}",
"944 791 LINE",
"636 791 LINE",
"636 560 LINE",
"944 560 LINE",
"944 0 LINE"
);
},
{
closed = 1;
nodes = (
"874 0 LINE",
"874 283 LINE",
"546 283 LINE",
"546 470 LINE",
"104 470 LINE",
"104 265 LINE",
"369 0 LINE"
);
},
{
closed = 1;
nodes = (
"546 851 LINE",
"546 1045 LINE",
"874 1045 LINE",
"874 1327 LINE",
"369 1327 LINE",
"104 1062 LINE",
"104 851 LINE"
);
}
);
width = 1541;
}
);
},
{
glyphname = four.tf;
lastChange = "2022-07-13 01:10:32 +0000";
layers = (
{
layerId = master01;
paths = (
{
closed = 1;
nodes = (
"1187 0 LINE",
"1187 185 LINE",
"1337 185 LINE",
"1337 444 LINE",
"1187 444 LINE",
"1187 1327 LINE {name = hr00;}",
"762 1327 LINE",
"762 0 LINE"
);
},
{
closed = 1;
nodes = (
"692 185 LINE",
"692 444 LINE",
"451 444 LINE",
"692 712 LINE",
"692 1237 LINE",
"13 431 LINE",
"118 185 LINE"
);
}
);
width = 1541;
}
);
},
{
glyphname = five.tf;
lastChange = "2022-07-13 01:10:32 +0000";
layers = (
{
layerId = master01;
paths = (
{
closed = 1;
nodes = (
"506 594 LINE",
"506 1062 LINE {name = hr01;}",
"1303 1062 LINE",
"1303 1327 LINE",
"107 1327 LINE",
"107 594 LINE"
);
},
{
closed = 1;
nodes = (
"852 0 LINE",
"852 265 LINE",
"550 265 LINE",
"550 414 LINE {name = hr02;}",
"107 414 LINE",
"107 265 LINE",
"373 0 LINE {name = hr03;}"
);
},
{
closed = 1;
nodes = (
"1099 0 LINE",
"1364 265 LINE",
"1364 576 LINE",
"1099 842 LINE",
"576 842 LINE",
"576 594 LINE",
"922 594 LINE",
"922 0 LINE"
);
}
);
userData = {
com.typemytype.robofont.guides = (
{
angle = 135;
isGlobal = 0;
magnetic = 5;
x = 1941;
y = 0;
}
);
};
width = 1541;
}
);
},
{
glyphname = six.tf;
lastChange = "2022-07-13 01:10:32 +0000";
layers = (
{
layerId = master01;
paths = (
{
closed = 1;
nodes = (
"717 0 LINE",
"717 265 LINE",
"550 265 LINE",
"550 1062 LINE {name = hr01;}",
"717 1062 LINE",
"717 1327 LINE",
"374 1327 LINE",
"108 1062 LINE",
"108 265 LINE",
"374 0 LINE"
);
},
{
closed = 1;
nodes = (
"1126 0 LINE",
"1391 265 LINE",
"1391 581 LINE",
"1131 824 LINE",
"618 824 LINE",
"618 576 LINE",
"966 576 LINE",
"966 265 LINE",
"787 265 LINE",
"787 0 LINE"
);
},
{
closed = 1;
nodes = (
"1391 965 LINE",
"1391 1062 LINE",
"1126 1327 LINE {name = hr03;}",
"787 1327 LINE",
"787 1062 LINE",
"949 1062 LINE",
"949 965 LINE {name = hr02;}"
);
}
);
userData = {
com.typemytype.robofont.guides = (
{
angle = 135;
isGlobal = 0;
magnetic = 5;
x = 1973;
y = 0;
}
);
};
width = 1541;
}
);
},
{
glyphname = seven.tf;
lastChange = "2022-07-13 01:10:32 +0000";
layers = (
{
layerId = master01;
paths = (
{
closed = 1;
nodes = (
"814 0 LINE",
"1215 994 LINE",
"791 994 LINE",
"346 0 LINE {name = hr00;}"
);
},
{
closed = 1;
nodes = (
"485 860 LINE",
"485 1062 LINE",
"1247 1062 LINE",
"1247 1327 LINE",
"183 1327 LINE",
"52 1194 LINE",
"52 860 LINE"
);
}
);
width = 1541;
}
);
},
{
glyphname = eight.tf;
lastChange = "2022-07-13 02:57:50 +0000";
layers = (
{
layerId = master01;
paths = (
{
closed = 1;
nodes = (
"738 0 LINE",
"738 265 LINE",
"546 265 LINE",
"546 548 LINE {name = hr00;}",
"738 548 LINE",
"738 796 LINE",
"546 796 LINE",
"546 1062 LINE",
"738 1062 LINE",
"738 1327 LINE",
"374 1327 LINE",
"108 1062 LINE",
"108 802 LINE",
"267 672 LINE",
"108 541 LINE",
"108 265 LINE",
"374 0 LINE"
);
},
{
closed = 1;
nodes = (
"1433 264 LINE",
"1433 538 LINE",
"1275 671 LINE",
"1433 804 LINE",
"1433 1062 LINE {name = \"\";}",
"1168 1327 LINE",
"808 1327 LINE",
"808 1062 LINE",
"1013 1062 LINE",
"1013 796 LINE",
"808 796 LINE",
"808 548 LINE",
"1013 548 LINE",
"1013 265 LINE",
"808 265 LINE",
"808 0 LINE",
"1168 0 LINE"
);
}
);
userData = {
com.typemytype.robofont.guides = (
{
angle = 135;
isGlobal = 0;
magnetic = 5;
x = 2494;
y = 0;
}
);
};
width = 1541;
}
);
},
{
glyphname = nine.tf;
lastChange = "2022-07-13 01:10:32 +0000";
layers = (
{
layerId = master01;
paths = (
{
closed = 1;
nodes = (
"1126 0 LINE",
"1391 265 LINE",
"1391 1062 LINE",
"1126 1327 LINE",
"783 1327 LINE",
"783 1062 LINE",
"949 1062 LINE",
"949 265 LINE {name = hr01;}",
"783 265 LINE",
"783 0 LINE"
);
},
{
closed = 1;
nodes = (
"715 0 LINE",
"715 265 LINE",
"550 265 LINE",
"550 354 LINE {name = hr02;}",
"108 354 LINE",
"108 265 LINE",
"374 0 LINE {name = hr03;}"
);
},
{
closed = 1;
nodes = (
"881 496 LINE",
"881 762 LINE",
"550 762 LINE",
"550 1062 LINE",
"715 1062 LINE",
"715 1327 LINE",
"374 1327 LINE",
"108 1062 LINE",
"108 762 LINE",
"374 496 LINE"
);
}
);
width = 1541;
}
);
},
{
glyphname = onesuperior;
lastChange = "2022-07-12 18:15:55 +0000";
layers = (
{
layerId = master01;
paths = (
{
closed = 1;
nodes = (
"632 651 LINE",
"632 1327 LINE {name = hr00;}",
"142 1327 LINE",
"142 1141 LINE",
"297 1141 LINE",
"297 651 LINE"
);
},
{
closed = 1;
nodes = (
"778 398 LINE",
"778 584 LINE",
"142 584 LINE",
"142 398 LINE"
);
}
);
width = 902;
}
);
unicode = 00B9;
},
{
glyphname = twosuperior;
lastChange = "2022-07-12 16:17:08 +0000";
layers = (
{
layerId = master01;
paths = (
{
closed = 1;
nodes = (
"424 398 LINE",
"424 738 LINE {name = hr01;}",
"809 738 LINE",
"994 924 LINE",
"994 1141 LINE",
"791 1327 LINE",
"667 1327 LINE",
"667 924 LINE",
"283 924 LINE",
"97 738 LINE",
"97 398 LINE"
);
},
{
closed = 1;
nodes = (
"1012 398 LINE",
"1012 584 LINE",
"485 584 LINE",
"485 398 LINE"
);
},
{
closed = 1;
nodes = (
"407 1047 LINE",
"407 1141 LINE {name = hr03;}",
"597 1141 LINE",
"597 1327 LINE",
"283 1327 LINE",
"97 1141 LINE {name = hr02;}",
"97 1047 LINE"
);
}
);
width = 1083;
}
);
unicode = 00B2;
},
{
glyphname = threesuperior;
lastChange = "2022-07-12 16:17:08 +0000";
layers = (
{
layerId = master01;
paths = (
{
closed = 1;
nodes = (
"792 398 LINE {name = hr01;}",
"978 582 LINE",
"978 772 LINE",
"886 861 LINE",
"978 956 LINE",
"978 1145 LINE",
"792 1327 LINE",
"665 1327 LINE",
"665 956 LINE",
"359 956 LINE",
"359 772 LINE",
"665 772 LINE",
"665 398 LINE"
);
},
{
closed = 1;
nodes = (
"598 398 LINE",
"598 582 LINE",
"389 582 LINE",
"389 677 LINE {name = hr02;}",
"79 677 LINE",
"79 582 LINE",
"265 398 LINE {name = hr03;}"
);
},
{
closed = 1;
nodes = (
"389 1047 LINE",
"389 1141 LINE",
"598 1141 LINE",
"598 1327 LINE",
"265 1327 LINE",
"79 1141 LINE",
"79 1047 LINE"
);
}
);
width = 1076;
}
);
unicode = 00B3;
},
{
glyphname = foursuperior;
lastChange = "2022-07-12 18:16:22 +0000";
layers = (
{
layerId = master01;
paths = (
{
closed = 1;
nodes = (
"844 398 LINE",
"844 537 LINE",
"989 537 LINE",
"989 707 LINE",
"844 707 LINE",
"844 1327 LINE",
"535 1327 LINE",
"535 398 LINE"
);
},
{
closed = 1;
nodes = (
"468 537 LINE",
"468 707 LINE",
"310 707 LINE",
"468 869 LINE",
"468 1237 LINE",
"13 707 LINE",
"13 537 LINE"
);
}
);
width = 1044;
}
);
leftMetricsKey = four;
rightMetricsKey = four;
unicode = 2074;
},
{
glyphname = fraction;
layers = (
{
layerId = master01;
paths = (
{
closed = 1;
nodes = (
"250 0 LINE",
"729 1327 LINE",
"480 1327 LINE",
"0 0 LINE {name = hr00;}"
);
}
);
width = 729;
}
);
unicode = 2044;
},
{
glyphname = onehalf;
lastChange = "2022-07-12 16:17:08 +0000";
layers = (
{
components = (
{
name = twosuperior;
transform = "{1, 0, 0, 1, 1389, -383}";
}
);
layerId = master01;
paths = (
{
closed = 1;
nodes = (
"1037 0 LINE",
"1516 1327 LINE",
"1267 1327 LINE",
"787 0 LINE {name = hr00;}"
);
},
{
closed = 1;
nodes = (
"805 398 LINE",
"805 584 LINE",
"186 584 LINE",
"186 398 LINE"
);
},
{
closed = 1;
nodes = (
"649 651 LINE",
"649 1327 LINE",
"186 1327 LINE",
"186 1141 LINE",
"340 1141 LINE",
"340 651 LINE"
);
}
);
width = 2550;
}
);
unicode = 00BD;
},
{
glyphname = onequarter;
lastChange = "2022-07-12 16:17:08 +0000";
layers = (
{
layerId = master01;
paths = (
{
closed = 1;
nodes = (
"1037 0 LINE",
"1516 1327 LINE",
"1268 1327 LINE",
"789 0 LINE {name = hr00;}"
);
},
{
closed = 1;
nodes = (
"805 398 LINE",
"805 584 LINE",
"186 584 LINE",
"186 398 LINE"
);
},
{
closed = 1;
nodes = (
"649 651 LINE",
"649 1327 LINE",
"186 1327 LINE",
"186 1141 LINE",
"341 1141 LINE",
"341 651 LINE"
);
},
{
closed = 1;
nodes = (
"1769 139 LINE",
"1769 309 LINE",
"1611 309 LINE",
"1769 471 LINE",
"1769 839 LINE",
"1314 309 LINE",
"1314 139 LINE"
);
},
{
closed = 1;
nodes = (
"2145 0 LINE",
"2145 139 LINE",
"2290 139 LINE",
"2290 309 LINE",
"2145 309 LINE",
"2145 929 LINE",
"1836 929 LINE",
"1836 0 LINE"
);
}
);
width = 2398;
}
);
unicode = 00BC;
},
{
glyphname = threequarters;
lastChange = "2022-07-12 16:17:08 +0000";
layers = (
{
components = (
{
name = threesuperior;
}
);
layerId = master01;
paths = (
{
closed = 1;
nodes = (
"1166 0 LINE",
"1645 1327 LINE",
"1395 1327 LINE",
"916 0 LINE {name = hr00;}"
);
},
{
closed = 1;
nodes = (
"1915 139 LINE",
"1915 309 LINE",
"1757 309 LINE",
"1915 471 LINE",
"1915 839 LINE",
"1460 309 LINE",
"1460 139 LINE"
);
},
{
closed = 1;
nodes = (
"2291 0 LINE",
"2291 139 LINE",
"2436 139 LINE",
"2436 309 LINE",
"2291 309 LINE",
"2291 929 LINE",
"1982 929 LINE",
"1982 0 LINE"
);
}
);
width = 2519;
}
);
unicode = 00BE;
},
{
glyphname = period;
layers = (
{
layerId = master01;
paths = (
{
closed = 1;
nodes = (
"589 0 LINE",
"589 309 LINE",
"147 309 LINE",
"147 0 LINE {name = hr00;}"
);
}
);
width = 736;
}
);
unicode = 002E;
},
{
glyphname = comma;
lastChange = "2022-07-12 16:17:08 +0000";
layers = (
{
layerId = master01;
paths = (
{
closed = 1;
nodes = (
"412 -265 LINE",
"589 0 LINE",
"589 309 LINE",
"147 309 LINE",
"147 0 LINE {name = hr00;}",
"270 0 LINE",
"147 -265 LINE"
);
}
);
width = 736;
}
);
unicode = 002C;
},
{
glyphname = exclam;
lastChange = "2022-07-12 16:17:08 +0000";
layers = (
{
layerId = master01;
paths = (
{
closed = 1;
nodes = (
"584 442 LINE",
"612 1327 LINE {name = hr00;}",
"142 1327 LINE",
"169 442 LINE"
);
},
{
closed = 1;
nodes = (
"598 0 LINE",
"598 309 LINE",
"156 309 LINE",
"156 0 LINE"
);
}
);
width = 753;
}
);
unicode = 0021;
},
{
glyphname = question;
lastChange = "2022-07-12 23:32:51 +0000";
layers = (
{
layerId = master01;
paths = (
{
closed = 1;
nodes = (
"872 442 LINE",
"872 566 LINE {name = hr04;}",
"1062 566 LINE",
"1327 832 LINE",
"1327 1062 LINE",
"1062 1327 LINE",
"345 1327 LINE {name = hr01;}",
"79 1062 LINE {name = \"\";}",
"79 929 LINE",
"522 929 LINE",
"522 1062 LINE",
"885 1062 LINE",
"885 832 LINE {name = hr02;}",
"694 832 LINE",
"428 566 LINE {name = hr03;}",
"428 442 LINE"
);
},
{
closed = 1;
nodes = (
"872 0 LINE",
"872 309 LINE",
"428 309 LINE",
"428 0 LINE"
);
}
);
width = 1407;
}
);
unicode = 003F;
},
{
glyphname = periodcentered;
lastChange = "2022-07-12 17:53:15 +0000";
layers = (
{
anchors = (
{
name = _center;
position = "{358, 692}";
}
);
layerId = master01;
paths = (
{
closed = 1;
nodes = (
"450 464 LINE",
"583 596 LINE",
"583 773 LINE",
"450 906 LINE",
"273 906 LINE",
"141 773 LINE {name = hr00;}",
"141 596 LINE",
"273 464 LINE"
);
}
);
width = 725;
}
);
unicode = 00B7;
},
{
glyphname = bullet;
lastChange = "2022-07-12 16:17:08 +0000";
layers = (
{
layerId = master01;
paths = (
{
closed = 1;
nodes = (
"592 346 LINE",
"768 524 LINE",
"768 789 LINE",
"592 966 LINE",
"326 966 LINE",
"149 789 LINE {name = hr00;}",
"149 524 LINE",
"326 346 LINE"
);
}
);
width = 918;
}
);
unicode = 2022;
},
{
glyphname = asterisk;
lastChange = "2022-07-12 16:17:08 +0000";
layers = (
{
layerId = master01;
paths = (
{
closed = 1;
nodes = (
"696 678 LINE",
"912 461 LINE {name = hr00;}",
"1102 598 LINE",
"960 871 LINE",
"1231 1008 LINE",
"1159 1233 LINE",
"857 1184 LINE",
"811 1481 LINE",
"578 1481 LINE",
"531 1184 LINE",
"232 1230 LINE",
"161 1008 LINE",
"429 871 LINE",
"289 600 LINE",
"480 461 LINE"
);
}
);
width = 1392;
}
);
unicode = 002A;
},
{
glyphname = numbersign;
lastChange = "2022-07-12 16:17:08 +0000";
layers = (
{
layerId = master01;
paths = (
{
closed = 1;
nodes = (
"649 0 LINE",
"674 285 LINE",
"886 285 LINE",
"907 522 LINE",
"696 522 LINE",
"718 805 LINE {name = hr00;}",
"932 805 LINE",
"954 1042 LINE",
"740 1042 LINE",
"764 1327 LINE",
"527 1327 LINE",
"502 1042 LINE",
"253 1042 LINE",
"232 805 LINE",
"481 805 LINE",
"456 522 LINE",
"206 522 LINE",
"186 285 LINE",
"437 285 LINE",
"412 0 LINE"
);
},
{
closed = 1;
nodes = (
"1169 0 LINE",
"1194 285 LINE",
"1445 285 LINE",
"1467 522 LINE",
"1216 522 LINE",
"1240 805 LINE",
"1491 805 LINE",
"1513 1042 LINE",
"1260 1042 LINE",
"1285 1327 LINE",
"1047 1327 LINE",
"932 0 LINE"
);
}
);
width = 1699;
}
);
unicode = 0023;
},
{
glyphname = slash;
layers = (
{
layerId = master01;
paths = (
{
closed = 1;
nodes = (
"169 -196 LINE",
"782 1418 LINE",
"532 1418 LINE",
"-80 -196 LINE {name = hr00;}"
);
}
);
width = 746;
}
);
unicode = 002F;
},
{
glyphname = parenleft;
lastChange = "2022-07-12 16:17:08 +0000";
layers = (
{
layerId = master01;
paths = (
{
closed = 1;
nodes = (
"836 -142 LINE",
"836 124 LINE",
"672 124 LINE",
"672 1204 LINE {name = hr00;}",
"836 1204 LINE",
"836 1469 LINE",
"495 1469 LINE",
"238 1204 LINE",
"238 124 LINE",
"495 -142 LINE"
);
}
);
width = 978;
}
);
unicode = 0028;
},
{
glyphname = braceleft;
lastChange = "2022-07-12 16:17:08 +0000";
layers = (
{
layerId = master01;
paths = (
{
closed = 1;
nodes = (
"828 -142 LINE",
"828 124 LINE",
"664 124 LINE",
"664 510 LINE",
"520 684 LINE",
"664 817 LINE",
"664 1204 LINE {name = hr00;}",
"828 1204 LINE",
"828 1469 LINE",
"495 1469 LINE",
"230 1204 LINE",
"230 817 LINE",
"87 664 LINE",
"230 510 LINE",
"230 124 LINE",
"495 -142 LINE"
);
}
);
width = 978;
}
);
unicode = 007B;
},
{
glyphname = bracketleft;
lastChange = "2022-07-12 16:17:08 +0000";
layers = (
{
layerId = master01;
paths = (
{
closed = 1;
nodes = (
"836 -142 LINE",
"836 124 LINE",
"672 124 LINE",
"672 1204 LINE {name = hr00;}",
"836 1204 LINE",
"836 1469 LINE",
"274 1469 LINE",
"274 -142 LINE"
);
}
);
width = 978;
}
);
unicode = 005B;
},
{
glyphname = hyphen;
layers = (
{
layerId = master01;
paths = (
{
closed = 1;
nodes = (
"1069 501 LINE",
"1069 740 LINE",
"186 740 LINE",
"186 501 LINE {name = hr00;}"
);
}
);
width = 1255;
}
);
unicode = 002D;
},
{
glyphname = endash;
layers = (
{
layerId = master01;
paths = (
{
closed = 1;
nodes = (
"1437 501 LINE",
"1437 740 LINE",
"186 740 LINE",
"186 501 LINE {name = hr00;}"
);
}
);
width = 1623;
}
);
unicode = 2013;
},
{
glyphname = emdash;
layers = (
{
layerId = master01;
paths = (
{
closed = 1;
nodes = (
"1805 501 LINE",
"1805 740 LINE",
"186 740 LINE",
"186 501 LINE {name = hr00;}"
);
}
);
width = 1991;
}
);
unicode = 2014;
},
{
glyphname = underscore;
layers = (
{
layerId = master01;
paths = (
{
closed = 1;
nodes = (
"1417 -393 LINE",
"1417 -200 LINE",
"-86 -200 LINE",
"-86 -393 LINE {name = hr00;}"
);
}
);
width = 1331;
}
);
unicode = 005F;
},
{
glyphname = quoteleft;
lastChange = "2022-07-12 16:17:08 +0000";
layers = (
{
layerId = master01;
paths = (
{
closed = 1;
nodes = (
"650 752 LINE",
"650 1062 LINE {name = hr00;}",
"482 1062 LINE",
"607 1327 LINE",
"340 1327 LINE",
"164 1062 LINE",
"164 752 LINE"
);
}
);
width = 814;
}
);
unicode = 2018;
},
{
glyphname = guilsinglleft;
lastChange = "2022-07-12 21:04:42 +0000";
layers = (
{
layerId = master01;
paths = (
{
closed = 1;
nodes = (
"622 27 LINE",
"887 27 LINE",
"606 536 LINE",
"887 1045 LINE",
"622 1045 LINE",
"202 613 LINE",
"202 459 LINE {name = hr00;}"
);
}
);
width = 1090;
}
);
unicode = 2039;
},
{
glyphname = guilsinglright;
lastChange = "2022-07-12 21:04:29 +0000";
layers = (
{
layerId = master01;
paths = (
{
closed = 1;
nodes = (
"887 613 LINE",
"467 1045 LINE",
"202 1045 LINE",
"483 536 LINE",
"202 27 LINE",
"467 27 LINE",
"887 459 LINE {name = hr00;}"
);
}
);
width = 1090;
}
);
unicode = 203A;
},
{
glyphname = quotesingle;
layers = (
{
layerId = master01;
paths = (
{
closed = 1;
nodes = (
"545 664 LINE",
"592 1327 LINE",
"181 1327 LINE",
"227 664 LINE {name = hr00;}"
);
}
);
width = 773;
}
);
unicode = 0027;
},
{
glyphname = .notdef;
lastChange = "2022-07-13 01:10:32 +0000";
layers = (
{
layerId = master01;
paths = (
{
closed = 1;
nodes = (
"1674 -168 LINE",
"1674 1443 LINE",
"162 1443 LINE",
"162 -168 LINE"
);
},
{
closed = 1;
nodes = (
"440 310 LINE {name = hr00;}",
"755 621 LINE",
"442 932 LINE",
"607 1102 LINE",
"918 786 LINE",
"1229 1101 LINE",
"1394 933 LINE",
"1081 623 LINE",
"1396 312 LINE",
"1229 142 LINE",
"917 457 LINE",
"604 142 LINE"
);
}
);
width = 1837;
}
);
},
{
glyphname = "dram-arm";
lastChange = "2022-07-12 18:30:21 +0000";
layers = (
{
layerId = master01;
paths = (
{
closed = 1;
nodes = (
"1348 0 LINE {name = hr00;}",
"1348 1062 LINE",
"1083 1327 LINE",
"782 1327 LINE",
"782 1062 LINE",
"906 1062 LINE",
"906 0 LINE"
);
},
{
closed = 1;
nodes = (
"1472 182 LINE",
"1472 314 LINE",
"648 314 LINE",
"648 182 LINE"
);
},
{
closed = 1;
nodes = (
"549 767 LINE",
"549 1062 LINE",
"712 1062 LINE",
"712 1327 LINE",
"372 1327 LINE",
"106 1062 LINE",
"106 767 LINE"
);
},
{
closed = 1;
nodes = (
"1472 450 LINE",
"1472 582 LINE",
"648 582 LINE",
"648 450 LINE"
);
}
);
width = 1522;
}
);
unicode = 058F;
},
{
glyphname = cedi;
lastChange = "2022-07-12 18:34:35 +0000";
layers = (
{
layerId = master01;
paths = (
{
closed = 1;
nodes = (
"539 0 LINE",
"539 1327 LINE {name = hr00;}",
"363 1327 LINE",
"97 1062 LINE",
"97 265 LINE",
"363 0 LINE"
);
},
{
closed = 1;
nodes = (
"908 -179 LINE",
"907 125 LINE",
"609 125 LINE",
"609 -179 LINE"
);
},
{
closed = 1;
nodes = (
"1080 0 LINE",
"1345 265 LINE",
"1345 459 LINE",
"903 459 LINE",
"903 265 LINE",
"609 265 LINE",
"609 0 LINE"
);
},
{
closed = 1;
nodes = (
"1345 795 LINE",
"1345 1062 LINE",
"1080 1327 LINE",
"609 1327 LINE",
"609 1062 LINE",
"903 1062 LINE",
"903 795 LINE"
);
},
{
closed = 1;
nodes = (
"908 1172 LINE",
"907 1476 LINE",
"609 1476 LINE",
"609 1172 LINE"
);
}
);
width = 1440;
}
);
unicode = 20B5;
},
{
glyphname = cent;
lastChange = "2022-07-12 16:17:08 +0000";
layers = (
{
layerId = master01;
paths = (
{
closed = 1;
nodes = (
"870 -17 LINE",
"870 398 LINE {name = hr02;}",
"672 398 LINE {name = hr03;}",
"672 1194 LINE",
"495 1194 LINE",
"230 929 LINE",
"230 398 LINE",
"495 133 LINE",
"605 133 LINE {name = hr04;}",
"605 -17 LINE {name = hr01;}"
);
},
{
closed = 1;
nodes = (
"1115 133 LINE",
"1380 398 LINE",
"1380 530 LINE",
"937 530 LINE",
"937 133 LINE"
);
},
{
closed = 1;
nodes = (
"1380 797 LINE",
"1380 929 LINE",
"1115 1194 LINE {name = hr06;}",
"1005 1194 LINE",
"1005 1344 LINE",
"740 1344 LINE",
"740 929 LINE",
"937 929 LINE",
"937 797 LINE {name = hr05;}"
);
}
);
width = 1610;
}
);
unicode = 00A2;
},
{
glyphname = colonsign;
lastChange = "2022-07-12 18:34:35 +0000";
layers = (
{
layerId = master01;
paths = (
{
closed = 1;
nodes = (
"539 0 LINE",
"539 1327 LINE {name = hr00;}",
"363 1327 LINE",
"97 1062 LINE",
"97 265 LINE",
"363 0 LINE"
);
},
{
closed = 1;
nodes = (
"778 -179 LINE",
"777 125 LINE",
"609 125 LINE",
"609 -179 LINE"
);
},
{
closed = 1;
nodes = (
"1077 -179 LINE",
"1076 125 LINE",
"908 125 LINE",
"908 -179 LINE"
);
},
{
closed = 1;
nodes = (
"1080 0 LINE",
"1345 265 LINE",
"1345 459 LINE",
"903 459 LINE",
"903 265 LINE",
"609 265 LINE",
"609 0 LINE"
);
},
{
closed = 1;
nodes = (
"778 1172 LINE",
"777 1476 LINE",
"609 1476 LINE",
"609 1172 LINE"
);
},
{
closed = 1;
nodes = (
"1345 795 LINE",
"1345 1062 LINE",
"1080 1327 LINE",
"609 1327 LINE",
"609 1062 LINE",
"903 1062 LINE",
"903 795 LINE"
);
},
{
closed = 1;
nodes = (
"1077 1172 LINE",
"1076 1476 LINE",
"908 1476 LINE",
"908 1172 LINE"
);
}
);
width = 1200;
}
);
unicode = 20A1;
},
{
glyphname = currency;
lastChange = "2022-07-12 16:17:08 +0000";
layers = (
{
layerId = master01;
paths = (
{
closed = 1;
nodes = (
"449 262 LINE",
"543 168 LINE",
"696 168 LINE",
"696 417 LINE",
"485 417 LINE",
"485 628 LINE",
"244 628 LINE",
"244 466 LINE",
"329 382 LINE",
"110 157 LINE",
"225 42 LINE"
);
},
{
closed = 1;
nodes = (
"1351 157 LINE",
"1140 373 LINE",
"1235 466 LINE",
"1235 628 LINE",
"994 628 LINE",
"994 417 LINE",
"778 417 LINE",
"778 168 LINE",
"936 168 LINE",
"1020 255 LINE",
"1235 42 LINE"
);
},
{
closed = 1;
nodes = (
"485 709 LINE",
"485 906 LINE {name = hr00;}",
"696 906 LINE",
"696 1159 LINE",
"543 1159 LINE",
"449 1065 LINE",
"225 1285 LINE",
"110 1168 LINE",
"329 945 LINE",
"244 861 LINE",
"244 709 LINE"
);
},
{
closed = 1;
nodes = (
"1235 709 LINE",
"1235 861 LINE",
"1140 954 LINE",
"1351 1168 LINE",
"1235 1285 LINE",
"1020 1072 LINE",
"936 1159 LINE",
"778 1159 LINE",
"778 906 LINE",
"994 906 LINE",
"994 709 LINE"
);
}
);
userData = {
com.typemytype.robofont.guides = (
{
angle = 90;
isGlobal = 0;
magnetic = 5;
x = 1101;
y = 0;
}
);
};
width = 1461;
}
);
unicode = 00A4;
},
{
glyphname = dollar;
lastChange = "2022-07-12 16:17:08 +0000";
layers = (
{
layerId = master01;
paths = (
{
closed = 1;
nodes = (
"1248 0 LINE",
"1513 265 LINE",
"1513 530 LINE",
"1248 797 LINE",
"672 797 LINE",
"672 1327 LINE {name = hr01;}",
"495 1327 LINE",
"230 1062 LINE",
"230 797 LINE",
"495 530 LINE",
"1070 530 LINE",
"1070 0 LINE"
);
},
{
closed = 1;
nodes = (
"1003 -157 LINE",
"1003 265 LINE",
"672 265 LINE",
"672 398 LINE {name = hr02;}",
"230 398 LINE",
"230 265 LINE",
"495 0 LINE {name = hr03;}",
"701 0 LINE",
"701 -157 LINE"
);
},
{
closed = 1;
nodes = (
"1513 929 LINE",
"1513 1062 LINE",
"1248 1327 LINE {name = hr05;}",
"1039 1327 LINE",
"1039 1476 LINE",
"740 1476 LINE",
"740 1062 LINE",
"1070 1062 LINE",
"1070 929 LINE {name = hr04;}"
);
}
);
userData = {
com.typemytype.robofont.guides = (
{
angle = 90;
isGlobal = 0;
magnetic = 5;
x = 1203;
y = 0;
},
{
angle = 90;
isGlobal = 0;
magnetic = 5;
x = 805;
y = 0;
}
);
};
width = 1743;
}
);
unicode = 0024;
},
{
glyphname = euro;
lastChange = "2022-07-12 18:23:42 +0000";
layers = (
{
layerId = master01;
paths = (
{
closed = 1;
nodes = (
"768 0 LINE",
"768 474 LINE",
"1030 474 LINE",
"1030 616 LINE",
"768 616 LINE",
"768 763 LINE",
"1057 763 LINE",
"1057 905 LINE",
"768 905 LINE",
"768 1375 LINE",
"591 1375 LINE",
"326 1109 LINE",
"326 905 LINE",
"204 905 LINE",
"204 763 LINE {name = hr00;}",
"326 763 LINE",
"326 616 LINE",
"187 616 LINE",
"187 474 LINE",
"326 474 LINE",
"326 265 LINE",
"591 0 LINE"
);
},
{
closed = 1;
nodes = (
"1343 0 LINE",
"1608 265 LINE",
"1608 474 LINE",
"1166 474 LINE",
"1166 265 LINE",
"835 265 LINE",
"835 0 LINE"
);
},
{
closed = 1;
nodes = (
"1608 900 LINE",
"1608 1109 LINE",
"1343 1375 LINE",
"835 1375 LINE",
"835 1109 LINE",
"1166 1109 LINE",
"1166 900 LINE"
);
}
);
width = 1838;
}
);
unicode = 20AC;
},
{
glyphname = florin;
lastChange = "2022-07-12 16:17:08 +0000";
layers = (
{
layerId = master01;
paths = (
{
closed = 1;
nodes = (
"611 -340 LINE",
"813 1202 LINE",
"1133 1202 LINE {name = hr00;}",
"1167 1467 LINE",
"671 1467 LINE",
"372 1219 LINE",
"329 843 LINE",
"224 843 LINE",
"190 578 LINE",
"295 578 LINE",
"168 -340 LINE"
);
},
{
closed = 1;
nodes = (
"1058 578 LINE",
"1092 843 LINE",
"842 843 LINE",
"805 578 LINE"
);
}
);
width = 1194;
}
);
unicode = 0192;
},
{
glyphname = hryvnia;
lastChange = "2022-07-12 18:34:35 +0000";
layers = (
{
layerId = master01;
paths = (
{
closed = 1;
nodes = (
"540 0 LINE",
"540 497 LINE",
"1114 497 LINE",
"1380 763 LINE",
"1380 1062 LINE",
"1114 1327 LINE",
"964 1327 LINE",
"964 856 LINE",
"354 856 LINE",
"97 590 LINE",
"97 265 LINE",
"362 0 LINE {name = hr00;}"
);
},
{
closed = 1;
nodes = (
"1157 0 LINE",
"1380 265 LINE",
"1380 368 LINE",
"938 368 LINE",
"938 240 LINE",
"610 240 LINE",
"610 0 LINE"
);
},
{
closed = 1;
nodes = (
"1503 458 LINE",
"1503 590 LINE",
"-14 590 LINE",
"-14 458 LINE"
);
},
{
closed = 1;
nodes = (
"1503 726 LINE",
"1503 858 LINE",
"-14 858 LINE",
"-14 726 LINE"
);
},
{
closed = 1;
nodes = (
"540 955 LINE",
"540 1088 LINE",
"894 1088 LINE",
"894 1327 LINE",
"363 1327 LINE",
"133 1096 LINE",
"133 955 LINE"
);
}
);
width = 1477;
}
);
unicode = 20B4;
},
{
glyphname = kip;
lastChange = "2022-07-12 18:34:30 +0000";
layers = (
{
anchors = (
{
name = bottom;
position = "{685, 0}";
},
{
name = btm;
position = "{736, 0}";
},
{
name = top;
position = "{736, 1530}";
}
);
layerId = master01;
paths = (
{
closed = 1;
nodes = (
"1397 1327 LINE",
"937 1326 LINE",
"627 833 LINE",
"627 188 LINE"
);
},
{
closed = 1;
nodes = (
"222 578 LINE",
"256 843 LINE",
"6 843 LINE",
"-31 578 LINE"
);
},
{
closed = 1;
nodes = (
"559 0 LINE {name = hr00;}",
"559 1327 LINE",
"117 1327 LINE",
"117 0 LINE"
);
},
{
closed = 1;
nodes = (
"1418 0 LINE",
"1127 558 LINE",
"1292 578 LINE",
"1326 843 LINE",
"1146 843 LINE",
"790 309 LINE",
"940 0 LINE"
);
}
);
width = 1370;
}
);
unicode = 20AD;
},
{
glyphname = lira;
lastChange = "2022-07-12 18:35:03 +0000";
layers = (
{
layerId = master01;
paths = (
{
closed = 1;
nodes = (
"849 0 LINE",
"849 1416 LINE {name = hr00;}",
"672 1416 LINE",
"407 1151 LINE",
"407 265 LINE",
"407 264 LINE",
"230 265 LINE",
"230 0 LINE"
);
},
{
closed = 1;
nodes = (
"1513 0 LINE",
"1513 264 LINE",
"917 265 LINE",
"917 0 LINE"
);
},
{
closed = 1;
nodes = (
"1504 1020 LINE",
"1504 1151 LINE",
"1239 1416 LINE",
"917 1416 LINE",
"917 1151 LINE",
"1105 1151 LINE",
"1105 1020 LINE"
);
},
{
closed = 1;
nodes = (
"1062 409 LINE",
"1062 541 LINE",
"238 541 LINE",
"238 409 LINE"
);
},
{
closed = 1;
nodes = (
"1062 677 LINE",
"1062 809 LINE",
"238 809 LINE",
"238 677 LINE"
);
}
);
width = 1743;
}
);
unicode = 20A4;
},
{
glyphname = liraTurkish;
lastChange = "2022-07-12 20:19:35 +0000";
layers = (
{
layerId = master01;
paths = (
{
closed = 1;
nodes = (
"106 1327 LINE {name = hr00;}",
"106 0 LINE",
"672 0 LINE",
"672 265 LINE",
"548 265 LINE",
"548 1327 LINE"
);
},
{
closed = 1;
nodes = (
"905 560 LINE",
"905 265 LINE",
"742 265 LINE",
"742 0 LINE",
"1082 0 LINE",
"1348 265 LINE",
"1348 560 LINE"
);
},
{
closed = 1;
nodes = (
"784 765 LINE",
"784 897 LINE",
"-40 500 LINE",
"-40 368 LINE"
);
},
{
closed = 1;
nodes = (
"784 1033 LINE",
"784 1165 LINE",
"-40 768 LINE",
"-40 636 LINE"
);
}
);
width = 1200;
}
);
unicode = 20BA;
},
{
glyphname = manat;
lastChange = "2022-07-12 18:36:09 +0000";
layers = (
{
layerId = master01;
paths = (
{
closed = 1;
nodes = (
"868 1590 LINE",
"633 1590 LINE",
"633 1327 LINE",
"371 1327 LINE",
"106 1062 LINE",
"106 0 LINE",
"508 0 LINE",
"508 1062 LINE",
"633 1062 LINE",
"633 0 LINE",
"860 0 LINE",
"860 1062 LINE",
"985 1062 LINE",
"985 0 LINE",
"1388 0 LINE",
"1388 1062 LINE",
"1122 1327 LINE",
"868 1327 LINE"
);
}
);
width = 1495;
}
);
unicode = 20BC;
},
{
glyphname = naira;
lastChange = "2022-07-12 18:36:44 +0000";
layers = (
{
anchors = (
{
name = bottom;
position = "{971, 0}";
},
{
name = btm;
position = "{957, 0}";
},
{
name = top;
position = "{961, 1529}";
}
);
layerId = master01;
paths = (
{
closed = 1;
nodes = (
"439 578 LINE",
"473 843 LINE",
"223 843 LINE",
"186 578 LINE"
);
},
{
closed = 1;
nodes = (
"1724 578 LINE",
"1758 843 LINE",
"1508 843 LINE",
"1471 578 LINE"
);
},
{
closed = 1;
nodes = (
"1608 0 LINE",
"801 1327 LINE {name = hr00;}",
"334 1327 LINE",
"1138 0 LINE"
);
},
{
closed = 1;
nodes = (
"719 0 LINE",
"719 570 LINE",
"334 1201 LINE",
"334 0 LINE"
);
},
{
closed = 1;
nodes = (
"1608 1327 LINE",
"1223 1327 LINE",
"1223 760 LINE",
"1608 126 LINE"
);
}
);
width = 1944;
}
);
leftMetricsKey = hyphen;
rightMetricsKey = "=|";
unicode = 20A6;
},
{
glyphname = peseta;
lastChange = "2022-07-12 20:15:53 +0000";
layers = (
{
anchors = (
{
name = bottom;
position = "{729, 0}";
},
{
name = top;
position = "{768, 1530}";
}
);
layerId = master01;
paths = (
{
closed = 1;
nodes = (
"1115 341 LINE",
"1380 607 LINE",
"1380 1062 LINE",
"1115 1327 LINE",
"619 1327 LINE",
"619 1062 LINE",
"940 1062 LINE",
"940 607 LINE",
"619 607 LINE",
"619 341 LINE"
);
},
{
closed = 1;
nodes = (
"549 0 LINE {name = hr00;}",
"549 1327 LINE",
"115 1327 LINE",
"115 0 LINE"
);
},
{
closed = 1;
nodes = (
"222 711 LINE",
"256 976 LINE",
"6 976 LINE",
"-31 711 LINE"
);
},
{
closed = 1;
nodes = (
"1516 711 LINE",
"1550 976 LINE",
"1300 976 LINE",
"1263 711 LINE"
);
}
);
width = 1458;
}
);
unicode = 20A7;
},
{
glyphname = peso;
lastChange = "2022-07-12 20:16:26 +0000";
layers = (
{
anchors = (
{
name = bottom;
position = "{729, 0}";
},
{
name = top;
position = "{768, 1530}";
}
);
layerId = master01;
paths = (
{
closed = 1;
nodes = (
"1115 213 LINE",
"1380 479 LINE",
"1380 1062 LINE",
"1115 1327 LINE",
"619 1327 LINE",
"619 1062 LINE",
"940 1062 LINE",
"940 479 LINE",
"619 479 LINE",
"619 213 LINE"
);
},
{
closed = 1;
nodes = (
"549 0 LINE {name = hr00;}",
"549 1327 LINE",
"115 1327 LINE",
"115 0 LINE"
);
},
{
closed = 1;
nodes = (
"1503 571 LINE",
"1503 703 LINE",
"-14 703 LINE",
"-14 571 LINE"
);
},
{
closed = 1;
nodes = (
"1503 839 LINE",
"1503 971 LINE",
"-14 971 LINE",
"-14 839 LINE"
);
}
);
width = 1458;
}
);
unicode = 20B1;
},
{
glyphname = ruble;
lastChange = "2022-07-12 20:22:52 +0000";
layers = (
{
background = {
paths = (
{
closed = 1;
nodes = (
"1115 421 LINE",
"1380 687 LINE",
"1380 1062 LINE",
"1115 1327 LINE",
"619 1327 LINE",
"619 1062 LINE",
"940 1062 LINE",
"940 687 LINE",
"619 687 LINE",
"619 421 LINE"
);
},
{
closed = 1;
nodes = (
"549 0 LINE {name = hr00;}",
"549 1327 LINE",
"115 1327 LINE",
"115 0 LINE"
);
},
{
closed = 1;
nodes = (
"222 761 LINE",
"256 1026 LINE",
"6 1026 LINE",
"-31 761 LINE"
);
},
{
closed = 1;
nodes = (
"222 421 LINE",
"256 686 LINE",
"6 686 LINE",
"-31 421 LINE"
);
}
);
};
layerId = master01;
paths = (
{
closed = 1;
nodes = (
"1115 531 LINE",
"1380 797 LINE",
"1380 1062 LINE",
"1115 1327 LINE",
"619 1327 LINE",
"619 1062 LINE",
"940 1062 LINE",
"940 797 LINE",
"619 797 LINE",
"619 531 LINE"
);
},
{
closed = 1;
nodes = (
"549 0 LINE {name = hr00;}",
"549 1327 LINE",
"115 1327 LINE",
"115 0 LINE"
);
},
{
closed = 1;
nodes = (
"222 531 LINE",
"256 796 LINE",
"6 796 LINE",
"-31 531 LINE"
);
},
{
closed = 1;
nodes = (
"222 151 LINE",
"256 416 LINE",
"6 416 LINE",
"-31 151 LINE"
);
}
);
width = 1200;
}
);
unicode = 20BD;
},
{
glyphname = rupeeIndian;
lastChange = "2022-07-12 20:18:19 +0000";
layers = (
{
anchors = (
{
name = bottom;
position = "{743, 0}";
},
{
name = top;
position = "{780, 1529}";
}
);
layerId = master01;
paths = (
{
closed = 1;
nodes = (
"486 298 LINE",
"870 343 LINE",
"1091 634 LINE",
"1091 1062 LINE",
"825 1327 LINE",
"320 1327 LINE",
"320 1062 LINE",
"652 1062 LINE",
"652 555 LINE",
"320 555 LINE",
"320 298 LINE"
);
},
{
closed = 1;
nodes = (
"1136 0 LINE",
"842 438 LINE",
"416 425 LINE",
"664 0 LINE"
);
},
{
closed = 1;
nodes = (
"1262 693 LINE",
"1296 958 LINE",
"327 958 LINE",
"290 693 LINE"
);
},
{
closed = 1;
nodes = (
"1308 1062 LINE",
"1342 1327 LINE",
"741 1327 LINE",
"704 1062 LINE"
);
}
);
width = 1486;
}
);
unicode = 20B9;
},
{
glyphname = sheqel;
lastChange = "2022-07-12 20:24:56 +0000";
layers = (
{
layerId = master01;
paths = (
{
closed = 1;
nodes = (
"117 0 LINE",
"469 0 LINE",
"469 1198 LINE",
"965 1198 LINE",
"965 413 LINE",
"1235 413 LINE",
"1235 1242 LINE",
"1008 1487 LINE",
"117 1486 LINE"
);
},
{
closed = 1;
nodes = (
"1469 0 LINE",
"1708 246 LINE",
"1708 1486 LINE",
"1356 1486 LINE",
"1356 317 LINE",
"860 317 LINE",
"860 1102 LINE",
"590 1102 LINE",
"590 0 LINE"
);
}
);
width = 1824;
}
);
leftMetricsKey = H;
rightMetricsKey = H;
unicode = 20AA;
},
{
glyphname = sterling;
lastChange = "2022-07-12 16:17:08 +0000";
layers = (
{
layerId = master01;
paths = (
{
closed = 1;
nodes = (
"849 0 LINE",
"849 520 LINE",
"1156 520 LINE",
"1156 708 LINE",
"849 708 LINE",
"849 1416 LINE {name = hr00;}",
"672 1416 LINE",
"407 1151 LINE",
"407 708 LINE",
"230 708 LINE",
"230 520 LINE",
"407 520 LINE",
"407 265 LINE",
"407 264 LINE",
"230 265 LINE",
"230 0 LINE"
);
},
{
closed = 1;
nodes = (
"1513 0 LINE",
"1513 264 LINE",
"917 265 LINE",
"917 0 LINE"
);
},
{
closed = 1;
nodes = (
"1504 1020 LINE",
"1504 1151 LINE",
"1239 1416 LINE",
"917 1416 LINE",
"917 1151 LINE",
"1105 1151 LINE",
"1105 1020 LINE"
);
}
);
width = 1743;
}
);
unicode = 00A3;
},
{
glyphname = tenge;
lastChange = "2022-07-12 20:15:15 +0000";
layers = (
{
anchors = (
{
name = bottom;
position = "{628, 0}";
},
{
name = center;
position = "{628, 664}";
},
{
name = top;
position = "{624, 1529}";
}
);
layerId = master01;
paths = (
{
closed = 1;
nodes = (
"858 0 LINE",
"858 599 LINE",
"398 599 LINE",
"398 0 LINE {name = hr00;}"
);
},
{
closed = 1;
nodes = (
"1204 668 LINE",
"1204 957 LINE",
"52 957 LINE",
"52 668 LINE"
);
},
{
closed = 1;
nodes = (
"1204 1038 LINE",
"1204 1327 LINE",
"52 1327 LINE",
"52 1038 LINE"
);
}
);
width = 1256;
}
);
unicode = 20B8;
},
{
glyphname = won;
lastChange = "2022-07-12 20:16:57 +0000";
layers = (
{
anchors = (
{
name = bottom;
position = "{964, 0}";
},
{
name = top;
position = "{1009, 1530}";
}
);
layerId = master01;
paths = (
{
closed = 1;
nodes = (
"222 711 LINE",
"256 976 LINE",
"6 976 LINE",
"-31 711 LINE"
);
},
{
closed = 1;
nodes = (
"1974 711 LINE",
"2008 976 LINE",
"1758 976 LINE",
"1721 711 LINE"
);
},
{
closed = 1;
nodes = (
"772 0 LINE",
"915 525 LINE",
"742 1155 LINE",
"609 598 LINE",
"414 1327 LINE {name = hr00;}",
"-26 1327 LINE",
"371 0 LINE"
);
},
{
closed = 1;
nodes = (
"1547 0 LINE",
"1207 1327 LINE",
"761 1327 LINE",
"1125 0 LINE"
);
},
{
closed = 1;
nodes = (
"1954 1327 LINE",
"1551 1327 LINE",
"1414 776 LINE",
"1594 69 LINE"
);
}
);
width = 1928;
}
);
unicode = 20A9;
},
{
glyphname = yen;
lastChange = "2022-07-12 16:17:08 +0000";
layers = (
{
layerId = master01;
paths = (
{
closed = 1;
nodes = (
"1088 0 LINE",
"1088 182 LINE",
"1362 182 LINE",
"1362 314 LINE",
"1088 314 LINE",
"1088 423 LINE",
"1362 423 LINE",
"1362 556 LINE",
"1042 556 LINE",
"620 1327 LINE",
"195 1327 LINE",
"615 556 LINE",
"371 556 LINE",
"371 423 LINE {name = hr00;}",
"645 423 LINE",
"645 314 LINE",
"371 314 LINE",
"371 182 LINE",
"645 182 LINE",
"645 0 LINE"
);
},
{
closed = 1;
nodes = (
"1148 616 LINE",
"1544 1327 LINE",
"1119 1327 LINE",
"895 964 LINE",
"1091 616 LINE"
);
}
);
width = 1739;
}
);
unicode = 00A5;
},
{
glyphname = plus;
lastChange = "2022-07-12 16:17:08 +0000";
layers = (
{
layerId = master01;
paths = (
{
closed = 1;
nodes = (
"842 86 LINE",
"842 501 LINE",
"1253 501 LINE",
"1253 740 LINE",
"842 740 LINE",
"842 1153 LINE",
"601 1153 LINE",
"601 740 LINE",
"186 740 LINE",
"186 501 LINE {name = hr00;}",
"601 501 LINE",
"601 86 LINE"
);
}
);
width = 1439;
}
);
unicode = 002B;
},
{
glyphname = minus;
layers = (
{
layerId = master01;
paths = (
{
closed = 1;
nodes = (
"1069 501 LINE",
"1069 740 LINE",
"186 740 LINE",
"186 501 LINE {name = hr00;}"
);
}
);
width = 1255;
}
);
unicode = 2212;
},
{
glyphname = multiply;
layers = (
{
layerId = master01;
paths = (
{
closed = 1;
nodes = (
"664 457 LINE",
"977 142 LINE",
"1144 312 LINE",
"829 623 LINE",
"1142 933 LINE",
"977 1101 LINE",
"666 786 LINE",
"355 1102 LINE",
"189 932 LINE",
"503 621 LINE",
"187 310 LINE",
"352 142 LINE {name = hr00;}"
);
}
);
userData = {
com.typemytype.robofont.guides = (
{
angle = 0;
isGlobal = 0;
magnetic = 5;
x = 0;
y = 1101;
},
{
angle = 90;
isGlobal = 0;
magnetic = 5;
x = 1149;
y = 0;
}
);
};
width = 1331;
}
);
unicode = 00D7;
},
{
glyphname = divide;
layers = (
{
layerId = master01;
paths = (
{
closed = 1;
nodes = (
"1253 501 LINE",
"1253 740 LINE",
"186 740 LINE",
"186 501 LINE {name = hr00;}"
);
},
{
closed = 1;
nodes = (
"885 86 LINE",
"885 326 LINE",
"554 326 LINE",
"554 86 LINE"
);
},
{
closed = 1;
nodes = (
"885 915 LINE",
"885 1153 LINE",
"554 1153 LINE",
"554 915 LINE"
);
}
);
width = 1439;
}
);
unicode = 00F7;
},
{
glyphname = equal;
layers = (
{
layerId = master01;
paths = (
{
closed = 1;
nodes = (
"1253 761 LINE",
"1253 1000 LINE",
"186 1000 LINE",
"186 761 LINE {name = hr00;}"
);
},
{
closed = 1;
nodes = (
"1253 204 LINE",
"1253 442 LINE",
"186 442 LINE",
"186 204 LINE"
);
}
);
userData = {
com.typemytype.robofont.guides = (
{
angle = 0;
isGlobal = 0;
magnetic = 5;
x = 0;
y = 1000;
},
{
angle = 0;
isGlobal = 0;
magnetic = 5;
x = 0;
y = 201;
}
);
};
width = 1439;
}
);
unicode = 003D;
},
{
glyphname = notequal;
lastChange = "2022-07-12 16:17:08 +0000";
layers = (
{
layerId = master01;
paths = (
{
closed = 1;
nodes = (
"656 0 LINE",
"718 204 LINE",
"1253 204 LINE",
"1253 442 LINE",
"791 442 LINE",
"889 761 LINE",
"1253 761 LINE",
"1253 1000 LINE",
"963 1000 LINE",
"1032 1223 LINE",
"783 1223 LINE",
"714 1000 LINE",
"186 1000 LINE",
"186 761 LINE {name = hr00;}",
"640 761 LINE",
"542 442 LINE",
"186 442 LINE",
"186 204 LINE",
"469 204 LINE",
"406 0 LINE"
);
}
);
width = 1439;
}
);
unicode = 2260;
},
{
glyphname = less;
lastChange = "2022-07-12 16:17:08 +0000";
layers = (
{
layerId = master01;
paths = (
{
closed = 1;
nodes = (
"1253 802 LINE {name = hr00;}",
"1253 1051 LINE",
"186 759 LINE",
"186 524 LINE"
);
},
{
closed = 1;
nodes = (
"1253 434 LINE",
"692 582 LINE",
"240 466 LINE",
"1253 186 LINE"
);
}
);
width = 1439;
}
);
unicode = 003C;
},
{
glyphname = lessequal;
lastChange = "2022-07-12 16:17:08 +0000";
layers = (
{
layerId = master01;
paths = (
{
closed = 1;
nodes = (
"1213 1067 LINE {name = hr00;}",
"1213 1316 LINE",
"146 1024 LINE",
"146 789 LINE"
);
},
{
closed = 1;
nodes = (
"1213 -35 LINE",
"1213 203 LINE",
"146 203 LINE",
"146 -35 LINE"
);
},
{
closed = 1;
nodes = (
"1213 699 LINE",
"652 847 LINE",
"200 731 LINE",
"1213 451 LINE"
);
}
);
width = 1360;
}
);
unicode = 2264;
},
{
glyphname = plusminus;
lastChange = "2022-07-12 16:17:08 +0000";
layers = (
{
layerId = master01;
paths = (
{
closed = 1;
nodes = (
"842 442 LINE",
"842 670 LINE",
"1253 670 LINE",
"1253 910 LINE",
"842 910 LINE",
"842 1140 LINE",
"601 1140 LINE",
"601 910 LINE",
"186 910 LINE",
"186 670 LINE {name = hr00;}",
"601 670 LINE",
"601 442 LINE"
);
},
{
closed = 1;
nodes = (
"1253 74 LINE",
"1253 313 LINE",
"186 313 LINE",
"186 74 LINE"
);
}
);
userData = {
com.typemytype.robofont.guides = (
{
angle = 0;
isGlobal = 0;
magnetic = 5;
x = 0;
y = 1134;
},
{
angle = 0;
isGlobal = 0;
magnetic = 5;
x = 0;
y = 74;
}
);
};
width = 1439;
}
);
unicode = 00B1;
},
{
glyphname = asciitilde;
lastChange = "2022-07-12 16:17:08 +0000";
layers = (
{
layerId = master01;
paths = (
{
closed = 1;
nodes = (
"1153 336 LINE",
"1387 628 LINE {name = hr01;}",
"1299 718 LINE",
"1091 569 LINE",
"988 569 LINE",
"750 807 LINE {name = hr02;}",
"350 807 LINE",
"113 513 LINE",
"200 425 LINE",
"409 569 LINE",
"517 569 LINE",
"750 336 LINE {name = hr03;}"
);
}
);
width = 1491;
}
);
unicode = 007E;
},
{
glyphname = logicalnot;
lastChange = "2022-07-12 16:17:08 +0000";
layers = (
{
layerId = master01;
paths = (
{
closed = 1;
nodes = (
"1437 270 LINE",
"1437 969 LINE",
"186 969 LINE",
"186 731 LINE {name = hr00;}",
"1198 731 LINE",
"1198 270 LINE"
);
}
);
width = 1623;
}
);
unicode = 00AC;
},
{
glyphname = asciicircum;
layers = (
{
layerId = master01;
paths = (
{
closed = 1;
nodes = (
"1116 100 LINE",
"770 1167 LINE",
"534 1167 LINE",
"850 100 LINE {name = hr00;}"
);
},
{
closed = 1;
nodes = (
"440 100 LINE",
"598 681 LINE",
"476 1113 LINE",
"174 100 LINE"
);
}
);
width = 1290;
}
);
unicode = 005E;
},
{
glyphname = infinity;
lastChange = "2022-07-12 16:17:08 +0000";
layers = (
{
layerId = master01;
paths = (
{
closed = 1;
nodes = (
"1770 0 LINE",
"2035 265 LINE",
"2035 797 LINE {name = hr00;}",
"1770 1062 LINE",
"1372 1062 LINE",
"1250 934 LINE",
"1387 797 LINE",
"1584 797 LINE",
"1584 247 LINE",
"1474 247 LINE",
"1474 0 LINE"
);
},
{
closed = 1;
nodes = (
"733 0 LINE",
"855 128 LINE",
"736 247 LINE",
"546 247 LINE",
"546 797 LINE",
"656 797 LINE",
"656 1062 LINE",
"360 1062 LINE",
"95 797 LINE",
"95 265 LINE",
"360 0 LINE"
);
},
{
closed = 1;
nodes = (
"1404 0 LINE",
"1404 247 LINE",
"1289 247 LINE",
"1289 797 LINE",
"1024 1062 LINE",
"728 1062 LINE",
"728 797 LINE",
"838 797 LINE",
"838 247 LINE",
"1085 0 LINE"
);
}
);
userData = {
com.typemytype.robofont.guides = (
{
angle = 0;
isGlobal = 0;
magnetic = 5;
x = 0;
y = 247;
},
{
angle = 0;
isGlobal = 0;
magnetic = 5;
x = 0;
y = 797;
}
);
};
width = 2130;
}
);
unicode = 221E;
},
{
glyphname = emptyset;
lastChange = "2022-07-12 18:29:03 +0000";
layers = (
{
layerId = master01;
paths = (
{
closed = 1;
nodes = (
"1235 1138 LINE",
"1147 1207 LINE",
"142 -43 LINE",
"228 -112 LINE"
);
},
{
closed = 1;
nodes = (
"1002 -19 OFFCURVE",
"1254 235 OFFCURVE",
"1254 549 CURVE SMOOTH",
"1254 862 OFFCURVE",
"1002 1116 OFFCURVE",
"689 1116 CURVE SMOOTH",
"375 1116 OFFCURVE",
"123 862 OFFCURVE",
"123 549 CURVE SMOOTH",
"123 235 OFFCURVE",
"375 -19 OFFCURVE",
"689 -19 CURVE SMOOTH"
);
},
{
closed = 1;
nodes = (
"486 171 OFFCURVE",
"334 346 OFFCURVE",
"334 549 CURVE SMOOTH",
"334 751 OFFCURVE",
"486 926 OFFCURVE",
"689 926 CURVE SMOOTH",
"891 926 OFFCURVE",
"1043 751 OFFCURVE",
"1043 549 CURVE SMOOTH",
"1043 346 OFFCURVE",
"891 171 OFFCURVE",
"689 171 CURVE SMOOTH"
);
}
);
width = 1377;
}
);
rightMetricsKey = "=|";
unicode = 2205;
},
{
glyphname = integral;
lastChange = "2022-07-12 16:17:08 +0000";
layers = (
{
layerId = master01;
paths = (
{
closed = 1;
nodes = (
"635 -504 LINE",
"902 -256 LINE",
"902 1606 LINE",
"1222 1606 LINE",
"1222 1871 LINE",
"726 1871 LINE",
"459 1623 LINE",
"459 -239 LINE",
"139 -239 LINE",
"139 -504 LINE"
);
}
);
width = 1361;
}
);
unicode = 222B;
},
{
glyphname = Ohm;
lastChange = "2022-07-13 01:10:32 +0000";
layers = (
{
layerId = master01;
paths = (
{
closed = 1;
nodes = (
"1374 0 LINE {name = \"\";}",
"1374 250 LINE",
"1107 250 LINE",
"1376 515 LINE",
"1376 1062 LINE",
"1107 1327 LINE",
"767 1327 LINE",
"767 1062 LINE",
"933 1062 LINE",
"933 520 LINE",
"817 400 LINE",
"817 0 LINE {name = \"\";}"
);
},
{
closed = 1;
nodes = (
"645 0 LINE {name = \"\";}",
"645 400 LINE",
"529 520 LINE",
"529 1062 LINE",
"695 1062 LINE",
"695 1327 LINE",
"355 1327 LINE",
"86 1062 LINE",
"86 515 LINE",
"355 250 LINE",
"88 250 LINE",
"88 0 LINE {name = \"\";}"
);
}
);
userData = {
com.typemytype.robofont.guides = (
{
angle = 0;
isGlobal = 0;
magnetic = 5;
x = 0;
y = 560;
},
{
angle = 0;
isGlobal = 0;
magnetic = 5;
x = 0;
y = 250;
}
);
};
width = 1463;
}
);
unicode = 2126;
},
{
glyphname = product;
layers = (
{
anchors = (
{
name = top;
position = "{759, 1530}";
}
);
layerId = master01;
paths = (
{
closed = 1;
nodes = (
"1375 -169 LINE",
"1375 989 LINE",
"935 989 LINE",
"935 -169 LINE"
);
},
{
closed = 1;
nodes = (
"527 -169 LINE",
"527 989 LINE",
"87 989 LINE",
"87 -169 LINE {name = hr00;}"
);
},
{
closed = 1;
nodes = (
"1375 1058 LINE",
"1375 1327 LINE",
"87 1327 LINE",
"87 1058 LINE"
);
}
);
width = 1463;
}
);
unicode = 220F;
},
{
glyphname = summation;
lastChange = "2022-07-12 16:17:08 +0000";
layers = (
{
layerId = master01;
paths = (
{
closed = 1;
nodes = (
"476 -173 LINE",
"872 565 LINE {name = hr00;}",
"477 1327 LINE",
"117 1327 LINE",
"117 1103 LINE",
"453 568 LINE",
"117 52 LINE",
"118 -173 LINE"
);
},
{
closed = 1;
nodes = (
"1320 -173 LINE",
"1320 225 LINE",
"878 225 LINE",
"878 92 LINE",
"671 92 LINE",
"545 -173 LINE"
);
},
{
closed = 1;
nodes = (
"1320 929 LINE",
"1320 1327 LINE",
"548 1327 LINE",
"671 1062 LINE",
"878 1062 LINE",
"878 929 LINE"
);
}
);
userData = {
com.typemytype.robofont.guides = (
{
angle = 0;
isGlobal = 0;
magnetic = 5;
x = 0;
y = 1000;
},
{
angle = 90;
isGlobal = 0;
magnetic = 5;
x = 118;
y = 0;
}
);
};
width = 1415;
}
);
unicode = 2211;
},
{
glyphname = radical;
lastChange = "2022-07-12 16:17:08 +0000";
layers = (
{
layerId = master01;
paths = (
{
closed = 1;
nodes = (
"1380 1766 LINE",
"967 1766 LINE",
"650 621 LINE",
"848 59 LINE"
);
},
{
closed = 1;
nodes = (
"803 0 LINE",
"425 1062 LINE",
"-14 1062 LINE",
"383 0 LINE {name = hr00;}"
);
}
);
width = 1192;
}
);
unicode = 221A;
},
{
glyphname = partialdiff;
lastChange = "2022-07-12 16:17:08 +0000";
layers = (
{
layerId = master01;
paths = (
{
closed = 1;
nodes = (
"992 0 LINE",
"1258 265 LINE",
"1258 1202 LINE",
"992 1467 LINE",
"707 1467 LINE",
"707 1202 LINE",
"816 1202 LINE",
"816 265 LINE {name = hr00;}",
"707 265 LINE",
"707 0 LINE"
);
},
{
closed = 1;
nodes = (
"637 0 LINE",
"637 265 LINE",
"536 265 LINE",
"536 686 LINE",
"744 686 LINE",
"744 934 LINE",
"351 934 LINE",
"91 691 LINE",
"91 265 LINE",
"356 0 LINE"
);
},
{
closed = 1;
nodes = (
"513 1095 LINE",
"513 1202 LINE",
"637 1202 LINE",
"637 1467 LINE",
"376 1467 LINE",
"111 1202 LINE",
"111 1095 LINE"
);
}
);
width = 1353;
}
);
unicode = 2202;
},
{
glyphname = micro;
lastChange = "2022-07-12 18:34:35 +0000";
layers = (
{
anchors = (
{
name = top;
position = "{670, 1223}";
}
);
layerId = master01;
paths = (
{
closed = 1;
nodes = (
"537 -490 LINE",
"537 133 LINE",
"645 47 LINE",
"734 147 LINE",
"734 265 LINE",
"537 265 LINE",
"537 1062 LINE",
"95 1062 LINE",
"95 -490 LINE"
);
},
{
closed = 1;
nodes = (
"1246 0 LINE",
"1246 1062 LINE",
"804 1062 LINE {name = hr00;}",
"804 0 LINE"
);
}
);
width = 1350;
}
);
unicode = 00B5;
},
{
glyphname = percent;
lastChange = "2022-07-12 23:31:33 +0000";
layers = (
{
layerId = master01;
paths = (
{
closed = 1;
nodes = (
"996 -196 LINE",
"1609 1458 LINE",
"1359 1458 LINE",
"746 -196 LINE"
);
},
{
closed = 1;
nodes = (
"561 582 LINE",
"561 780 LINE",
"497 780 LINE",
"497 1129 LINE",
"561 1129 LINE",
"561 1327 LINE {name = \"\";}",
"364 1327 LINE {name = \"\";}",
"164 1129 LINE",
"164 783 LINE",
"364 582 LINE"
);
},
{
closed = 1;
nodes = (
"829 582 LINE",
"1029 783 LINE",
"1029 1129 LINE {name = hr01;}",
"829 1327 LINE {name = \"\";}",
"631 1327 LINE {name = \"\";}",
"631 1129 LINE",
"696 1129 LINE",
"696 780 LINE {name = hr02;}",
"631 780 LINE",
"631 582 LINE"
);
},
{
closed = 1;
nodes = (
"1759 0 LINE",
"1759 198 LINE",
"1695 198 LINE",
"1695 547 LINE",
"1759 547 LINE",
"1759 745 LINE",
"1562 745 LINE",
"1363 547 LINE",
"1363 200 LINE",
"1562 0 LINE"
);
},
{
closed = 1;
nodes = (
"2028 0 LINE",
"2227 200 LINE",
"2227 547 LINE",
"2028 745 LINE {name = hr03;}",
"1829 745 LINE",
"1829 547 LINE",
"1895 547 LINE",
"1895 198 LINE",
"1829 198 LINE",
"1829 0 LINE"
);
}
);
userData = {
com.typemytype.robofont.guides = (
{
angle = 0;
isGlobal = 0;
magnetic = 5;
x = 0;
y = 137;
},
{
angle = 0;
isGlobal = 0;
magnetic = 5;
x = 0;
y = 186;
},
{
angle = 90;
isGlobal = 0;
magnetic = 5;
x = 1895;
y = 0;
}
);
};
width = 2392;
}
);
unicode = 0025;
},
{
glyphname = perthousand;
lastChange = "2022-07-12 23:31:58 +0000";
layers = (
{
layerId = master01;
paths = (
{
closed = 1;
nodes = (
"996 -196 LINE",
"1609 1458 LINE",
"1359 1458 LINE",
"746 -196 LINE {name = hr00;}"
);
},
{
closed = 1;
nodes = (
"561 582 LINE",
"561 780 LINE",
"497 780 LINE",
"497 1129 LINE",
"561 1129 LINE",
"561 1327 LINE {name = \"\";}",
"364 1327 LINE {name = \"\";}",
"164 1129 LINE",
"164 783 LINE",
"364 582 LINE"
);
},
{
closed = 1;
nodes = (
"829 582 LINE",
"1029 783 LINE",
"1029 1129 LINE",
"829 1327 LINE {name = \"\";}",
"631 1327 LINE {name = \"\";}",
"631 1129 LINE",
"696 1129 LINE",
"696 780 LINE",
"631 780 LINE",
"631 582 LINE"
);
},
{
closed = 1;
nodes = (
"1759 0 LINE",
"1759 198 LINE",
"1695 198 LINE",
"1695 546 LINE",
"1759 546 LINE",
"1759 744 LINE",
"1562 744 LINE",
"1363 547 LINE",
"1363 200 LINE",
"1562 0 LINE"
);
},
{
closed = 1;
nodes = (
"2028 0 LINE",
"2125 97 LINE",
"2222 0 LINE",
"2419 0 LINE",
"2419 198 LINE",
"2355 198 LINE",
"2355 546 LINE",
"2419 546 LINE",
"2419 744 LINE",
"2222 744 LINE",
"2125 649 LINE",
"2028 744 LINE",
"1829 744 LINE",
"1829 546 LINE",
"1895 546 LINE",
"1895 198 LINE",
"1829 198 LINE",
"1829 0 LINE"
);
},
{
closed = 1;
nodes = (
"2688 0 LINE",
"2887 200 LINE",
"2887 547 LINE",
"2688 744 LINE",
"2489 744 LINE",
"2489 546 LINE",
"2555 546 LINE",
"2555 198 LINE",
"2489 198 LINE",
"2489 0 LINE"
);
}
);
width = 3052;
}
);
unicode = 2030;
},
{
glyphname = lozenge;
lastChange = "2022-07-12 16:17:08 +0000";
layers = (
{
layerId = master01;
paths = (
{
closed = 1;
nodes = (
"1050 658 LINE",
"726 1268 LINE",
"492 1268 LINE",
"789 659 LINE",
"649 368 LINE",
"767 125 LINE {name = hr00;}"
);
},
{
closed = 1;
nodes = (
"733 48 LINE",
"436 657 LINE",
"576 948 LINE",
"458 1191 LINE",
"175 658 LINE",
"499 48 LINE"
);
}
);
width = 1226;
}
);
unicode = 25CA;
},
{
glyphname = apple;
lastChange = "2022-07-13 01:10:32 +0000";
layers = (
{
layerId = master01;
paths = (
{
closed = 1;
nodes = (
"1035 130 LINE",
"1339 432 LINE",
"1339 890 LINE",
"1035 1194 LINE",
"576 1194 LINE {name = hr01;}",
"274 890 LINE",
"274 432 LINE",
"576 130 LINE"
);
},
{
closed = 1;
nodes = (
"380 520 LINE",
"380 566 LINE",
"566 566 LINE {name = hr04;}",
"566 511 LINE",
"651 511 LINE",
"651 429 LINE",
"473 429 LINE {name = hr05;}"
);
},
{
closed = 1;
nodes = (
"677 596 LINE",
"474 596 LINE",
"380 689 LINE {name = hr03;}",
"380 770 LINE",
"483 874 LINE",
"566 874 LINE",
"566 706 LINE",
"772 706 LINE",
"863 613 LINE",
"863 532 LINE",
"757 429 LINE",
"677 429 LINE"
);
},
{
closed = 1;
nodes = (
"677 791 LINE",
"594 791 LINE",
"594 874 LINE",
"772 874 LINE",
"848 797 LINE {name = hr06;}",
"848 736 LINE",
"677 736 LINE"
);
},
{
closed = 1;
nodes = (
"924 540 LINE",
"924 763 LINE",
"885 763 LINE",
"885 874 LINE",
"924 874 LINE",
"924 922 LINE {name = hr02;}",
"1108 986 LINE",
"1108 540 LINE",
"1221 540 LINE",
"1221 429 LINE",
"1035 429 LINE"
);
},
{
closed = 1;
nodes = (
"1136 874 LINE",
"1221 874 LINE",
"1221 763 LINE {name = hr07;}",
"1136 763 LINE"
);
}
);
width = 1613;
}
);
unicode = F8FF;
},
{
glyphname = at;
lastChange = "2022-07-12 16:17:08 +0000";
layers = (
{
layerId = master01;
paths = (
{
closed = 1;
nodes = (
"785 -43 LINE",
"785 177 LINE",
"533 177 LINE",
"315 395 LINE",
"315 844 LINE",
"533 1062 LINE",
"765 1062 LINE",
"765 1282 LINE",
"402 1282 LINE",
"95 973 LINE",
"95 264 LINE",
"400 -43 LINE {name = hr00;}"
);
},
{
closed = 1;
nodes = (
"1182 -43 LINE",
"1359 177 LINE",
"1043 178 LINE",
"899 321 LINE",
"899 841 LINE",
"687 841 LINE",
"687 398 LINE",
"839 398 LINE",
"839 -43 LINE"
);
},
{
closed = 1;
nodes = (
"1490 398 LINE",
"1490 973 LINE",
"1182 1282 LINE",
"819 1282 LINE",
"819 1062 LINE",
"1048 1062 LINE",
"1271 841 LINE",
"1271 398 LINE"
);
}
);
userData = {
com.typemytype.robofont.guides = (
{
angle = 0;
isGlobal = 0;
magnetic = 5;
x = 0;
y = 399;
}
);
};
width = 1585;
}
);
unicode = 0040;
},
{
glyphname = ampersand;
lastChange = "2022-07-12 16:17:08 +0000";
layers = (
{
layerId = master01;
paths = (
{
closed = 1;
nodes = (
"1555 0 LINE",
"1283 315 LINE",
"1579 556 LINE",
"1361 808 LINE",
"1060 574 LINE",
"710 980 LINE",
"710 1327 LINE",
"511 1327 LINE",
"285 1103 LINE",
"285 905 LINE",
"286 904 LINE",
"1066 0 LINE {name = hr00;}"
);
},
{
closed = 1;
nodes = (
"876 0 LINE",
"933 49 LINE",
"759 255 LINE",
"548 255 LINE",
"548 496 LINE",
"342 736 LINE",
"151 539 LINE",
"151 219 LINE",
"374 0 LINE"
);
},
{
closed = 1;
nodes = (
"1365 929 LINE",
"1365 1105 LINE",
"1143 1327 LINE",
"780 1327 LINE",
"780 1062 LINE",
"950 1062 LINE",
"950 929 LINE"
);
}
);
userData = {
com.typemytype.robofont.guides = (
{
angle = 0;
isGlobal = 0;
magnetic = 5;
x = 0;
y = 1133;
},
{
angle = 0;
isGlobal = 0;
magnetic = 5;
x = 0;
y = 839;
},
{
angle = 90;
isGlobal = 0;
magnetic = 5;
x = 1312;
y = 0;
}
);
};
width = 1666;
}
);
unicode = 0026;
},
{
glyphname = paragraph;
lastChange = "2022-07-12 16:17:08 +0000";
layers = (
{
layerId = master01;
paths = (
{
closed = 1;
nodes = (
"917 177 LINE",
"917 444 LINE",
"785 444 LINE {name = hr00;}",
"785 1062 LINE",
"917 1062 LINE",
"917 1327 LINE",
"442 1327 LINE",
"176 1062 LINE",
"176 444 LINE",
"442 177 LINE"
);
},
{
closed = 1;
nodes = (
"1159 -191 LINE",
"1424 74 LINE",
"1424 1327 LINE",
"983 1327 LINE",
"983 -191 LINE"
);
}
);
width = 1610;
}
);
unicode = 00B6;
},
{
glyphname = section;
lastChange = "2022-07-12 16:17:08 +0000";
layers = (
{
layerId = master01;
paths = (
{
closed = 1;
nodes = (
"1369 540 LINE {name = hr01;}",
"1369 896 LINE",
"1177 1085 LINE",
"618 1085 LINE",
"618 1300 LINE",
"751 1300 LINE",
"751 1490 LINE",
"371 1490 LINE",
"181 1300 LINE",
"181 1085 LINE",
"370 897 LINE",
"956 896 LINE",
"956 540 LINE"
);
},
{
closed = 1;
nodes = (
"752 -121 LINE",
"752 68 LINE",
"619 68 LINE",
"619 181 LINE {name = hr02;}",
"181 181 LINE",
"181 68 LINE",
"372 -121 LINE {name = hr03;}"
);
},
{
closed = 1;
nodes = (
"1203 -121 LINE",
"1392 68 LINE",
"1392 283 LINE",
"1202 473 LINE",
"618 473 LINE",
"618 829 LINE",
"216 829 LINE",
"216 473 LINE",
"409 283 LINE",
"956 283 LINE",
"956 68 LINE",
"823 68 LINE",
"823 -121 LINE"
);
},
{
closed = 1;
nodes = (
"1392 1187 LINE",
"1392 1300 LINE",
"1202 1490 LINE",
"822 1490 LINE",
"822 1300 LINE",
"955 1300 LINE",
"955 1187 LINE"
);
}
);
width = 1573;
}
);
unicode = 00A7;
},
{
glyphname = copyright;
lastChange = "2022-07-12 16:17:08 +0000";
layers = (
{
layerId = master01;
paths = (
{
closed = 1;
nodes = (
"1183 -43 LINE",
"1491 265 LINE",
"1491 973 LINE",
"1183 1282 LINE",
"822 1282 LINE",
"822 1062 LINE",
"1045 1062 LINE {name = hr00;}",
"1236 867 LINE",
"1236 708 LINE",
"899 708 LINE",
"899 841 LINE",
"687 841 LINE",
"687 398 LINE",
"899 398 LINE",
"899 530 LINE",
"1236 530 LINE",
"1236 368 LINE",
"1046 177 LINE",
"839 177 LINE",
"839 -43 LINE"
);
},
{
closed = 1;
nodes = (
"786 -43 LINE",
"786 177 LINE",
"543 177 LINE",
"351 370 LINE",
"351 867 LINE",
"545 1062 LINE",
"768 1062 LINE",
"768 1282 LINE",
"404 1282 LINE",
"95 973 LINE",
"95 265 LINE",
"404 -43 LINE"
);
}
);
width = 1586;
}
);
unicode = 00A9;
},
{
glyphname = registered;
lastChange = "2022-07-12 16:17:08 +0000";
layers = (
{
layerId = master01;
paths = (
{
closed = 1;
nodes = (
"1183 -43 LINE {name = hr01;}",
"1491 265 LINE",
"1491 973 LINE",
"1183 1282 LINE",
"820 1282 LINE",
"820 1062 LINE",
"1060 1062 LINE",
"1237 885 LINE",
"1237 618 LINE",
"1103 483 LINE",
"1267 177 LINE",
"1085 177 LINE",
"1085 -43 LINE"
);
},
{
closed = 1;
nodes = (
"1032 -43 LINE",
"1032 177 LINE",
"905 177 LINE",
"772 442 LINE {name = hr02;}",
"696 442 LINE",
"696 177 LINE",
"555 177 LINE",
"555 -43 LINE"
);
},
{
closed = 1;
nodes = (
"501 -43 LINE",
"501 177 LINE",
"347 177 LINE",
"347 1062 LINE",
"766 1062 LINE",
"766 1282 LINE",
"404 1282 LINE",
"95 973 LINE",
"95 265 LINE",
"404 -43 LINE"
);
},
{
closed = 1;
nodes = (
"891 655 LINE",
"891 849 LINE",
"696 849 LINE",
"696 655 LINE {name = hr03;}"
);
}
);
width = 1586;
}
);
unicode = 00AE;
},
{
glyphname = trademark;
lastChange = "2022-07-12 23:32:03 +0000";
layers = (
{
layerId = master01;
paths = (
{
closed = 1;
nodes = (
"1107 918 LINE",
"1107 1215 LINE",
"1019 1063 LINE {name = \"\";}",
"859 1327 LINE {name = \"\";}",
"651 1327 LINE {name = \"\";}",
"1000 737 LINE {name = hr00;}"
);
},
{
closed = 1;
nodes = (
"477 737 LINE",
"477 1120 LINE",
"273 1120 LINE",
"273 737 LINE"
);
},
{
closed = 1;
nodes = (
"660 1181 LINE",
"572 1327 LINE {name = \"\";}",
"98 1327 LINE {name = \"\";}",
"98 1181 LINE"
);
},
{
closed = 1;
nodes = (
"835 737 LINE",
"835 893 LINE",
"696 1120 LINE",
"651 1120 LINE",
"651 737 LINE"
);
},
{
closed = 1;
nodes = (
"1370 737 LINE",
"1370 1327 LINE {name = \"\";}",
"1174 1327 LINE {name = \"\";}",
"1174 737 LINE"
);
}
);
width = 1507;
}
);
unicode = 2122;
},
{
glyphname = degree;
lastChange = "2022-07-12 16:17:08 +0000";
layers = (
{
layerId = master01;
paths = (
{
closed = 1;
nodes = (
"792 481 LINE {name = hr00;}",
"1035 724 LINE",
"1035 1084 LINE",
"792 1327 LINE",
"620 1327 LINE",
"620 1081 LINE",
"767 1081 LINE",
"767 718 LINE",
"620 718 LINE",
"620 481 LINE"
);
},
{
closed = 1;
nodes = (
"553 481 LINE",
"553 718 LINE",
"406 718 LINE",
"406 1081 LINE",
"553 1081 LINE",
"553 1327 LINE",
"380 1327 LINE",
"138 1084 LINE",
"138 724 LINE",
"380 481 LINE"
);
}
);
width = 1173;
}
);
unicode = 00B0;
},
{
color = 4;
glyphname = minute;
lastChange = "2022-07-12 18:14:47 +0000";
layers = (
{
layerId = master01;
paths = (
{
closed = 1;
nodes = (
"545 664 LINE",
"662 1327 LINE",
"251 1327 LINE",
"227 664 LINE {name = hr00;}"
);
}
);
width = 773;
}
);
unicode = 2032;
},
{
glyphname = bar;
lastChange = "2022-07-12 16:17:08 +0000";
layers = (
{
layerId = master01;
paths = (
{
closed = 1;
nodes = (
"470 -196 LINE {name = hr00;}",
"470 1418 LINE",
"230 1418 LINE",
"230 -196 LINE"
);
}
);
width = 700;
}
);
unicode = 007C;
},
{
glyphname = brokenbar;
lastChange = "2022-07-12 16:17:08 +0000";
layers = (
{
layerId = master01;
paths = (
{
closed = 1;
nodes = (
"468 697 LINE {name = hr00;}",
"468 1418 LINE",
"230 1418 LINE",
"230 697 LINE"
);
},
{
closed = 1;
nodes = (
"468 -196 LINE",
"468 512 LINE",
"230 512 LINE",
"230 -196 LINE"
);
}
);
width = 698;
}
);
unicode = 00A6;
},
{
glyphname = dagger;
layers = (
{
layerId = master01;
paths = (
{
closed = 1;
nodes = (
"799 -315 LINE",
"950 430 LINE",
"948 431 LINE",
"849 821 LINE",
"1211 759 LINE",
"1346 921 LINE",
"1211 1083 LINE",
"847 1020 LINE",
"915 1416 LINE",
"753 1551 LINE",
"592 1416 LINE",
"660 1020 LINE",
"295 1084 LINE",
"161 923 LINE",
"295 761 LINE",
"657 822 LINE",
"556 429 LINE",
"557 429 LINE",
"708 -315 LINE {name = hr00;}"
);
}
);
width = 1507;
}
);
unicode = 2020;
},
{
glyphname = daggerdbl;
lastChange = "2022-07-12 16:17:08 +0000";
layers = (
{
layerId = master01;
paths = (
{
closed = 1;
nodes = (
"915 -181 LINE",
"847 215 LINE",
"1211 151 LINE",
"1346 313 LINE",
"1211 474 LINE",
"852 414 LINE",
"952 615 LINE",
"854 820 LINE",
"1211 759 LINE",
"1346 920 LINE",
"1211 1082 LINE",
"847 1020 LINE",
"915 1415 LINE",
"753 1550 LINE",
"592 1415 LINE",
"660 1020 LINE",
"295 1083 LINE",
"161 922 LINE",
"295 760 LINE",
"654 820 LINE",
"557 614 LINE",
"658 414 LINE {name = hr00;}",
"295 476 LINE",
"161 314 LINE",
"295 153 LINE",
"660 215 LINE",
"592 -181 LINE",
"753 -315 LINE"
);
}
);
userData = {
com.typemytype.robofont.guides = (
{
angle = 90;
isGlobal = 0;
magnetic = 5;
x = 660;
y = 0;
},
{
angle = 90;
isGlobal = 0;
magnetic = 5;
x = 847;
y = 0;
}
);
};
width = 1507;
}
);
unicode = 2021;
},
{
glyphname = dieresiscomb;
lastChange = "2022-07-12 17:57:05 +0000";
layers = (
{
anchors = (
{
name = _top;
position = "{709, 1223}";
},
{
name = top;
position = "{707, 1583}";
}
);
layerId = master01;
paths = (
{
closed = 1;
nodes = (
"1140 1199 LINE",
"1140 1480 LINE",
"804 1480 LINE",
"804 1199 LINE"
);
},
{
closed = 1;
nodes = (
"610 1199 LINE",
"610 1480 LINE",
"274 1480 LINE",
"274 1199 LINE {name = hr00;}"
);
}
);
width = 1414;
}
);
unicode = 0308;
},
{
glyphname = dotaccentcomb;
lastChange = "2022-07-12 17:42:11 +0000";
layers = (
{
anchors = (
{
name = _top;
position = "{338, 1223}";
},
{
name = top;
position = "{327, 1476}";
}
);
layerId = master01;
paths = (
{
closed = 1;
nodes = (
"548 1194 LINE",
"548 1476 LINE",
"105 1476 LINE",
"105 1194 LINE"
);
}
);
width = 680;
}
);
unicode = 0307;
},
{
glyphname = gravecomb;
lastChange = "2022-07-12 17:42:11 +0000";
layers = (
{
anchors = (
{
name = _top;
position = "{498, 1223}";
},
{
name = top;
position = "{456, 1607}";
}
);
layerId = master01;
paths = (
{
closed = 1;
nodes = (
"791 1291 LINE",
"305 1607 LINE {name = hr00;}",
"121 1522 LINE",
"175 1311 LINE",
"730 1144 LINE"
);
}
);
width = 1098;
}
);
unicode = 0300;
},
{
glyphname = acutecomb;
lastChange = "2022-07-12 18:19:24 +0000";
layers = (
{
anchors = (
{
name = _top;
position = "{559, 1223}";
},
{
name = top;
position = "{428, 1551}";
}
);
layerId = master01;
paths = (
{
closed = 1;
nodes = (
"890 1281 LINE",
"944 1492 LINE",
"760 1577 LINE",
"274 1261 LINE {name = hr00;}",
"372 1123 LINE"
);
}
);
width = 1098;
}
);
unicode = 0301;
},
{
glyphname = hungarumlautcomb;
lastChange = "2022-07-12 17:42:11 +0000";
layers = (
{
anchors = (
{
name = _top;
position = "{559, 1223}";
},
{
name = top;
position = "{739, 1607}";
}
);
layerId = master01;
paths = (
{
closed = 1;
nodes = (
"1260 1371 LINE",
"1274 1552 LINE",
"1090 1607 LINE",
"752 1271 LINE",
"854 1144 LINE"
);
},
{
closed = 1;
nodes = (
"712 1371 LINE",
"726 1552 LINE",
"542 1607 LINE",
"204 1271 LINE {name = hr00;}",
"306 1144 LINE"
);
}
);
width = 1098;
}
);
unicode = 030B;
},
{
glyphname = caroncomb.alt;
lastChange = "2022-07-13 01:10:32 +0000";
layers = (
{
anchors = (
{
name = _topright;
position = "{249, 1062}";
}
);
layerId = master01;
paths = (
{
closed = 1;
nodes = (
"405 1102 LINE",
"452 1467 LINE",
"143 1467 LINE",
"119 1102 LINE"
);
}
);
width = 472;
}
);
},
{
glyphname = circumflexcomb;
lastChange = "2022-07-13 03:02:18 +0000";
layers = (
{
anchors = (
{
name = _top;
position = "{620, 1174}";
},
{
name = top;
position = "{620, 1649}";
}
);
layerId = master01;
paths = (
{
closed = 1;
nodes = (
"620 1273 LINE",
"974 1063 LINE",
"1067 1160 LINE",
"772 1495 LINE {name = hr00;}",
"468 1495 LINE",
"173 1160 LINE",
"267 1063 LINE"
);
}
);
width = 1240;
}
);
unicode = 0302;
},
{
glyphname = caroncomb;
lastChange = "2022-07-12 17:42:11 +0000";
layers = (
{
anchors = (
{
name = _top;
position = "{619, 1223}";
},
{
name = top;
position = "{620, 1584}";
}
);
layerId = master01;
paths = (
{
closed = 1;
nodes = (
"772 1153 LINE",
"1067 1487 LINE",
"973 1584 LINE",
"619 1374 LINE",
"266 1584 LINE",
"173 1487 LINE",
"468 1153 LINE {name = hr00;}"
);
}
);
width = 1240;
}
);
unicode = 030C;
},
{
glyphname = brevecomb;
lastChange = "2022-07-12 17:42:11 +0000";
layers = (
{
anchors = (
{
name = _top;
position = "{623, 1223}";
},
{
name = top;
position = "{623, 1569}";
}
);
layerId = master01;
paths = (
{
closed = 1;
nodes = (
"803 1155 LINE",
"949 1299 LINE",
"1005 1530 LINE",
"867 1569 LINE",
"785 1387 LINE",
"460 1387 LINE",
"378 1569 LINE",
"240 1530 LINE",
"296 1299 LINE {name = hr00;}",
"442 1155 LINE"
);
}
);
width = 1240;
}
);
unicode = 0306;
},
{
glyphname = ringcomb;
lastChange = "2022-07-12 17:56:49 +0000";
layers = (
{
anchors = (
{
name = _top;
position = "{572, 1223}";
},
{
name = top;
position = "{571, 1682}";
}
);
layerId = master01;
paths = (
{
closed = 1;
nodes = (
"702 1160 LINE {name = hr00;}",
"841 1297 LINE",
"841 1505 LINE",
"702 1642 LINE",
"605 1642 LINE",
"605 1487 LINE",
"683 1487 LINE",
"683 1316 LINE",
"605 1316 LINE",
"605 1160 LINE"
);
},
{
closed = 1;
nodes = (
"536 1160 LINE",
"536 1316 LINE",
"459 1316 LINE",
"459 1487 LINE",
"536 1487 LINE",
"536 1642 LINE",
"437 1642 LINE",
"300 1505 LINE",
"300 1297 LINE",
"437 1160 LINE"
);
}
);
width = 1145;
}
);
unicode = 030A;
},
{
glyphname = tildecomb;
lastChange = "2022-07-12 18:03:20 +0000";
layers = (
{
anchors = (
{
name = _top;
position = "{615, 1223}";
},
{
name = top;
position = "{655, 1616}";
}
);
layerId = master01;
paths = (
{
closed = 1;
nodes = (
"899 1181 LINE",
"1094 1395 LINE",
"1007 1482 LINE",
"869 1367 LINE",
"802 1367 LINE",
"694 1518 LINE",
"411 1518 LINE {name = hr00;}",
"216 1304 LINE",
"303 1217 LINE",
"441 1331 LINE",
"508 1331 LINE",
"616 1181 LINE"
);
}
);
width = 1309;
}
);
unicode = 0303;
},
{
glyphname = macroncomb;
lastChange = "2022-07-12 17:59:31 +0000";
layers = (
{
anchors = (
{
name = _top;
position = "{615, 1223}";
},
{
name = top;
position = "{616, 1533}";
}
);
layerId = master01;
paths = (
{
closed = 1;
nodes = (
"980 1203 LINE",
"980 1400 LINE",
"251 1400 LINE",
"251 1203 LINE {name = hr00;}"
);
}
);
width = 1238;
}
);
unicode = 0304;
},
{
glyphname = hookabovecomb;
lastChange = "2022-07-12 20:25:44 +0000";
layers = (
{
anchors = (
{
name = _top;
position = "{615, 1223}";
},
{
name = top;
position = "{604, 1702}";
}
);
layerId = master01;
paths = (
{
closed = 1;
nodes = (
"847 1147 LINE",
"847 1392 LINE",
"672 1592 LINE",
"360 1592 LINE",
"360 1310 LINE {name = hr00;}",
"645 1310 LINE",
"645 1147 LINE"
);
}
);
width = 1200;
}
);
unicode = 0309;
},
{
glyphname = dblgravecomb;
lastChange = "2022-07-12 17:42:11 +0000";
layers = (
{
anchors = (
{
name = _top;
position = "{763, 1223}";
},
{
name = top;
position = "{583, 1607}";
}
);
layerId = master01;
paths = (
{
closed = 1;
nodes = (
"1118 1271 LINE {name = hr00;}",
"780 1607 LINE",
"596 1552 LINE",
"610 1371 LINE",
"1016 1144 LINE"
);
},
{
closed = 1;
nodes = (
"570 1271 LINE",
"232 1607 LINE",
"48 1552 LINE",
"62 1371 LINE",
"468 1144 LINE"
);
}
);
width = 1098;
}
);
unicode = 030F;
},
{
glyphname = breveinvertedcomb;
lastChange = "2022-07-13 03:02:18 +0000";
layers = (
{
anchors = (
{
name = _top;
position = "{623, 1240}";
},
{
name = top;
position = "{623, 1651}";
}
);
layerId = master01;
paths = (
{
closed = 1;
nodes = (
"460 1337 LINE",
"785 1337 LINE",
"867 1155 LINE",
"1005 1194 LINE",
"949 1425 LINE",
"803 1569 LINE",
"442 1569 LINE",
"296 1425 LINE {name = hr00;}",
"240 1194 LINE",
"378 1155 LINE"
);
}
);
width = 1240;
}
);
unicode = 0311;
},
{
glyphname = commaturnedabovecomb;
lastChange = "2022-07-12 18:34:35 +0000";
layers = (
{
anchors = (
{
name = _top;
position = "{465, 1062}";
},
{
name = top;
position = "{464, 1777}";
}
);
layerId = master01;
paths = (
{
closed = 1;
nodes = (
"685 1057 LINE",
"685 1349 LINE {name = hr00;}",
"527 1349 LINE",
"588 1577 LINE",
"410 1577 LINE",
"243 1304 LINE",
"243 1057 LINE"
);
}
);
width = 936;
}
);
unicode = 0312;
},
{
glyphname = horncomb;
lastChange = "2022-07-12 17:42:11 +0000";
layers = (
{
anchors = (
{
name = _topright;
position = "{169, 1062}";
},
{
name = topright;
position = "{638, 1345}";
}
);
layerId = master01;
paths = (
{
closed = 1;
nodes = (
"418 858 LINE",
"618 1033 LINE",
"618 1345 LINE",
"336 1345 LINE {name = hr00;}",
"336 1060 LINE",
"173 1060 LINE",
"173 858 LINE"
);
}
);
width = 734;
}
);
unicode = 031B;
},
{
glyphname = dotbelowcomb;
lastChange = "2022-07-12 16:54:27 +0000";
layers = (
{
anchors = (
{
name = _bottom;
position = "{327, 0}";
},
{
name = bottom;
position = "{327, -382}";
}
);
layerId = master01;
paths = (
{
closed = 1;
nodes = (
"548 -382 LINE",
"548 -100 LINE",
"105 -100 LINE",
"105 -382 LINE"
);
}
);
width = 680;
}
);
unicode = 0323;
},
{
glyphname = dieresisbelowcomb;
lastChange = "2022-07-12 17:42:11 +0000";
layers = (
{
anchors = (
{
name = _bottom;
position = "{707, 0}";
},
{
name = bottom;
position = "{707, -361}";
}
);
layerId = master01;
paths = (
{
closed = 1;
nodes = (
"1140 -361 LINE",
"1140 -140 LINE",
"804 -140 LINE",
"804 -361 LINE"
);
},
{
closed = 1;
nodes = (
"610 -361 LINE",
"610 -140 LINE",
"274 -140 LINE",
"274 -361 LINE {name = hr01;}"
);
}
);
width = 1414;
}
);
unicode = 0324;
},
{
glyphname = commaaccentcomb;
lastChange = "2022-07-12 17:55:07 +0000";
layers = (
{
anchors = (
{
name = _bottom;
position = "{464, 0}";
},
{
name = _btm;
position = "{467, 0}";
},
{
name = bottom;
position = "{464, -689}";
}
);
layerId = master01;
paths = (
{
closed = 1;
nodes = (
"518 -638 LINE",
"685 -365 LINE",
"685 -118 LINE",
"243 -118 LINE",
"243 -410 LINE {name = hr00;}",
"401 -410 LINE",
"340 -638 LINE"
);
}
);
width = 936;
}
);
unicode = 0326;
},
{
glyphname = cedillacomb;
lastChange = "2022-07-12 17:54:45 +0000";
layers = (
{
anchors = (
{
name = _bottom;
position = "{529, 0}";
},
{
name = bottom;
position = "{529, -507}";
}
);
layerId = master01;
paths = (
{
closed = 1;
nodes = (
"597 -507 LINE",
"772 -307 LINE",
"772 -62 LINE",
"570 -62 LINE",
"570 -225 LINE",
"285 -225 LINE {name = hr00;}",
"285 -507 LINE"
);
}
);
width = 1008;
}
);
unicode = 0327;
},
{
glyphname = ogonekcomb;
lastChange = "2022-07-12 18:34:35 +0000";
layers = (
{
anchors = (
{
name = _ogonek;
position = "{772, 0}";
}
);
layerId = master01;
paths = (
{
closed = 1;
nodes = (
"772 -507 LINE",
"772 -225 LINE {name = hr00;}",
"487 -225 LINE",
"487 -62 LINE",
"285 -62 LINE",
"285 -307 LINE",
"460 -507 LINE"
);
}
);
width = 1200;
}
);
unicode = 0328;
},
{
glyphname = circumflexbelowcomb;
lastChange = "2022-07-12 16:58:49 +0000";
layers = (
{
anchors = (
{
name = _bottom;
position = "{620, 0}";
},
{
name = bottom;
position = "{620, -548}";
}
);
layerId = master01;
paths = (
{
closed = 1;
nodes = (
"620 -338 LINE",
"974 -548 LINE",
"1067 -451 LINE",
"772 -116 LINE {name = hr00;}",
"468 -116 LINE",
"173 -451 LINE",
"267 -548 LINE"
);
}
);
width = 1240;
}
);
unicode = 032D;
},
{
glyphname = brevebelowcomb;
lastChange = "2022-07-12 17:42:11 +0000";
layers = (
{
anchors = (
{
name = _bottom;
position = "{623, 0}";
},
{
name = bottom;
position = "{623, -522}";
}
);
layerId = master01;
paths = (
{
closed = 1;
nodes = (
"803 -522 LINE",
"949 -378 LINE",
"1005 -147 LINE",
"867 -108 LINE",
"785 -290 LINE",
"460 -290 LINE",
"378 -108 LINE",
"240 -147 LINE",
"296 -378 LINE {name = hr00;}",
"442 -522 LINE"
);
}
);
width = 1200;
}
);
unicode = 032E;
},
{
glyphname = macronbelowcomb;
lastChange = "2022-07-12 16:37:02 +0000";
layers = (
{
anchors = (
{
name = _bottom;
position = "{616, 0}";
},
{
name = bottom;
position = "{616, -311}";
}
);
layerId = master01;
paths = (
{
closed = 1;
nodes = (
"980 -311 LINE",
"980 -141 LINE",
"251 -141 LINE",
"251 -311 LINE {name = hr00;}"
);
}
);
width = 1238;
}
);
unicode = 0331;
},
{
color = 0;
glyphname = strokeshortcomb;
lastChange = "2022-07-13 03:22:54 +0000";
layers = (
{
anchors = (
{
name = _center;
position = "{385, 586}";
}
);
layerId = master01;
paths = (
{
closed = 1;
nodes = (
"749 501 LINE",
"749 671 LINE",
"20 671 LINE",
"20 501 LINE {name = hr00;}"
);
}
);
width = 769;
}
);
unicode = 0335;
},
{
glyphname = dieresis;
lastChange = "2022-07-12 18:09:12 +0000";
layers = (
{
anchors = (
{
name = _top;
position = "{709, 1223}";
}
);
layerId = master01;
paths = (
{
closed = 1;
nodes = (
"1140 1189 LINE",
"1140 1470 LINE",
"804 1470 LINE",
"804 1189 LINE"
);
},
{
closed = 1;
nodes = (
"610 1189 LINE",
"610 1470 LINE",
"274 1470 LINE",
"274 1189 LINE {name = hr00;}"
);
}
);
width = 1414;
}
);
unicode = 00A8;
},
{
glyphname = dotaccent;
lastChange = "2022-07-12 16:51:42 +0000";
layers = (
{
anchors = (
{
name = _top;
position = "{331, 1223}";
}
);
layerId = master01;
paths = (
{
closed = 1;
nodes = (
"548 1194 LINE",
"548 1476 LINE",
"105 1476 LINE",
"105 1194 LINE"
);
}
);
width = 680;
}
);
unicode = 02D9;
},
{
glyphname = grave;
lastChange = "2022-07-12 16:17:08 +0000";
layers = (
{
anchors = (
{
name = _top;
position = "{498, 1223}";
}
);
layerId = master01;
paths = (
{
closed = 1;
nodes = (
"791 1291 LINE",
"305 1607 LINE {name = hr00;}",
"121 1522 LINE",
"175 1311 LINE",
"730 1144 LINE"
);
}
);
userData = {
com.typemytype.robofont.guides = (
{
angle = 0;
isGlobal = 0;
magnetic = 5;
x = 0;
y = 1118;
},
{
angle = 90;
isGlobal = 0;
magnetic = 5;
x = 834;
y = 0;
}
);
};
width = 1098;
}
);
unicode = 0060;
},
{
glyphname = acute;
lastChange = "2022-07-12 16:17:08 +0000";
layers = (
{
anchors = (
{
name = _top;
position = "{559, 1223}";
}
);
layerId = master01;
paths = (
{
closed = 1;
nodes = (
"890 1311 LINE",
"944 1522 LINE",
"760 1607 LINE",
"274 1291 LINE {name = hr00;}",
"336 1144 LINE"
);
}
);
width = 1098;
}
);
unicode = 00B4;
},
{
glyphname = hungarumlaut;
lastChange = "2022-07-12 16:17:08 +0000";
layers = (
{
anchors = (
{
name = _top;
position = "{559, 1223}";
}
);
layerId = master01;
paths = (
{
closed = 1;
nodes = (
"1260 1371 LINE",
"1274 1552 LINE",
"1090 1607 LINE",
"752 1271 LINE",
"854 1144 LINE"
);
},
{
closed = 1;
nodes = (
"712 1371 LINE",
"726 1552 LINE",
"542 1607 LINE",
"204 1271 LINE {name = hr00;}",
"306 1144 LINE"
);
}
);
width = 1098;
}
);
unicode = 02DD;
},
{
glyphname = circumflex;
lastChange = "2022-07-13 03:02:18 +0000";
layers = (
{
anchors = (
{
name = top;
position = "{620, 1279}";
}
);
layerId = master01;
paths = (
{
closed = 1;
nodes = (
"620 1363 LINE",
"974 1153 LINE",
"1067 1250 LINE",
"772 1585 LINE {name = hr00;}",
"468 1585 LINE",
"173 1250 LINE",
"267 1153 LINE"
);
}
);
width = 1240;
}
);
unicode = 02C6;
},
{
glyphname = caron;
layers = (
{
anchors = (
{
name = _top;
position = "{612, 1223}";
}
);
layerId = master01;
paths = (
{
closed = 1;
nodes = (
"772 1153 LINE",
"1067 1487 LINE",
"973 1584 LINE",
"619 1374 LINE",
"266 1584 LINE",
"173 1487 LINE",
"468 1153 LINE {name = hr00;}"
);
}
);
width = 1240;
}
);
unicode = 02C7;
},
{
glyphname = breve;
lastChange = "2022-07-12 16:17:08 +0000";
layers = (
{
anchors = (
{
name = _top;
position = "{623, 1223}";
}
);
layerId = master01;
paths = (
{
closed = 1;
nodes = (
"803 1155 LINE",
"949 1299 LINE",
"1005 1530 LINE",
"867 1569 LINE",
"785 1387 LINE",
"460 1387 LINE",
"378 1569 LINE",
"240 1530 LINE",
"296 1299 LINE {name = hr00;}",
"442 1155 LINE"
);
}
);
width = 1240;
}
);
unicode = 02D8;
},
{
glyphname = ring;
lastChange = "2022-07-12 16:17:08 +0000";
layers = (
{
anchors = (
{
name = _top;
position = "{572, 1223}";
}
);
layerId = master01;
paths = (
{
closed = 1;
nodes = (
"702 1200 LINE {name = hr00;}",
"841 1337 LINE",
"841 1545 LINE",
"702 1682 LINE",
"605 1682 LINE",
"605 1527 LINE",
"683 1527 LINE",
"683 1356 LINE",
"605 1356 LINE",
"605 1200 LINE"
);
},
{
closed = 1;
nodes = (
"536 1200 LINE",
"536 1356 LINE",
"459 1356 LINE",
"459 1527 LINE",
"536 1527 LINE",
"536 1682 LINE",
"437 1682 LINE",
"300 1545 LINE",
"300 1337 LINE",
"437 1200 LINE"
);
}
);
width = 1145;
}
);
unicode = 02DA;
},
{
glyphname = tilde;
lastChange = "2022-07-12 18:09:53 +0000";
layers = (
{
anchors = (
{
name = _top;
position = "{654, 1223}";
}
);
layerId = master01;
paths = (
{
closed = 1;
nodes = (
"899 1171 LINE",
"1094 1385 LINE",
"1007 1472 LINE",
"869 1357 LINE",
"802 1357 LINE",
"694 1508 LINE",
"411 1508 LINE {name = hr00;}",
"216 1294 LINE",
"303 1207 LINE",
"441 1321 LINE",
"508 1321 LINE",
"616 1171 LINE"
);
}
);
width = 1309;
}
);
unicode = 02DC;
},
{
glyphname = macron;
layers = (
{
anchors = (
{
name = _top;
position = "{615, 1223}";
}
);
layerId = master01;
paths = (
{
closed = 1;
nodes = (
"980 1223 LINE",
"980 1393 LINE",
"251 1393 LINE",
"251 1223 LINE {name = hr00;}"
);
}
);
width = 1238;
}
);
unicode = 00AF;
},
{
glyphname = cedilla;
lastChange = "2022-07-12 16:17:08 +0000";
layers = (
{
anchors = (
{
name = _btm;
position = "{596, 0}";
}
);
layerId = master01;
paths = (
{
closed = 1;
nodes = (
"597 -507 LINE",
"772 -307 LINE",
"772 -62 LINE",
"570 -62 LINE",
"570 -225 LINE",
"285 -225 LINE {name = hr00;}",
"285 -507 LINE"
);
}
);
width = 1008;
}
);
unicode = 00B8;
},
{
glyphname = ogonek;
lastChange = "2022-07-12 16:17:08 +0000";
layers = (
{
anchors = (
{
name = _btm;
position = "{596, 0}";
}
);
layerId = master01;
paths = (
{
closed = 1;
nodes = (
"852 -445 LINE",
"852 -175 LINE",
"597 -175 LINE {name = hr00;}",
"597 -62 LINE",
"395 -62 LINE",
"395 -245 LINE",
"570 -445 LINE"
);
}
);
width = 1008;
}
);
unicode = 02DB;
},
{
glyphname = dieresiscomb.case;
lastChange = "2022-07-13 01:10:32 +0000";
layers = (
{
anchors = (
{
name = _top;
position = "{707, 1529}";
},
{
name = top;
position = "{707, 1871}";
}
);
layerId = master01;
paths = (
{
closed = 1;
nodes = (
"1140 1430 LINE",
"1140 1651 LINE",
"804 1651 LINE",
"804 1430 LINE"
);
},
{
closed = 1;
nodes = (
"610 1430 LINE",
"610 1651 LINE",
"274 1651 LINE",
"274 1430 LINE {name = hr01;}"
);
}
);
width = 1414;
}
);
},
{
glyphname = dotaccentcomb.case;
lastChange = "2022-07-13 01:10:32 +0000";
layers = (
{
anchors = (
{
name = _top;
position = "{328, 1529}";
},
{
name = top;
position = "{327, 1742}";
}
);
layerId = master01;
paths = (
{
closed = 1;
nodes = (
"548 1420 LINE",
"548 1702 LINE",
"105 1702 LINE",
"105 1420 LINE"
);
}
);
width = 680;
}
);
},
{
glyphname = gravecomb.case;
lastChange = "2022-07-13 01:10:32 +0000";
layers = (
{
anchors = (
{
name = _top;
position = "{467, 1529}";
},
{
name = top;
position = "{327, 1766}";
}
);
layerId = master01;
paths = (
{
closed = 1;
nodes = (
"627 1526 LINE",
"181 1766 LINE {name = hr00;}",
"26 1688 LINE",
"73 1519 LINE",
"575 1404 LINE"
);
}
);
width = 783;
}
);
},
{
glyphname = acutecomb.case;
lastChange = "2022-07-13 03:24:47 +0000";
layers = (
{
anchors = (
{
name = _top;
position = "{316, 1529}";
},
{
name = top;
position = "{165, 1766}";
}
);
layerId = master01;
paths = (
{
closed = 1;
nodes = (
"710 1519 LINE",
"757 1688 LINE",
"602 1766 LINE",
"156 1526 LINE {name = hr00;}",
"207 1404 LINE"
);
}
);
width = 783;
}
);
},
{
glyphname = hungarumlautcomb.case;
lastChange = "2022-07-13 01:10:32 +0000";
layers = (
{
anchors = (
{
name = _top;
position = "{316, 1529}";
},
{
name = top;
position = "{482, 1766}";
}
);
layerId = master01;
paths = (
{
closed = 1;
nodes = (
"960 1579 LINE",
"958 1718 LINE",
"810 1766 LINE",
"527 1526 LINE",
"616 1414 LINE"
);
},
{
closed = 1;
nodes = (
"436 1579 LINE",
"434 1718 LINE",
"286 1766 LINE",
"3 1526 LINE {name = hr00;}",
"92 1414 LINE"
);
}
);
width = 783;
}
);
},
{
glyphname = circumflexcomb.case;
lastChange = "2022-07-13 01:10:32 +0000";
layers = (
{
anchors = (
{
name = _top;
position = "{628, 1529}";
},
{
name = top;
position = "{632, 1731}";
}
);
layerId = master01;
paths = (
{
closed = 1;
nodes = (
"634 1551 LINE",
"937 1392 LINE",
"1013 1471 LINE",
"759 1731 LINE",
"507 1731 LINE",
"251 1472 LINE {name = hr00;}",
"328 1392 LINE"
);
}
);
userData = {
com.typemytype.robofont.guides = (
{
angle = 90;
isGlobal = 0;
magnetic = 5;
x = 634;
y = 0;
}
);
};
width = 1240;
}
);
},
{
glyphname = caroncomb.case;
lastChange = "2022-07-13 01:10:32 +0000";
layers = (
{
anchors = (
{
name = _top;
position = "{632, 1529}";
},
{
name = top;
position = "{635, 1861}";
}
);
layerId = master01;
paths = (
{
closed = 1;
nodes = (
"759 1422 LINE",
"1016 1682 LINE {name = hr00;}",
"938 1761 LINE",
"632 1603 LINE",
"330 1761 LINE",
"253 1683 LINE",
"507 1422 LINE"
);
}
);
userData = {
com.typemytype.robofont.guides = (
{
angle = 0;
isGlobal = 0;
magnetic = 5;
x = 0;
y = 1653;
},
{
angle = 90;
isGlobal = 0;
magnetic = 5;
x = 632;
y = 0;
}
);
};
width = 1240;
}
);
},
{
glyphname = brevecomb.case;
lastChange = "2022-07-13 01:10:32 +0000";
layers = (
{
anchors = (
{
name = _top;
position = "{624, 1529}";
},
{
name = top;
position = "{623, 1913}";
}
);
layerId = master01;
paths = (
{
closed = 1;
nodes = (
"803 1402 LINE",
"949 1546 LINE",
"1005 1777 LINE",
"867 1816 LINE",
"785 1634 LINE",
"460 1634 LINE",
"378 1816 LINE",
"240 1777 LINE",
"296 1546 LINE {name = hr00;}",
"442 1402 LINE"
);
}
);
width = 1200;
}
);
},
{
glyphname = ringcomb.case;
lastChange = "2022-07-13 01:10:32 +0000";
layers = (
{
anchors = (
{
name = _top;
position = "{572, 1529}";
},
{
name = top;
position = "{571, 1765}";
}
);
layerId = master01;
paths = (
{
closed = 1;
nodes = (
"722 1363 LINE {name = hr00;}",
"861 1500 LINE",
"861 1708 LINE",
"722 1845 LINE",
"605 1845 LINE",
"605 1690 LINE",
"683 1690 LINE",
"683 1519 LINE",
"605 1519 LINE",
"605 1363 LINE"
);
},
{
closed = 1;
nodes = (
"536 1363 LINE",
"536 1519 LINE",
"459 1519 LINE",
"459 1690 LINE",
"536 1690 LINE",
"536 1845 LINE",
"417 1845 LINE",
"280 1708 LINE",
"280 1500 LINE",
"417 1363 LINE"
);
}
);
userData = {
com.typemytype.robofont.guides = (
{
angle = 0;
isGlobal = 0;
magnetic = 5;
x = 0;
y = 1594;
},
{
angle = 0;
isGlobal = 0;
magnetic = 5;
x = 0;
y = 1524;
}
);
};
width = 1141;
}
);
rightMetricsKey = "=|";
},
{
glyphname = tildecomb.case;
lastChange = "2022-07-13 01:10:32 +0000";
layers = (
{
anchors = (
{
name = _top;
position = "{654, 1529}";
},
{
name = top;
position = "{655, 1871}";
}
);
layerId = master01;
paths = (
{
closed = 1;
nodes = (
"877 1424 LINE",
"1084 1638 LINE",
"1020 1716 LINE",
"839 1609 LINE",
"798 1609 LINE {name = hr01;}",
"638 1726 LINE {name = hr02;}",
"433 1726 LINE",
"226 1512 LINE",
"290 1434 LINE",
"471 1540 LINE",
"512 1540 LINE",
"672 1424 LINE {name = hr03;}"
);
}
);
width = 1309;
}
);
},
{
glyphname = macroncomb.case;
lastChange = "2022-07-13 01:10:32 +0000";
layers = (
{
anchors = (
{
name = _top;
position = "{616, 1529}";
},
{
name = top;
position = "{616, 1792}";
}
);
layerId = master01;
paths = (
{
closed = 1;
nodes = (
"980 1453 LINE",
"980 1623 LINE",
"251 1623 LINE",
"251 1453 LINE {name = hr00;}"
);
}
);
width = 1238;
}
);
},
{
glyphname = hookabovecomb.case;
lastChange = "2022-07-13 01:10:32 +0000";
layers = (
{
anchors = (
{
name = _top;
position = "{614, 1529}";
},
{
name = top;
position = "{604, 1823}";
}
);
layerId = master01;
paths = (
{
closed = 1;
nodes = (
"847 1378 LINE",
"847 1623 LINE",
"672 1823 LINE",
"360 1823 LINE",
"360 1541 LINE {name = hr00;}",
"645 1541 LINE",
"645 1378 LINE"
);
}
);
width = 1200;
}
);
},
{
color = 0;
glyphname = dblgravecomb.case;
lastChange = "2022-07-13 03:25:04 +0000";
layers = (
{
anchors = (
{
name = _top;
position = "{632, 1504}";
},
{
name = top;
position = "{482, 1766}";
}
);
layerId = master01;
paths = (
{
closed = 1;
nodes = (
"960 1526 LINE {name = hr00;}",
"677 1766 LINE",
"529 1718 LINE",
"527 1579 LINE",
"871 1414 LINE"
);
},
{
closed = 1;
nodes = (
"436 1526 LINE",
"153 1766 LINE",
"5 1718 LINE",
"3 1579 LINE",
"347 1414 LINE"
);
}
);
width = 1200;
}
);
},
{
glyphname = brevebelowcomb.case;
lastChange = "2022-07-13 01:10:32 +0000";
layers = (
{
anchors = (
{
name = _bottom;
position = "{623, 0}";
},
{
name = bottom;
position = "{623, -522}";
}
);
layerId = master01;
paths = (
{
closed = 1;
nodes = (
"803 -522 LINE",
"949 -378 LINE",
"1005 -147 LINE",
"867 -108 LINE",
"785 -290 LINE",
"460 -290 LINE",
"378 -108 LINE",
"240 -147 LINE",
"296 -378 LINE {name = hr00;}",
"442 -522 LINE"
);
}
);
width = 1200;
}
);
},
{
glyphname = macronbelowcomb.case;
lastChange = "2022-07-13 01:10:32 +0000";
layers = (
{
anchors = (
{
name = _bottom;
position = "{616, 0}";
},
{
name = bottom;
position = "{616, -389}";
}
);
layerId = master01;
paths = (
{
closed = 1;
nodes = (
"980 -269 LINE",
"980 -99 LINE",
"251 -99 LINE",
"251 -269 LINE {name = hr00;}"
);
}
);
width = 1200;
}
);
},
{
glyphname = brevecomb_acutecomb;
lastChange = "2022-07-13 01:10:32 +0000";
layers = (
{
anchors = (
{
name = _top;
position = "{623, 1223}";
},
{
name = top;
position = "{653, 1925}";
}
);
layerId = master01;
paths = (
{
closed = 1;
nodes = (
"791 1155 LINE",
"927 1289 LINE",
"979 1505 LINE",
"850 1541 LINE",
"774 1371 LINE",
"471 1371 LINE",
"395 1541 LINE",
"266 1505 LINE",
"318 1289 LINE {name = hr00;}",
"454 1155 LINE"
);
},
{
closed = 1;
nodes = (
"996 1685 LINE",
"1040 1856 LINE",
"891 1925 LINE",
"517 1649 LINE {name = hr00;}",
"597 1540 LINE"
);
}
);
width = 1240;
}
);
},
{
glyphname = brevecomb_gravecomb;
lastChange = "2022-07-13 01:10:32 +0000";
layers = (
{
anchors = (
{
name = _top;
position = "{623, 1223}";
},
{
name = top;
position = "{608, 1925}";
}
);
layerId = master01;
paths = (
{
closed = 1;
nodes = (
"791 1155 LINE",
"927 1289 LINE",
"979 1505 LINE",
"850 1541 LINE",
"774 1371 LINE",
"471 1371 LINE",
"395 1541 LINE",
"266 1505 LINE",
"318 1289 LINE {name = hr00;}",
"454 1155 LINE"
);
},
{
closed = 1;
nodes = (
"760 1649 LINE {name = hr00;}",
"386 1925 LINE",
"237 1856 LINE",
"281 1685 LINE",
"680 1540 LINE"
);
}
);
width = 1240;
}
);
},
{
glyphname = brevecomb_hookabovecomb;
lastChange = "2022-07-13 01:10:32 +0000";
layers = (
{
anchors = (
{
name = _top;
position = "{623, 1223}";
},
{
name = top;
position = "{623, 1909}";
}
);
layerId = master01;
paths = (
{
closed = 1;
nodes = (
"791 1155 LINE",
"927 1289 LINE",
"979 1505 LINE",
"850 1541 LINE",
"774 1371 LINE",
"471 1371 LINE",
"395 1541 LINE",
"266 1505 LINE",
"318 1289 LINE {name = hr00;}",
"454 1155 LINE"
);
},
{
closed = 1;
nodes = (
"717 1538 LINE",
"717 1743 LINE",
"571 1909 LINE",
"311 1909 LINE",
"311 1674 LINE {name = hr00;}",
"549 1674 LINE",
"549 1538 LINE"
);
}
);
width = 1240;
}
);
},
{
glyphname = brevecomb_tildecomb;
lastChange = "2022-07-13 01:10:32 +0000";
layers = (
{
anchors = (
{
name = _top;
position = "{623, 1223}";
},
{
name = top;
position = "{620, 1863}";
}
);
layerId = master01;
paths = (
{
closed = 1;
nodes = (
"791 1155 LINE",
"927 1289 LINE",
"979 1505 LINE",
"850 1541 LINE",
"774 1371 LINE",
"471 1371 LINE",
"395 1541 LINE",
"266 1505 LINE",
"318 1289 LINE {name = hr00;}",
"454 1155 LINE"
);
},
{
closed = 1;
nodes = (
"808 1593 LINE",
"964 1765 LINE",
"894 1835 LINE",
"784 1742 LINE",
"730 1742 LINE",
"644 1863 LINE",
"417 1863 LINE {name = hr00;}",
"261 1692 LINE",
"330 1622 LINE",
"441 1713 LINE",
"494 1713 LINE",
"581 1593 LINE"
);
}
);
width = 1240;
}
);
},
{
glyphname = circumflexcomb_acutecomb;
lastChange = "2022-07-13 01:10:32 +0000";
layers = (
{
anchors = (
{
name = _top;
position = "{620, 1283}";
},
{
name = top;
position = "{819, 1854}";
}
);
layerId = master01;
paths = (
{
closed = 1;
nodes = (
"620 1375 LINE",
"910 1203 LINE",
"986 1282 LINE",
"744 1556 LINE {name = hr00;}",
"496 1556 LINE",
"254 1282 LINE",
"331 1203 LINE"
);
},
{
closed = 1;
nodes = (
"1343 1592 LINE",
"1387 1763 LINE",
"1238 1832 LINE",
"864 1556 LINE {name = hr00;}",
"944 1447 LINE"
);
}
);
width = 1240;
}
);
},
{
glyphname = circumflexcomb_gravecomb;
lastChange = "2022-07-13 01:10:32 +0000";
layers = (
{
anchors = (
{
name = _top;
position = "{620, 1283}";
},
{
name = top;
position = "{406, 1785}";
}
);
layerId = master01;
paths = (
{
closed = 1;
nodes = (
"620 1375 LINE",
"910 1203 LINE",
"986 1282 LINE",
"744 1556 LINE {name = hr00;}",
"496 1556 LINE",
"254 1282 LINE",
"331 1203 LINE"
);
},
{
closed = 1;
nodes = (
"349 1559 LINE {name = hr00;}",
"-25 1835 LINE",
"-174 1766 LINE",
"-130 1595 LINE",
"269 1450 LINE"
);
}
);
width = 1240;
}
);
},
{
glyphname = circumflexcomb_hookabovecomb;
lastChange = "2022-07-13 01:10:32 +0000";
layers = (
{
anchors = (
{
name = _top;
position = "{620, 1283}";
},
{
name = top;
position = "{620, 1919}";
}
);
layerId = master01;
paths = (
{
closed = 1;
nodes = (
"620 1375 LINE",
"910 1203 LINE",
"986 1282 LINE",
"744 1556 LINE {name = hr00;}",
"496 1556 LINE",
"254 1282 LINE",
"331 1203 LINE"
);
},
{
closed = 1;
nodes = (
"717 1618 LINE",
"717 1803 LINE",
"611 1919 LINE",
"311 1919 LINE",
"311 1734 LINE {name = hr00;}",
"549 1734 LINE",
"549 1618 LINE"
);
}
);
width = 1240;
}
);
},
{
glyphname = circumflexcomb_tildecomb;
lastChange = "2022-07-13 01:10:32 +0000";
layers = (
{
anchors = (
{
name = _top;
position = "{620, 1283}";
}
);
layerId = master01;
paths = (
{
closed = 1;
nodes = (
"620 1375 LINE",
"910 1203 LINE",
"986 1282 LINE",
"744 1556 LINE {name = hr00;}",
"496 1556 LINE",
"254 1282 LINE",
"331 1203 LINE"
);
},
{
closed = 1;
nodes = (
"808 1613 LINE",
"964 1785 LINE",
"894 1855 LINE",
"784 1762 LINE",
"730 1762 LINE",
"644 1883 LINE",
"417 1883 LINE {name = hr00;}",
"261 1712 LINE",
"330 1642 LINE",
"441 1733 LINE",
"494 1733 LINE",
"581 1613 LINE"
);
}
);
width = 1240;
}
);
},
{
glyphname = brevecomb_acutecomb.case;
lastChange = "2022-07-13 01:10:32 +0000";
layers = (
{
anchors = (
{
name = _top;
position = "{623, 1223}";
},
{
name = top;
position = "{653, 1925}";
}
);
layerId = master01;
paths = (
{
closed = 1;
nodes = (
"791 1155 LINE",
"927 1289 LINE",
"979 1505 LINE",
"850 1541 LINE",
"774 1371 LINE",
"471 1371 LINE",
"395 1541 LINE",
"266 1505 LINE",
"318 1289 LINE {name = hr00;}",
"454 1155 LINE"
);
},
{
closed = 1;
nodes = (
"996 1685 LINE",
"1040 1856 LINE",
"891 1925 LINE",
"517 1649 LINE {name = hr00;}",
"597 1540 LINE"
);
}
);
width = 1240;
}
);
},
{
glyphname = brevecomb_gravecomb.case;
lastChange = "2022-07-13 01:10:32 +0000";
layers = (
{
anchors = (
{
name = _top;
position = "{623, 1223}";
},
{
name = top;
position = "{608, 1925}";
}
);
layerId = master01;
paths = (
{
closed = 1;
nodes = (
"791 1155 LINE",
"927 1289 LINE",
"979 1505 LINE",
"850 1541 LINE",
"774 1371 LINE",
"471 1371 LINE",
"395 1541 LINE",
"266 1505 LINE",
"318 1289 LINE {name = hr00;}",
"454 1155 LINE"
);
},
{
closed = 1;
nodes = (
"760 1649 LINE {name = hr00;}",
"386 1925 LINE",
"237 1856 LINE",
"281 1685 LINE",
"680 1540 LINE"
);
}
);
width = 1240;
}
);
},
{
glyphname = brevecomb_hookabovecomb.case;
lastChange = "2022-07-13 01:10:32 +0000";
layers = (
{
anchors = (
{
name = _top;
position = "{623, 1223}";
},
{
name = top;
position = "{623, 1909}";
}
);
layerId = master01;
paths = (
{
closed = 1;
nodes = (
"791 1155 LINE",
"927 1289 LINE",
"979 1505 LINE",
"850 1541 LINE",
"774 1371 LINE",
"471 1371 LINE",
"395 1541 LINE",
"266 1505 LINE",
"318 1289 LINE {name = hr00;}",
"454 1155 LINE"
);
},
{
closed = 1;
nodes = (
"717 1538 LINE",
"717 1743 LINE",
"571 1909 LINE",
"311 1909 LINE",
"311 1674 LINE {name = hr00;}",
"549 1674 LINE",
"549 1538 LINE"
);
}
);
width = 1240;
}
);
},
{
glyphname = brevecomb_tildecomb.case;
lastChange = "2022-07-13 01:10:32 +0000";
layers = (
{
anchors = (
{
name = _top;
position = "{623, 1223}";
},
{
name = top;
position = "{620, 1863}";
}
);
layerId = master01;
paths = (
{
closed = 1;
nodes = (
"791 1115 LINE",
"927 1249 LINE",
"979 1465 LINE",
"850 1501 LINE",
"774 1331 LINE",
"471 1331 LINE",
"395 1501 LINE",
"266 1465 LINE",
"318 1249 LINE {name = hr00;}",
"454 1115 LINE"
);
},
{
closed = 1;
nodes = (
"808 1553 LINE",
"964 1725 LINE",
"894 1795 LINE",
"784 1702 LINE",
"730 1702 LINE",
"644 1823 LINE",
"417 1823 LINE {name = hr00;}",
"261 1652 LINE",
"330 1582 LINE",
"441 1673 LINE",
"494 1673 LINE",
"581 1553 LINE"
);
}
);
width = 1240;
}
);
},
{
glyphname = circumflexcomb_acutecomb.case;
lastChange = "2022-07-13 01:10:32 +0000";
layers = (
{
anchors = (
{
name = _top;
position = "{622, 1529}";
},
{
name = top;
position = "{819, 1854}";
}
);
layerId = master01;
paths = (
{
closed = 1;
nodes = (
"620 1560 LINE",
"910 1388 LINE",
"986 1467 LINE",
"744 1741 LINE {name = hr00;}",
"496 1741 LINE",
"254 1467 LINE",
"331 1388 LINE"
);
},
{
closed = 1;
nodes = (
"1296 1780 LINE",
"1340 1951 LINE",
"1191 2020 LINE",
"817 1744 LINE {name = hr00;}",
"897 1635 LINE"
);
}
);
width = 1240;
}
);
},
{
glyphname = circumflexcomb_gravecomb.case;
lastChange = "2022-07-13 01:10:32 +0000";
layers = (
{
anchors = (
{
name = _top;
position = "{624, 1529}";
},
{
name = top;
position = "{406, 1785}";
}
);
layerId = master01;
paths = (
{
closed = 1;
nodes = (
"620 1560 LINE",
"910 1388 LINE",
"986 1467 LINE",
"744 1741 LINE {name = hr00;}",
"496 1741 LINE",
"254 1467 LINE",
"331 1388 LINE"
);
},
{
closed = 1;
nodes = (
"396 1741 LINE {name = hr00;}",
"22 2017 LINE",
"-127 1948 LINE",
"-83 1777 LINE",
"316 1632 LINE"
);
}
);
width = 1240;
}
);
},
{
glyphname = circumflexcomb_hookabovecomb.case;
lastChange = "2022-07-13 01:10:32 +0000";
layers = (
{
anchors = (
{
name = _top;
position = "{624, 1529}";
},
{
name = top;
position = "{620, 1919}";
}
);
layerId = master01;
paths = (
{
closed = 1;
nodes = (
"620 1560 LINE",
"910 1388 LINE",
"986 1467 LINE",
"744 1741 LINE {name = hr00;}",
"496 1741 LINE",
"254 1467 LINE",
"331 1388 LINE"
);
},
{
closed = 1;
nodes = (
"717 1778 LINE",
"717 1963 LINE",
"601 2079 LINE",
"311 2079 LINE",
"311 1894 LINE {name = hr00;}",
"549 1894 LINE",
"549 1778 LINE"
);
}
);
width = 1240;
}
);
},
{
glyphname = circumflexcomb_tildecomb.case;
lastChange = "2022-07-13 01:10:32 +0000";
layers = (
{
anchors = (
{
name = _top;
position = "{624, 1529}";
},
{
name = top;
position = "{620, 1863}";
}
);
layerId = master01;
paths = (
{
closed = 1;
nodes = (
"620 1560 LINE",
"910 1388 LINE",
"986 1467 LINE",
"744 1741 LINE {name = hr00;}",
"496 1741 LINE",
"254 1467 LINE",
"331 1388 LINE"
);
},
{
closed = 1;
nodes = (
"808 1793 LINE",
"964 1965 LINE",
"894 2035 LINE",
"784 1942 LINE",
"730 1942 LINE",
"644 2063 LINE",
"417 2063 LINE {name = hr00;}",
"261 1892 LINE",
"330 1822 LINE",
"441 1913 LINE",
"494 1913 LINE",
"581 1793 LINE"
);
}
);
width = 1240;
}
);
},
{
glyphname = ringacutecomb.case;
lastChange = "2022-07-13 01:10:32 +0000";
layers = (
{
anchors = (
{
name = _top;
position = "{576, 1530}";
}
);
layerId = master01;
paths = (
{
closed = 1;
nodes = (
"722 1283 LINE {name = hr00;}",
"861 1420 LINE",
"861 1628 LINE",
"722 1765 LINE",
"605 1765 LINE",
"605 1610 LINE",
"683 1610 LINE",
"683 1439 LINE",
"605 1439 LINE",
"605 1283 LINE"
);
},
{
closed = 1;
nodes = (
"536 1283 LINE",
"536 1439 LINE",
"459 1439 LINE",
"459 1610 LINE",
"536 1610 LINE",
"536 1765 LINE",
"417 1765 LINE",
"280 1628 LINE",
"280 1420 LINE",
"417 1283 LINE"
);
},
{
closed = 1;
nodes = (
"990 1765 LINE",
"964 1882 LINE",
"838 1924 LINE",
"691 1743 LINE {name = hr00;}",
"753 1596 LINE"
);
}
);
userData = {
com.typemytype.robofont.guides = (
{
angle = 0;
isGlobal = 0;
magnetic = 5;
x = 0;
y = 1594;
},
{
angle = 0;
isGlobal = 0;
magnetic = 5;
x = 0;
y = 1524;
}
);
};
width = 1270;
}
);
rightMetricsKey = "=|";
},
